<svg xmlns="http://www.w3.org/2000/svg" width="84.699" height="75.182" viewBox="0 0 84.699 75.182">
  <path id="باهنر" d="M5.345,3.131c7.059.094,14.126-.249,21.184.155,7.7.309,15.053,5.942,16.891,13.5,1.056,5.9.129,11.91.55,17.835.884,1.46,2.353,2.447,3.538,3.632,1.408-1.039,2.774-2.147,4.1-3.306.215-6.973-1.237-14.306,1.383-20.987A18.7,18.7,0,0,1,68.537,3.32c7.153-.481,14.315-.086,21.476-.172-.069,17.99-.034,35.979-.026,53.978-.026,3.375.275,6.9-1.065,10.09-2.387,6.114-8.45,11-15.156,10.991q-11.489-.064-22.987-.034c.009-7.9.034-15.791-.026-23.683.043-2.877-.069-6.019,1.589-8.527,1.786-2.542,4.688-3.881,7.316-5.367-.034-6.208-.266-12.425.069-18.634a10.534,10.534,0,0,1,9.66-9.909c4.285-.249,8.57-.017,12.855-.06-1.683,1.683-3.375,3.349-5.1,4.989-3.435.077-7.428-.756-10.347,1.546C65.2,19.738,65.1,21.859,64.956,23.68c-.361,5.5.052,11.026-.086,16.539,1.194.069,2.4.137,3.6.215.052-5.023-.06-10.038-.026-15.053-.18-2.233,1.245-4.68,3.555-5.058a62.5,62.5,0,0,1,10.064-.155c-1.288,1.571-2.6,3.126-3.924,4.671H73.869c.052,5.753-.094,11.507,0,17.251,6.921,5.307,8.235,17.423.867,22.884-4.8,4.079-11.507,1.34-16.882,3.864.73-1.537,1.451-3.074,2.121-4.637a9.825,9.825,0,0,1,2.293-11.017c-.009,2.92-.567,6.844,2.5,8.518,4.525,2.473,10.115-2.43,9.712-7.187a8.942,8.942,0,0,0-9.351-9.188c-3.469.034-8.02,1.769-8.407,5.719-.438,7.119-.017,14.263-.137,21.39,6-.069,12,.146,18.007-.034,5.925-.249,9.969-6.286,10.133-11.824-.043-17.44,0-34.889-.034-52.338-5.109.043-10.227-.232-15.328.112-5.908.369-11.61,5.015-12.288,11.051-.85,6.208-.206,12.485-.438,18.72a23.834,23.834,0,0,0-8.922,8.6,24.369,24.369,0,0,0-8.991-8.759c-.052-5.934.275-11.884-.206-17.8-.361-6.483-6.492-11.618-12.8-11.85-5-.275-10-.034-15.01-.086.206,17.432-.223,34.872.1,52.3-.06,5.745,4.457,11.816,10.485,11.936,5.865.026,11.73-.052,17.595-.043-.2-7.11.155-14.229-.146-21.33-.24-3.83-4.525-5.5-7.831-5.736a9.047,9.047,0,0,0-9.987,9.154c-.352,4.869,5.384,9.8,9.961,7.093,2.834-1.7,2.173-5.41,2.267-8.2,2.456,2.164,3.9,5.564,2.868,8.8-.833,2.4.627,4.654,1.546,6.767-4.826-2.713-10.785-.1-15.517-3.117-6.105-3.237-7.737-11.464-5.1-17.483,1.013-2.576,3.091-4.465,4.646-6.7.335-5.573-.12-11.18.112-16.77-1.5-.034-3.005-.12-4.508-.172-1.211-1.546-2.464-3.057-3.71-4.577,3.469-.026,6.981-.395,10.407.258a4.69,4.69,0,0,1,3.194,4.843c.034,5.075-.077,10.141-.017,15.216,1.2-.094,2.4-.2,3.607-.292-.1-5.8.2-11.6-.12-17.389a5.874,5.874,0,0,0-4.379-5.6c-2.447-.369-4.946-.043-7.4-.361-2.267-.988-3.744-3.1-5.427-4.826,4.345.017,8.7-.215,13.044.069a10.533,10.533,0,0,1,9.325,9.789c.24,6.26-.009,12.52.094,18.78,3.89,1.906,8.647,4.637,8.681,9.566.309,9.343.163,18.7.026,28.045-8.012-.249-16.04.06-24.052-.137-5.178-.1-9.36-3.847-12.314-7.771-2.447-3.289-2.894-7.557-2.834-11.532C5.405,40.253,5.371,21.7,5.345,3.131Z" transform="translate(-5.314 -3.077)" fill="#adadad"/>
</svg>
