<svg xmlns="http://www.w3.org/2000/svg" width="70.081" height="80.18" viewBox="0 0 70.081 80.18">
  <g id="جیرفت" transform="translate(-647.312 -213.201)">
    <g id="_f1f1f1ff" data-name="#f1f1f1ff" transform="translate(647.312 213.201)">
      <path id="Path_642" data-name="Path 642" d="M648.679,213.463c7.847-.625,15.714.088,23.569-.094,2.208.115,4.66-.141,6.576,1.191,1.689,1.123,2.45,3.089,3.726,4.592a8.913,8.913,0,0,1,3.225-4.587,8.446,8.446,0,0,1,4.483-1.244c7.764-.041,15.531-.018,23.3-.024a37.855,37.855,0,0,1,3.794.047c0,16.244.032,32.489.009,48.73.038,6.193.032,12.386.021,18.579a1.448,1.448,0,0,1-1.043,1.547,112.889,112.889,0,0,0-11.755,6.553c-2.037,1.2-4.05,2.435-6.072,3.658a5.036,5.036,0,0,1-5.418-.209,67.968,67.968,0,0,0-8.33-5.191c-1.359-.607-3-1.091-4.4-.339-3.829,1.951-7.013,5.034-11.048,6.609-.881.354-1.692-.324-2.449-.681-6.175-3.3-12.047-7.136-18.237-10.411-.6-.318-1.432-.7-1.3-1.524q.04-31.547.018-63.1c.018-1.173-.059-2.346.047-3.514.006-.648.861-.486,1.288-.592m39.923,8.645a6.4,6.4,0,0,0-2.962,5.468c-.153,3.307-.018,6.623.053,9.931a28.254,28.254,0,0,0,12.091-4.477,36.062,36.062,0,0,1,5.2-3.124c.035,13.966,0,27.929.091,41.892a3.026,3.026,0,0,1-1.429,2.865c-2.164,1.323-4.472,2.4-6.671,3.664-1.978,1.073-3.72,2.635-5.954,3.172,1.138.864,2.358,1.618,3.511,2.464a6.064,6.064,0,0,0,2.7,1.338,4.69,4.69,0,0,0,3.015-.8c3.823-2.287,7.6-4.657,11.552-6.727.56-.18.5-.787.5-1.259q-.035-27.262,0-54.531c.038-.424-.059-1.035-.616-.979a124.8,124.8,0,0,0-12.94-.519c-2.759.109-5.663.28-8.135,1.627m-34.033-1.049a10.5,10.5,0,0,0-.174,2.983c.006,17,.027,34.013-.032,51.017a3.836,3.836,0,0,0,1.984,3.49,102.91,102.91,0,0,0,10.617,5.925,4.7,4.7,0,0,0,2.951.681,6.387,6.387,0,0,0,2.963-1.612c1-.808,2.107-1.5,3.039-2.394-4.784-1.141-8.6-4.463-12.984-6.5-.448-.274-1.185-.41-1.229-1.046-.127-1.583-.015-3.177-.05-4.766.029-12.949-.05-25.9,0-38.85,3.484,1.889,6.659,4.348,10.34,5.875a25.79,25.79,0,0,0,6.833,1.789,50.109,50.109,0,0,0,.4-7.979,12.758,12.758,0,0,0-1.5-6.087,4.74,4.74,0,0,0-3.434-2.284c-6.043-.71-12.141-.239-18.207-.357a6.677,6.677,0,0,0-1.518.115M668.5,242c-.147,1.869-.07,3.746-.032,5.618.032,6.582-.056,13.167-.1,19.749a3.47,3.47,0,0,0,1.323,2.877c3.039,2.243,6.706,3.431,9.8,5.577,1.061.651,1.707,2.137,3.11,2.063,1-.192,1.55-1.182,2.361-1.716,3.186-2.379,6.921-3.847,10.314-5.88a1.519,1.519,0,0,0,.908-1.432c.038-4.917-.08-9.839.094-14.753-.074-4.024.124-8.056-.083-12.071a50.93,50.93,0,0,0-8.569,2.42,15.913,15.913,0,0,1-7.34.731C676.251,244.569,672.4,243.137,668.5,242Z" transform="translate(-647.312 -213.201)" fill="#adadad"/>
    </g>
  </g>
</svg>
