<svg xmlns="http://www.w3.org/2000/svg" width="75.177" height="75.182" viewBox="0 0 75.177 75.182">
  <g id="جیرفت" transform="translate(-0.003 0)">
    <g id="svg8" transform="translate(0.003 0)">
      <g id="layer1" transform="translate(0 0)">
        <path id="path2426" d="M37.573,0a1.906,1.906,0,0,0-1.326.558l-7.832,7.83H10.392a2.021,2.021,0,0,0-2.005,2.005V28.418l-7.83,7.83a1.912,1.912,0,0,0,0,2.69l7.83,7.83V64.791A2.021,2.021,0,0,0,10.392,66.8H28.415l7.832,7.83a1.912,1.912,0,0,0,2.69,0l7.83-7.83H64.79A2.021,2.021,0,0,0,66.8,64.791V46.768l7.832-7.83a1.912,1.912,0,0,0,0-2.69L66.8,28.418V10.393A2.021,2.021,0,0,0,64.79,8.388H46.767L38.937.558A1.91,1.91,0,0,0,37.573,0ZM37.6,4.592l4.774,4.772,2.864,2.866.4.392-3.8,6.565H33.326l-3.782-6.551ZM12.4,12.4H24.4L12.4,24.4Zm38.381,0H62.785V24.406Zm-2.219,3.165,11.07,11.054-6.634,3.83a2.009,2.009,0,0,0-1.011,1.738V43a2.009,2.009,0,0,0,1.011,1.736l6.63,3.828L48.558,59.625l-3.83-6.638a2.021,2.021,0,0,0-1.738-1.011H32.168a2,2,0,0,0-1.734,1.011L26.61,59.609,15.566,48.569l6.63-3.828A2.005,2.005,0,0,0,23.206,43V32.185A2,2,0,0,0,22.2,30.447l-6.63-3.83L26.612,15.573l3.824,6.621a2,2,0,0,0,1.734,1.011H42.993a2.009,2.009,0,0,0,1.736-1.011ZM43.99,26.477A1.991,1.991,0,0,0,43,26.217H32.18a2.007,2.007,0,0,0-1.736,1.011l-5.411,9.356a2,2,0,0,0,0,2l5.411,9.372a2.005,2.005,0,0,0,1.736,1.011H43a2.005,2.005,0,0,0,1.736-1.011L50.147,38.6a2.005,2.005,0,0,0,0-2.007l-5.409-9.37h0a2,2,0,0,0-.748-.742Zm-2.149,3.749,4.245,7.363-4.245,7.367h-8.5l-4.245-7.365,4.245-7.367Zm-29.212-.673,6.561,3.8v8.489l-6.557,3.8-8.042-8.04Zm49.924,0,.4.4,2.864,2.866,4.772,4.77L65.817,42.37l-2.864,2.864-.4.4-6.559-3.8V33.35Zm.23,21.223V62.784H50.777Zm-50.388,0L24.4,62.784H12.4ZM33.326,56h8.515l3.792,6.563-.4.4-2.864,2.864L37.6,70.592l-8.046-8.046Z" transform="translate(-0.003 0)" fill="#adadad"/>
      </g>
    </g>
  </g>
</svg>
