<svg xmlns="http://www.w3.org/2000/svg" width="71.171" height="88.382" viewBox="0 0 71.171 88.382">
  <g id="تحصیلات_تکمیلی" data-name="تحصیلات تکمیلی" transform="translate(-1277.81 -2524)">
    <g id="Group_433" data-name="Group 433" transform="translate(1277.81 2524)">
      <path id="Path_1665" data-name="Path 1665" d="M40.008,6.031A10.634,10.634,0,0,0,43.8,2.57c-.005,4.176.177,8.352.188,12.528-3.2,1.236-6.573,1.924-9.8,3.064a30,30,0,0,0-12.394,7.347c-2.763,3-3.666,7.2-3.649,11.169,0,9.825.124,19.645.446,29.459-2.134-1.279-4.257-2.58-6.374-3.881-.494-.349-1.247-.613-1.113-1.371-.36-13.4-.6-26.814-.156-40.219.812,0,1.618-.005,2.424-.016a14.5,14.5,0,0,1,8.54-8.438C27.781,9.686,34.241,8.826,40.008,6.031Z" transform="translate(-10.7 -2.57)" fill="#adadad"/>
      <path id="Path_1666" data-name="Path 1666" d="M51.429,24.89c3.719-1.021,7.783-2.634,9.486-6.38.134,4.391-.048,8.8.382,13.179-.064.086-.2.258-.263.344a41.558,41.558,0,0,0-9.841,2.693A25.43,25.43,0,0,0,39.17,43.481a13.8,13.8,0,0,0-2.429,7.508c.091,9.422.312,18.838.564,28.255-2.612-1.559-5.391-2.806-7.971-4.413-.226-12.48-.613-24.96-.441-37.446.876,0,1.758.005,2.634.016a14.013,14.013,0,0,1,3.413-5.068C39.449,28.082,45.657,26.588,51.429,24.89Z" transform="translate(-19.095 -9.943)" fill="#adadad"/>
      <path id="Path_1667" data-name="Path 1667" d="M88.62,44.11c.2.14.613.425.817.564a7.914,7.914,0,0,0,3.3,3.558c5.557,3.5,12.163,4.939,17.575,8.7a14.427,14.427,0,0,1,5.251,7.052c.656.027,1.317.059,1.978.1.537,11.056.274,22.133.365,33.194-.086.752.253,1.747-.494,2.263-1.607,1.424-3.241,2.822-4.869,4.214-.548-8.772-.317-17.591-.441-26.384a15.465,15.465,0,0,0-4.2-10.427c-4.165-4.225-9.8-6.482-15.3-8.411a14.166,14.166,0,0,1-3.59-1.688C88.674,52.607,88.824,48.351,88.62,44.11Z" transform="translate(-46.74 -21.784)" fill="#adadad"/>
      <path id="Path_1668" data-name="Path 1668" d="M72.84,59.03A11.506,11.506,0,0,0,77.2,63.9c6,3.612,13.329,4.569,18.892,9a14.74,14.74,0,0,1,4.7,6.3c.72.1,1.451.064,2.182.091.129,10.975.317,21.945.312,32.92-2.085,1.639-4.128,3.327-6.294,4.853-.011-8.433.005-16.871-.226-25.3-.14-4.472-2.795-8.454-6.251-11.126-5.036-3.848-11.158-5.853-17.194-7.508C72.749,68.473,73.136,63.722,72.84,59.03Z" transform="translate(-39.441 -28.684)" fill="#adadad"/>
    </g>
  </g>
</svg>
