<svg xmlns="http://www.w3.org/2000/svg" width="54.645" height="75.182" viewBox="0 0 54.645 75.182">
  <g id="یزد" transform="translate(-278.27)">
    <path id="Path_1664" data-name="Path 1664" d="M296.93,0h17.226c7.6,5.719,17.333,11.588,18.758,21.874v37.3c-2.328.053-4.709-.212-6.993.363-2.523.7-4.338,2.806-5.542,5.028-1.974,3.55-3.957,7.1-5.993,10.614-5.887-.071-11.765-.027-17.651-.035-2.558-4.231-4.63-8.773-7.462-12.827-2.532-3.532-7.161-3.266-11-3.134.212-12.066-.009-24.131.044-36.2a15.286,15.286,0,0,1,2.992-9.065C285.4,8.171,291.362,4.178,296.93,0m8.843,2.452c5.763,4.612,14.518,8.516,14.712,17.014-.23,13.075-.089,26.167.027,39.251-2.434.31-5.471-.859-7.33,1.248-3.939,3.868-7.02,8.5-10.339,12.889,3.444-.027,6.9-.018,10.348-.018,2.355-4.037,4.3-8.33,7-12.154,2.417-3.249,6.6-4.187,10.454-3.86-.266-11.269-.009-22.538-.035-33.807a13.018,13.018,0,0,0-2.47-7.507c-3.691-5.2-8.958-8.985-14.04-12.721-2.6-.929-5.586-.2-8.33-.336m-9.968,1.213c-6.108,4.957-14.19,9.9-15.208,18.421-.168,11.57.062,23.157-.08,34.727,3.178-.106,6.683.133,9.091,2.505,3.842,3.638,5.418,8.914,8.3,13.252,3.355,1.3,4.284-3.647,6.347-5.382a47.2,47.2,0,0,0-6.365-7.3c-2.071-1.965-5.125-1.027-7.666-1.177-.168-13.376.088-26.76.027-40.127.4-7.622,8.348-10.747,13.207-15.279-2.514-.407-5.6-1.912-7.657.363m-1.319,10.109c-2.656,3.01-2.045,7.285-1.965,10.977.053,10.516-.089,21.024-.115,31.531,2,.177,4.311-.31,5.984,1.08a35.741,35.741,0,0,1,7.2,7.94c3.417-3.895,6.533-10.091,12.676-9.047,0-10.207-.2-20.4-.124-30.611.035-4.081.912-8.958-2.257-12.181A133.117,133.117,0,0,0,305.42,4.878C301.764,7.825,297.674,10.286,294.487,13.774Z" fill="#adadad"/>
  </g>
</svg>
