<svg xmlns="http://www.w3.org/2000/svg" width="77.92" height="78" viewBox="0 0 77.92 78">
  <g id="دانش_آموختگان" data-name="دانش آموختگان" transform="translate(-0.234)">
    <path id="Path_586" data-name="Path 586" d="M17.165,0h1.563a20.786,20.786,0,0,1,6.4,1.121,6.408,6.408,0,0,1,2.361,1.435,2.466,2.466,0,0,1,.733,2.019c-.6,4.532-1.26,9.058-1.906,13.584,3.163-1.184,6.319-2.384,9.48-3.571a11.137,11.137,0,0,1,2.614-.8,6.451,6.451,0,0,1,3.2.424q16.97,6.4,33.942,12.8a4.633,4.633,0,0,1,1.787.943,2.953,2.953,0,0,1,.375,3.582,2.9,2.9,0,0,1-1.543,1.184q-6.805,2.571-13.612,5.129c-.009,3.684.008,7.369-.009,11.052.046.692-.6,1.066-1.12,1.351-.9.555-1.83,1.051-2.751,1.563q0,4.79,0,9.576a4.56,4.56,0,0,1,3.356,4.261c.012,2.241.008,4.48,0,6.721a1.152,1.152,0,0,1-1.194,1.2q-3.288.009-6.578,0a1.158,1.158,0,0,1-1.234-1.208c0-2.236-.008-4.474,0-6.709a4.56,4.56,0,0,1,3.356-4.264q0-4.225,0-8.452a43.956,43.956,0,0,1-11.113,3.455,39.029,39.029,0,0,1-20.137-1.84q1.147,9.534,2.293,19.067a2.49,2.49,0,0,1-.294,1.638,4.322,4.322,0,0,1-2.165,1.626A20.635,20.635,0,0,1,18.713,78H17.456a24.619,24.619,0,0,1-6.584-.9A5.855,5.855,0,0,1,8,75.408a2.468,2.468,0,0,1-.477-1.979q2.219-15.587,4.441-31.172a3.179,3.179,0,0,1-1.523-.847,3.588,3.588,0,0,1,.591-5.382Q6.57,34.346,2.112,32.665A2.77,2.77,0,0,1,.348,30.773a2.846,2.846,0,0,1,1.612-3.42c2.809-1.071,5.628-2.124,8.44-3.189-.163-1.613-.363-3.224-.527-4.837a1.051,1.051,0,0,1,.411-1.022A1.148,1.148,0,0,1,12.121,19c.635,5.542,1.237,11.091,1.854,16.636.913.009,1.827,0,2.739,0q0-13.592,0-27.184a17.436,17.436,0,0,1-5.908-1.271c.225,1.926.459,3.853.635,5.783a1.16,1.16,0,0,1-1.81.9,1.347,1.347,0,0,1-.5-1.088C8.795,9.846,8.073,6.942,8.2,3.978c.084-1.331,1.3-2.189,2.409-2.7A18.378,18.378,0,0,1,17.165,0M12.072,3.132a2.881,2.881,0,0,0-1.558.949c-.2.318.114.622.378.76a9.4,9.4,0,0,0,2.7.826A24.872,24.872,0,0,0,20,6.135,19.181,19.181,0,0,0,24.435,5.4,2.442,2.442,0,0,0,26,4.278a2.26,2.26,0,0,0-1.275-.94,15.655,15.655,0,0,0-3.2-.743,20.056,20.056,0,0,0-4.717-.244,22.294,22.294,0,0,0-4.733.782M19,8.476q0,13.581,0,27.158c.894.006,1.79,0,2.684,0Q23.578,21.5,25.454,7.363A19.945,19.945,0,0,1,19,8.476m17.9,8.14q-5.461,2.052-10.92,4.116-1,7.543-2,15.087a3.311,3.311,0,0,1,2.3,3.5c3.772,1.462,7.571,2.858,11.351,4.3a4.036,4.036,0,0,0,2.936.076c2.291-.846,4.566-1.738,6.862-2.573a1.127,1.127,0,0,1,1.427,1.085,1.076,1.076,0,0,1-.771,1.1q-2.92,1.108-5.844,2.211a6.835,6.835,0,0,1-5.289.289q-5.779-2.185-11.563-4.355a3.341,3.341,0,0,1-1.7.919q.576,4.808,1.156,9.616a36.01,36.01,0,0,0,11.171,2.573,41.881,41.881,0,0,0,24.265-6.269q0-4.79,0-9.578c-1.952.731-3.9,1.475-5.85,2.2a1.066,1.066,0,0,1-1.382-.558,1.086,1.086,0,0,1,.573-1.574c7.3-2.759,14.6-5.493,21.895-8.262a.562.562,0,0,0,.046-1.056c-5.666-2.147-11.331-4.3-17.011-6.409-6.365,2.632-12.705,5.338-19.066,7.986a1.086,1.086,0,0,1-1.42-.661,1.064,1.064,0,0,1,.539-1.437q8.389-3.533,16.784-7.055A3.733,3.733,0,0,0,55,21.7q-7.091-2.66-14.171-5.341a4.25,4.25,0,0,0-1.953-.321,7.084,7.084,0,0,0-1.973.583M2.843,29.459a.561.561,0,0,0,.05,1.06C5.75,31.6,8.612,32.67,11.467,33.753q-.4-3.622-.8-7.244c-2.608.981-5.219,1.958-7.823,2.949m9.61,8.572c-.977.2-.931,2,.093,2.078,3.5.02,7,0,10.5.008,1.028.066,1.284-1.575.463-2.02a1.955,1.955,0,0,0-.757-.091c-3.432.011-6.868-.04-10.3.026m1.808,4.292c-1.487,10.471-3,20.94-4.467,31.413a2.33,2.33,0,0,0,1.088.74,18.153,18.153,0,0,0,5.765,1.2q0-16.666,0-33.333c-.8-.014-1.59-.024-2.386-.021m4.672.038q0,16.668,0,33.337a15.551,15.551,0,0,0,4.767-.847,3.254,3.254,0,0,0,1.475-.955c-1.28-10.5-2.523-21.01-3.8-31.512-.815,0-1.629-.012-2.444-.023M55.327,65.677c-.021,1.869,0,3.739-.008,5.608q2.219,0,4.441,0c0-1.883.011-3.766-.008-5.647a2.215,2.215,0,0,0-4.426.038Z" transform="translate(0)" fill="#0065bb"/>
  </g>
</svg>
