<svg id="بودجه_ریزی_مبتنی_بر_عملکرد_" data-name="بودجه ریزی مبتنی بر عملکرد " xmlns="http://www.w3.org/2000/svg" width="73.715" height="75.65" viewBox="0 0 73.715 75.65">
  <path id="Path_1847" data-name="Path 1847" d="M43.139,0h1.8a36.892,36.892,0,0,1,29.01,58.206c.984.056,2.073-.2,2.957.355a2.37,2.37,0,0,1,1.145,2c.012,4.09,0,8.18.007,12.271a2.769,2.769,0,0,1-.43,1.777,2.526,2.526,0,0,1-1.668,1.037H63.774a7.888,7.888,0,0,1-.98-.352,5.515,5.515,0,0,1-1.017.352H49.609c-.324-.1-.632-.238-.957-.325-.327.075-.632.226-.953.325h-12.2a2.481,2.481,0,0,1-1.806-1.238,4.21,4.21,0,0,1-.3-2.206,37.587,37.587,0,0,1-8.413-3.722A36.792,36.792,0,0,1,8.2,27.614,36.6,36.6,0,0,1,17.833,10.8a1.1,1.1,0,0,1,1.786.3,1.2,1.2,0,0,1-.372,1.407,35.186,35.186,0,0,0-4.023,4.871q13.783,8.728,27.568,17.453,0-16.305,0-32.609A34.331,34.331,0,0,0,23.366,8.947a1.337,1.337,0,0,1-1.39.338,1.094,1.094,0,0,1-.262-1.85A36.635,36.635,0,0,1,43.139,0M45,2.224q-.009,17-.006,33.992c1.476.953,2.971,1.875,4.447,2.827a1.1,1.1,0,1,1-1.158,1.869c-1.457-.91-2.9-1.841-4.357-2.756Q29.792,47.538,15.667,56.933A34.751,34.751,0,0,0,33.38,69.894c.018-4.826,0-9.65.012-14.475a2.4,2.4,0,0,1,2.451-2.293c3.895,0,7.79-.018,11.684.01.041-2.643-.007-5.287.024-7.93a2.392,2.392,0,0,1,2.336-2.234c3.743-.013,7.487,0,11.229-.007a2.94,2.94,0,0,1,1.426.241,2.375,2.375,0,0,1,1.35,2c.025.994,0,1.99.009,2.986q4.931,3.125,9.866,6.246a35.132,35.132,0,0,0,3.757-9.223A34.674,34.674,0,0,0,45,2.224M9.254,35.755q15.439,0,30.879,0-13.045-8.247-26.08-16.509a34.443,34.443,0,0,0-4.8,16.512m0,2.209A35.154,35.154,0,0,0,9.8,43.078c7.843-1.664,15.669-3.412,23.518-5.047a9.616,9.616,0,0,0-1.611-.068q-11.226,0-22.453,0m1.014,7.271A35.065,35.065,0,0,0,14.445,55.1Q26.422,47.135,38.4,39.17q-14.067,3.019-28.129,6.065M49.757,45.2c-.024.949-.007,1.9-.01,2.847q5.975,0,11.952,0c-.006-.95.016-1.9-.015-2.852-1.42-.053-2.84-.009-4.26-.024-2.556.018-5.112-.035-7.667.028m-.01,5.055c0,.956-.006,1.913,0,2.869,3.98,0,7.96-.009,11.939,0,.022-.957.006-1.916.01-2.874H49.746M63.9,50.8q-.007,3.706,0,7.41c2.428-.007,4.855-.012,7.281,0,.5-.615.954-1.262,1.4-1.912q-4.342-2.753-8.683-5.5M35.657,55.362a23.569,23.569,0,0,0-.069,2.841c1.563.009,3.126-.007,4.688.006a1.1,1.1,0,1,1,.021,2.2c-1.571.016-3.14-.01-4.709.012.012.959-.019,1.919.019,2.878,3.978-.024,7.957,0,11.936-.01q0-1.438,0-2.875c-.845-.01-1.692.015-2.535-.007a1.1,1.1,0,0,1,0-2.191c.844-.027,1.69,0,2.535-.009-.01-.892.022-1.786-.012-2.679-.021-.044-.059-.133-.078-.177-1.257-.049-2.519,0-3.778-.019-2.671.022-5.349-.046-8.017.033m14.094-.035c-.012.959,0,1.918-.006,2.878q5.977,0,11.953,0c0-.959.006-1.919,0-2.878q-5.971.007-11.943,0m0,5.086q0,1.438,0,2.875,5.977,0,11.953,0,0-1.438,0-2.875-5.975,0-11.952,0m14.177.021c-.044.95-.012,1.9-.021,2.855q5.977,0,11.953,0c0-.946.007-1.89-.007-2.834a8.688,8.688,0,0,0-1-.044c-3.642.022-7.284-.027-10.926.025M35.589,65.495V68.37H47.54c0-.96.016-1.921-.012-2.88-3.979.01-7.96,0-11.94,0m14.158,0q0,1.438,0,2.878,5.975,0,11.95,0c0-.96,0-1.919,0-2.88q-5.975.007-11.949,0m14.159,0c0,.959-.009,1.918,0,2.877q5.973,0,11.946,0,0-1.438,0-2.875-5.973,0-11.949,0M35.583,70.578c.016.943,0,1.887.013,2.829.327.027.653.044.981.04,3.65-.024,7.3.031,10.949-.028.034-.95.01-1.9.016-2.85-3.986,0-7.973-.015-11.959.009m14.162-.009c0,.947-.012,1.9.012,2.843.389.03.777.04,1.167.034,3.586-.022,7.173.034,10.759-.028.033-.95.009-1.9.015-2.849q-5.977,0-11.953,0m14.159,0c.006.95-.022,1.9.018,2.853,1.572.049,3.146.009,4.718.022,2.4-.024,4.806.047,7.207-.037.018-.946,0-1.89.01-2.835C71.873,70.561,67.888,70.569,63.9,70.569Z" transform="translate(-7.038 0)" fill="#0065bb"/>
</svg>
