<svg xmlns="http://www.w3.org/2000/svg" width="75.65" height="75.65" viewBox="0 0 75.65 75.65">
  <g id="منابع_انسانی_بام" data-name="منابع انسانی بام" transform="translate(0)">
    <path id="Path_1893" data-name="Path 1893" d="M178.3,0h.91a22.776,22.776,0,0,1,9.013,2.076,1.1,1.1,0,0,1,.222,1.831,1.33,1.33,0,0,1-1.492.03A20.469,20.469,0,0,0,165,37.844q.824-.058,1.653-.049A12.2,12.2,0,0,1,172,28.348a8.522,8.522,0,0,1-1.582-4.86c-.007-2.51,0-5.021,0-7.53A8.566,8.566,0,0,1,178.608,7.4c1.232-.04,2.466,0,3.7-.018a8.359,8.359,0,0,1,2.457.191,4.5,4.5,0,0,1,3.092,3.379,7.566,7.566,0,0,1-.22,3.256,6.605,6.605,0,0,0-.525,2.043c.012,2.366.006,4.733.006,7.1a8.578,8.578,0,0,1-1.584,4.993,12.067,12.067,0,0,1,4.113,4.792,13.45,13.45,0,0,1,1.254,6.046,20.48,20.48,0,0,0,.412-32.673,1.217,1.217,0,0,1-.582-1.331,1.106,1.106,0,0,1,1.742-.569,22.708,22.708,0,0,1,1.3,35.108c.882,1.439,1.755,2.883,2.646,4.316a5.869,5.869,0,0,1,3.785,2.773q2.859,4.683,5.723,9.363a6.1,6.1,0,0,1,.9,2.815v.465a5.883,5.883,0,0,1-2.165,4.286,5.744,5.744,0,0,1-8.49-1.667q-2.881-4.725-5.77-9.449a5.847,5.847,0,0,1-.669-4.5c-.872-1.447-1.761-2.883-2.642-4.325a23.058,23.058,0,0,1-12.762,1.144c.154,2.055.04,4.121.075,6.181a19.35,19.35,0,0,1-.312,4.96,9.045,9.045,0,0,1-1.274,2.663A12.177,12.177,0,0,1,177.8,65.78a22.77,22.77,0,0,1,.372,6.03,4.1,4.1,0,0,1-3.738,3.84H157.721a4.1,4.1,0,0,1-3.769-3.831,21.9,21.9,0,0,1,.426-6.244,12.181,12.181,0,0,1,4.922-6.831,8.488,8.488,0,0,1-1.582-4.817c0-2.705-.018-5.412.009-8.118a8.421,8.421,0,0,1,4.811-7.255,22.681,22.681,0,0,1-5.027-23.763A22.593,22.593,0,0,1,165.4,4.363,22.918,22.918,0,0,1,178.3,0m-1.4,9.96a6.357,6.357,0,0,0-4.227,5.417c-.069,1.092-.018,2.187-.033,3.279,2.141,0,4.283.009,6.424,0a6.791,6.791,0,0,0,6.664-6.977,2.259,2.259,0,0,0-2.055-2.057c-.9-.038-1.8,0-2.7-.013a12.043,12.043,0,0,0-4.078.356m2.166,10.909c-2.142.012-4.285,0-6.426,0a15.628,15.628,0,0,0,.307,4.48A6.131,6.131,0,0,0,184.9,23.488c.01-1.625,0-3.249,0-4.873a9.071,9.071,0,0,1-5.842,2.253m-10.2,17.392a8.409,8.409,0,0,1,4.424,3.707,2.2,2.2,0,0,0,.349.516,9.473,9.473,0,0,0,1.129.281,5.675,5.675,0,0,1-.387-1.382,5.124,5.124,0,0,1,.253-1.33q.683-2.615,1.353-5.232c-.85-1.07-.559-2.485-.607-3.746a9.993,9.993,0,0,1-1.8-1.1,9.946,9.946,0,0,0-4.718,8.282m13.416-7.231c-.055,1.28.26,2.728-.628,3.8.479,2.005.99,4,1.472,6.008a3.366,3.366,0,0,1-.335,1.922,21,21,0,0,0,5.9-2.16,18.756,18.756,0,0,0-.287-4.54,10,10,0,0,0-4.4-6.083,13.2,13.2,0,0,1-1.714,1.049m-4.684.687c.075.563-.2,1.275.189,1.743a4.76,4.76,0,0,0,2.092-.006c.368-.48.115-1.182.183-1.752a10.04,10.04,0,0,1-2.465.015m.436,4.05c-.46,1.834-.978,3.657-1.4,5.5.129.631.409,1.222.6,1.838a22.085,22.085,0,0,0,3.1,0c.189-.615.461-1.2.6-1.832-.4-1.844-.9-3.666-1.33-5.5-.522,0-1.042,0-1.563,0M161.512,42.03a6.342,6.342,0,0,0-1.6,4.393,4.075,4.075,0,0,1,3.041-1.136,8.386,8.386,0,0,1,1.99.559,4.879,4.879,0,0,0,3.076-.293,3.97,3.97,0,0,1,4.195.867,6.826,6.826,0,0,0-.963-3.454,6.065,6.065,0,0,0-9.738-.935m27.621.847q.911,1.489,1.82,2.979a6.146,6.146,0,0,1,2.893-1.773c-.6-.991-1.218-1.975-1.813-2.971a27.655,27.655,0,0,1-2.9,1.766m5.176,3.4a3.464,3.464,0,0,0-2.53,3.064,3.547,3.547,0,0,0,.575,2.219c1.949,3.18,3.884,6.367,5.836,9.543a3.554,3.554,0,0,0,3.613,1.572,3.469,3.469,0,0,0,2.793-2.968,3.549,3.549,0,0,0-.559-2.38q-2.919-4.765-5.83-9.535a3.58,3.58,0,0,0-3.9-1.516M162.1,47.609c-.631.223-.923.869-1.257,1.395a16.9,16.9,0,0,0-.888,1.5c-.059.548-.015,1.1-.024,1.652a14.278,14.278,0,0,0,.163,3.076,6.13,6.13,0,0,0,11.857.315,15.7,15.7,0,0,0,.248-3.976c-.03-.462.108-.983-.18-1.386-.424-.663-.813-1.349-1.256-2a1.609,1.609,0,0,0-1.995-.538,6.629,6.629,0,0,1-4.374.381c-.755-.18-1.494-.785-2.295-.421m-5.7,19.007a19.584,19.584,0,0,0-.25,4.3,3.135,3.135,0,0,0,.225,1.535,1.864,1.864,0,0,0,1.687.977c1.345.012,2.689,0,4.034,0a7.933,7.933,0,0,1-.483-1.622,5.645,5.645,0,0,1,.284-1.479c.442-1.708.892-3.415,1.321-5.127-.861-1.07-.548-2.494-.607-3.756a10.333,10.333,0,0,1-1.743-1.07,9.9,9.9,0,0,0-4.467,6.238m13.115-5.167c-.052,1.272.251,2.713-.629,3.784q.638,2.635,1.3,5.264a5.1,5.1,0,0,1,.228,1.3,8.167,8.167,0,0,1-.485,1.631c1.374,0,2.747.007,4.121,0a1.866,1.866,0,0,0,1.69-.953,3.1,3.1,0,0,0,.241-1.563,19.646,19.646,0,0,0-.251-4.289,9.941,9.941,0,0,0-4.459-6.249,10.835,10.835,0,0,1-1.751,1.073m-4.684.658a10.415,10.415,0,0,0,.04,1.563c.217.426.795.232,1.179.287.392-.058.968.143,1.2-.279a10.692,10.692,0,0,0,.041-1.569,10.04,10.04,0,0,1-2.465,0m-.953,9.467a9.319,9.319,0,0,0,.564,1.86h3.137c.182-.752.751-1.485.485-2.278-.421-1.662-.822-3.327-1.235-4.991h-1.562C164.809,67.968,164.315,69.765,163.878,71.573Z" transform="translate(-131.185 0)" fill="#0065bb"/>
    <path id="Path_1894" data-name="Path 1894" d="M7.892,151.977a11.481,11.481,0,0,1,15.72,10.68q.007,6.946,0,13.89a6.619,6.619,0,0,0,.072,2.134,12.855,12.855,0,0,1,.573,4.375,19.178,19.178,0,0,1-.1,2.928,4.071,4.071,0,0,1-2.617,2.962,7.223,7.223,0,0,1-2.481.236c-2.171,0-4.341-.006-6.51,0a1.568,1.568,0,0,1-1.209-.338,1.113,1.113,0,0,1,.074-1.621,1.676,1.676,0,0,1,1.142-.267c2.462.012,4.923,0,7.383.007a2.007,2.007,0,0,0,1.643-.641,2.47,2.47,0,0,0,.461-1.792,19.109,19.109,0,0,0-.3-4.583,9.951,9.951,0,0,0-4.155-5.884c-.019,1.523.038,3.047,0,4.57a2.154,2.154,0,0,1-3.011,1.813c-.866-.48-1.622-1.133-2.444-1.683-.765.52-1.488,1.1-2.272,1.591a2.169,2.169,0,0,1-2.88-.734,2.517,2.517,0,0,1-.327-1.444c.007-1.37.019-2.741.018-4.111a9.9,9.9,0,0,0-4.428,7.667c-.034,1.135-.034,2.272-.012,3.409a1.82,1.82,0,0,0,1.6,1.789c1.16.109,2.332-.058,3.49.072a1.1,1.1,0,0,1,.6,1.754c-.4.533-1.141.406-1.724.426-1.315-.061-2.725.2-3.941-.434A4.143,4.143,0,0,1,0,185.344v-3.413a12.693,12.693,0,0,1,.462-2.856A3.519,3.519,0,0,0,.7,177.751c-.08-1.135-.041-2.272-.049-3.41q0-5.842,0-11.684a11.476,11.476,0,0,1,7.236-10.68m-2.609,4.446a9.2,9.2,0,0,0-2.408,6.087c-.007,4,0,8,0,11.995a12.922,12.922,0,0,1,2.748-2.388,8.118,8.118,0,0,1-.855-2.246A15.964,15.964,0,0,1,4.6,166.65c.012-.935-.025-1.869.015-2.8A2.474,2.474,0,0,1,6.8,161.6c1.176-.131,2.467.226,3.539-.426.622-.312.922-1.079,1.627-1.244.594-.117,1.006.4,1.371.779a2.9,2.9,0,0,0,2.169.867,10.053,10.053,0,0,1,2.467.133,2.493,2.493,0,0,1,1.681,2.286c.016,1.478.007,2.957,0,4.434a7.7,7.7,0,0,1-1.012,3.685A13.356,13.356,0,0,1,21.4,174.5c-.006-4,0-7.993,0-11.99a9.252,9.252,0,0,0-16.111-6.09m4.753,7.227a17.2,17.2,0,0,1-2.946.152c-.276-.043-.262.29-.27.468-.012.894.006,1.788,0,2.682a9.313,9.313,0,0,0,.257,2.995,5.312,5.312,0,0,0,9.5,1.3,5.639,5.639,0,0,0,.881-3.4c-.046-1.321.083-2.658-.064-3.969a12.162,12.162,0,0,0-2.181-.093,5.333,5.333,0,0,1-3.073-1.145,5.641,5.641,0,0,1-2.1,1.015M8.887,175.131c0,1.077-.009,2.154-.01,3.23.7-.483,1.38-1,2.086-1.473a2.121,2.121,0,0,1,2.311-.018c.723.47,1.4,1,2.114,1.489,0-1.076-.007-2.151-.01-3.227A7.688,7.688,0,0,1,8.887,175.131Z" transform="translate(0 -128.828)" fill="#0065bb"/>
  </g>
</svg>
