<svg id="حسابداری_تعهدی_" data-name="حسابداری تعهدی " xmlns="http://www.w3.org/2000/svg" width="73.359" height="75.65" viewBox="0 0 73.359 75.65">
  <path id="Path_1865" data-name="Path 1865" d="M13.316,0H46.873a2.958,2.958,0,0,1,1.213.926q6.277,6.285,12.559,12.565a1.239,1.239,0,0,1,.383.98q0,5.707,0,11.413c2.991.006,5.981,0,8.97,0a15.684,15.684,0,0,1,4.523.344,9.139,9.139,0,0,1,6.322,6.554,21.87,21.87,0,0,1,.263,4.886,1.158,1.158,0,0,1-.777,1.231,1.1,1.1,0,0,1-1.421-.926c-.08-1.383.084-2.778-.117-4.153a6.865,6.865,0,0,0-4.694-5.4,8.756,8.756,0,0,0-2.924-.319q-11.006,0-22.009,0a13.766,13.766,0,0,0-2.516.12,6.866,6.866,0,0,0-4.829,3.586,6.983,6.983,0,0,0-.767,3.357q0,15.293,0,30.585a8.086,8.086,0,0,0,.495,3.379,6.884,6.884,0,0,0,6.281,4.3q12.05.016,24.1,0a6.861,6.861,0,0,0,6.959-6.94q0-12.043,0-24.087a1.114,1.114,0,1,1,2.215,0q0,12.117,0,24.235a9.088,9.088,0,0,1-3.137,6.8,9.24,9.24,0,0,1-5.393,2.216H47.6a9.132,9.132,0,0,1-8.478-6.767q-12.713,0-25.423,0A5.907,5.907,0,0,1,7.759,62.79q.007-25.261,0-50.522a1.106,1.106,0,1,1,2.209-.009q.016,25.341.006,50.686a3.678,3.678,0,0,0,2.114,3.373,4.9,4.9,0,0,0,2.342.35q12.2-.007,24.4,0,.007-15.824,0-31.65a9.083,9.083,0,0,1,8.989-9.127c3.661-.006,7.323,0,10.986,0q0-5.224,0-10.446c-2.428-.007-4.857,0-7.284,0A5.888,5.888,0,0,1,45.6,9.752c-.022-2.512,0-5.024-.009-7.534q-15.949,0-31.9,0A3.687,3.687,0,0,0,10.25,4.5c-.467,1.1-.18,2.312-.3,3.463a1.1,1.1,0,0,1-1.28.9,1.118,1.118,0,0,1-.909-1.178A9.871,9.871,0,0,1,8.2,3.657,5.962,5.962,0,0,1,13.316,0M47.808,3.787c0,1.987-.016,3.975.007,5.962a3.673,3.673,0,0,0,3.559,3.468c1.94,0,3.88.009,5.82,0-.109-.127-.22-.253-.334-.374Q52.331,8.317,47.808,3.787Z" transform="translate(-7.754)" fill="#0065bb"/>
  <path id="Path_1866" data-name="Path 1866" d="M75.717,37.749a1.112,1.112,0,0,1,1.835-.519c.581.609.26,1.528.344,2.28a6.772,6.772,0,0,1,3.449,1.46,1.1,1.1,0,0,1-.027,1.639,1.12,1.12,0,0,1-1.467-.01,4.734,4.734,0,0,0-4.716-.519,3.159,3.159,0,0,0-1.59,3.426,1.971,1.971,0,0,0,.83,1.237,23.169,23.169,0,0,0,5.09,2.32,5.6,5.6,0,0,1,3.353,3.394,6.35,6.35,0,0,1-2.952,7.335,6.648,6.648,0,0,1-1.971.691,8.556,8.556,0,0,1-.123,2.228,1.112,1.112,0,0,1-2-.064,9.806,9.806,0,0,1-.095-2.085,7.72,7.72,0,0,1-3.707-1.048c-.436-.278-1.011-.488-1.2-1.017a1.112,1.112,0,0,1,.842-1.46c.653-.124,1.132.433,1.68.68a6.66,6.66,0,0,0,3.525.637,4.031,4.031,0,0,0,3.156-1.532,3.8,3.8,0,0,0,.264-4.557c-.724-.977-1.962-1.268-3.036-1.687a15.324,15.324,0,0,1-4.637-2.454,5.038,5.038,0,0,1-.359-6.333A5.2,5.2,0,0,1,75.677,39.6C75.7,38.981,75.634,38.361,75.717,37.749Z" transform="translate(-61.403 -31.469)" fill="#0065bb"/>
  <path id="Path_1867" data-name="Path 1867" d="M260.93,215.2c8.168-.043,16.337-.01,24.507-.016a3.156,3.156,0,0,1,3.116,3.076c.007,1.817.012,3.636,0,5.455a2.841,2.841,0,0,1-2.828,2.7H261.777a4.719,4.719,0,0,1-1.9-.208,2.843,2.843,0,0,1-1.766-2.626c0-1.782-.007-3.564,0-5.344a3.154,3.154,0,0,1,2.818-3.042m.03,2.246a.939.939,0,0,0-.634.953c0,1.729-.009,3.459,0,5.188a.622.622,0,0,0,.708.616q12.274,0,24.546,0a.639.639,0,0,0,.754-.634c.01-1.721,0-3.444,0-5.167a.958.958,0,0,0-1.065-1.006q-11.888,0-23.778,0A2.041,2.041,0,0,0,260.96,217.446Z" transform="translate(-221.116 -183.384)" fill="#0065bb"/>
  <path id="Path_1868" data-name="Path 1868" d="M51.235,243.06a2.666,2.666,0,0,1,.824-.08c6.011.012,12.023-.009,18.033.01a1.109,1.109,0,0,1,1.089,1.319,1.134,1.134,0,0,1-1.24.891c-6.111-.006-12.224.006-18.335-.006a1.1,1.1,0,0,1-.372-2.135Z" transform="translate(-44.198 -207.079)" fill="#0065bb"/>
  <path id="Path_1869" data-name="Path 1869" d="M51.216,283a2.06,2.06,0,0,1,.7-.078c6.058.009,12.116-.007,18.174.007a1.107,1.107,0,0,1,1.083,1.325,1.14,1.14,0,0,1-1.231.887q-9.091,0-18.183,0a1.149,1.149,0,0,1-1.186-.739A1.113,1.113,0,0,1,51.216,283Z" transform="translate(-44.189 -241.117)" fill="#0065bb"/>
  <path id="Path_1870" data-name="Path 1870" d="M260.066,313.653a5.516,5.516,0,0,1,1.721-.139q11.973,0,23.945,0a2.842,2.842,0,0,1,2.824,2.741q.018,8.779,0,17.561a3.164,3.164,0,0,1-3.134,3.109q-12.112,0-24.226,0a3.16,3.16,0,0,1-3.084-3.1q-.011-8.723,0-17.447a2.853,2.853,0,0,1,1.953-2.729m.266,2.716c-.012,1.4,0,2.8,0,4.207q2.352,0,4.7,0,0-2.422,0-4.845c-1.377,0-2.754-.015-4.13.009a.6.6,0,0,0-.573.628m6.921-.637q0,2.422,0,4.845c1.653.006,3.308-.009,4.963.007.03-1.618.009-3.236.01-4.854-1.658,0-3.316,0-4.973,0m7.194,0q0,2.422,0,4.845,2.487,0,4.976,0,0-2.422,0-4.845-2.489,0-4.976,0m7.2,4.849c1.566-.01,3.131,0,4.7-.006,0-1.4.007-2.793,0-4.189a.609.609,0,0,0-.616-.65c-1.361-.015-2.722,0-4.084-.006,0,1.616-.012,3.234.006,4.851m-21.319,2.212c0,1.618,0,3.237,0,4.855q2.352,0,4.7,0c0-1.618,0-3.237,0-4.857q-2.352,0-4.7,0m6.93,0c-.016,1.619,0,3.239-.006,4.857,1.639,0,3.279.012,4.919-.006l.049-.044c.022-1.6,0-3.2.007-4.8-1.656,0-3.313,0-4.969,0m7.185.006c0,1.616,0,3.234,0,4.851q2.487,0,4.975,0c.007-1.613-.007-3.227.009-4.842-1.662-.028-3.324-.01-4.987-.009m7.2,0c.013,1.622-.031,3.245.022,4.867,1.56-.027,3.121,0,4.681-.013.009-1.613-.009-3.225.009-4.839-1.571-.037-3.141-.006-4.712-.015m-21.312,7.071c.006,1.325-.016,2.652.009,3.978a.935.935,0,0,0,1.014.867c1.228.006,2.456,0,3.683,0,0-1.615,0-3.23,0-4.845q-2.354,0-4.7,0m6.924,0q0,2.42,0,4.843c1.661,0,3.32.006,4.981,0-.006-1.614,0-3.227,0-4.84q-2.489,0-4.976,0m7.194,0c0,1.615,0,3.23,0,4.845q2.489,0,4.978,0c0-1.616.009-3.233-.006-4.849-1.658.007-3.314,0-4.97,0m7.193,0c0,1.613,0,3.227,0,4.84,1.271,0,2.541.016,3.812,0a.94.94,0,0,0,.894-1.025c0-1.271,0-2.541,0-3.812Q283.992,329.866,281.639,329.868Z" transform="translate(-221.12 -267.189)" fill="#0065bb"/>
  <path id="Path_1871" data-name="Path 1871" d="M51.211,322.921a2,2,0,0,1,.7-.078c3.35.007,6.7,0,10.049,0a1.108,1.108,0,1,1,0,2.212q-5.1.011-10.2,0a1.154,1.154,0,0,1-1.173-.72A1.109,1.109,0,0,1,51.211,322.921Z" transform="translate(-44.191 -275.141)" fill="#0065bb"/>
</svg>
