<svg xmlns="http://www.w3.org/2000/svg" width="74.019" height="75.65" viewBox="0 0 74.019 75.65">
  <g id="اتوماسیون_تدارکات_انبار_و_اموال" data-name="اتوماسیون تدارکات،انبار و اموال" transform="translate(0)">
    <path id="Path_1883" data-name="Path 1883" d="M256.583,0h1.051a10.336,10.336,0,0,1,3.9,1.058A9.978,9.978,0,0,1,266.439,6.7c4.873.007,9.747-.006,14.62.007a1.551,1.551,0,0,1,1.525,1.577q.009,8.045,0,16.095a1.11,1.11,0,0,1-1.621.981,1.347,1.347,0,0,1-.594-1.413c.021-5-.022-10,.022-15-4.489-.061-8.982-.01-13.474-.024a10.092,10.092,0,0,1-1.1,5.544q4.3,0,8.6,0a1.138,1.138,0,0,1,1.182.762,1.108,1.108,0,0,1-1.028,1.445c-3.453.021-6.909,0-10.362.01a9.96,9.96,0,0,1-7.1,3.023c-.021,6.415-.007,12.831-.006,19.246q11.636,0,23.27,0c0-3.134-.007-6.268.006-9.4a1.1,1.1,0,1,1,2.2.006q.018,5.018,0,10.035a1.578,1.578,0,0,1-1.671,1.575q-12.123.011-24.246,0a1.667,1.667,0,0,1-1.494-.66,3.3,3.3,0,0,1-.291-1.933c-.013-6.383.028-12.767-.021-19.149a9.83,9.83,0,0,1-3.873-17.284A9.985,9.985,0,0,1,256.583,0m-.717,2.323a7.631,7.631,0,1,0,5.457,1.172A7.641,7.641,0,0,0,255.866,2.323Z" transform="translate(-211.542)" fill="#0065bb"/>
    <path id="Path_1884" data-name="Path 1884" d="M288.013,45.645a1.109,1.109,0,0,1,1.751.585,1.137,1.137,0,0,1-.337,1.116q-2.143,2.15-4.289,4.3a1.16,1.16,0,0,1-1.7.185c-1.157-1.15-2.314-2.3-3.457-3.46a1.1,1.1,0,0,1,.114-1.6,1.117,1.117,0,0,1,1.523.117c.858.853,1.714,1.712,2.571,2.568C285.47,48.189,286.718,46.892,288.013,45.645Z" transform="translate(-239.177 -38.696)" fill="#0065bb"/>
    <path id="Path_1885" data-name="Path 1885" d="M346.334,135.737a1.5,1.5,0,0,1,.826-.157c3.791.009,7.584,0,11.376.007a1.1,1.1,0,0,1,1.083,1.223,1.143,1.143,0,0,1-1.246.988q-5.691,0-11.38,0a1.133,1.133,0,0,1-1.121-.7A1.108,1.108,0,0,1,346.334,135.737Z" transform="translate(-295.515 -115.548)" fill="#0065bb"/>
    <path id="Path_1886" data-name="Path 1886" d="M346.6,173.353a4.806,4.806,0,0,1,.826-.035c3.7.007,7.4,0,11.1.006a1.1,1.1,0,0,1,1.068,1.269,1.141,1.141,0,0,1-1.229.943q-5.685,0-11.37,0a1.143,1.143,0,0,1-1.172-.789A1.111,1.111,0,0,1,346.6,173.353Z" transform="translate(-295.502 -147.708)" fill="#0065bb"/>
    <path id="Path_1887" data-name="Path 1887" d="M18.5,201.707a1.56,1.56,0,0,1,1.568-1.588q10.946-.018,21.893,0a1.578,1.578,0,0,1,1.674,1.6c0,2.562.01,5.124,0,7.685a1.1,1.1,0,1,1-2.2,0c-.015-2.355,0-4.712,0-7.066-2.008-.007-4.014,0-6.021,0-.01,1.42.009,2.841-.007,4.261a1.558,1.558,0,0,1-1.581,1.546q-2.735.011-5.47,0a1.557,1.557,0,0,1-1.6-1.526c-.019-1.427,0-2.853-.009-4.28q-3.01,0-6.019,0,0,7.81,0,15.619,10.355.007,20.708,0c.01-1.129-.012-2.256.007-3.384a1.1,1.1,0,0,1,2.2-.009c.019,1.13,0,2.261.007,3.391,8.837.006,17.674-.007,26.512.007a1.565,1.565,0,0,1,1.571,1.631q.007,9.424,0,18.848c2.088.01,4.174,0,6.262.007a1.546,1.546,0,0,1,1.546,1.548c.018,1.374,0,2.75.009,4.125a2.368,2.368,0,0,1-.242,1.339,1.619,1.619,0,0,1-1.192.736H6.872a1.7,1.7,0,0,1-1.116-.74,2.382,2.382,0,0,1-.236-1.324c.013-1.379-.007-2.757.009-4.134a1.544,1.544,0,0,1,1.54-1.55c2.089-.012,4.178,0,6.266-.007q0-9.426,0-18.855a1.563,1.563,0,0,1,1.556-1.624c1.2-.019,2.4,0,3.6-.007.007-5.415,0-10.829.006-16.244m10.451.624c0,1.2,0,2.4,0,3.592,1.413,0,2.827.015,4.241-.007-.013-1.2,0-2.389-.006-3.585q-2.117,0-4.233,0M15.545,220.186c.016,6.085,0,12.169.007,18.254q15.514,0,31.03,0,0-9.136,0-18.268-5.406,0-10.811,0c-.007,1.432.012,2.866-.009,4.3a1.548,1.548,0,0,1-1.5,1.5c-2.116.015-4.233.01-6.349,0a1.553,1.553,0,0,1-1.54-1.509c-.01-1.423-.016-2.847,0-4.27-3.608-.05-7.222-.034-10.83-.009m13.038-.018q0,1.8,0,3.593,2.484,0,4.969,0,0-1.8,0-3.592-2.484,0-4.969,0M48.8,238.44q5.734,0,11.464,0a6.7,6.7,0,0,1,1.018.033,1.113,1.113,0,0,1,.728,1.514,1.159,1.159,0,0,1-1.152.669q-26.558,0-53.116,0,0,1.66,0,3.319H77.318q0-1.66,0-3.319c-3.672,0-7.342,0-11.012,0a1.142,1.142,0,0,1-1.234-.972,1.1,1.1,0,0,1,1.1-1.24c1.11-.007,2.219,0,3.33,0-.015-6.095.034-12.191-.025-18.285-2,.03-4,0-5.994.013-.01,1.439.012,2.878-.01,4.316a1.558,1.558,0,0,1-1.594,1.492q-2.733.007-5.462,0a1.557,1.557,0,0,1-1.591-1.491c-.022-1.439,0-2.878-.01-4.317-2-.007-4,.012-6-.01-.049,6.093-.007,12.188-.021,18.282m8.237-18.27v3.592q2.117,0,4.233,0,0-1.8,0-3.592Q59.152,220.166,57.036,220.17Z" transform="translate(-5.52 -170.542)" fill="#0065bb"/>
    <path id="Path_1888" data-name="Path 1888" d="M346.464,211.075a2.358,2.358,0,0,1,.839-.095c2.413.01,4.826-.006,7.238.007a1.106,1.106,0,1,1,0,2.21c-2.515,0-5.03,0-7.544,0a1.108,1.108,0,0,1-.532-2.125Z" transform="translate(-295.51 -179.807)" fill="#0065bb"/>
  </g>
</svg>
