<svg id="کلود" xmlns="http://www.w3.org/2000/svg" width="77.786" height="77.786" viewBox="0 0 77.786 77.786">
  <path id="Path_525" data-name="Path 525" d="M73.479,0h.687a3.508,3.508,0,0,1,2.751,1.964,3.568,3.568,0,0,1-.131,3.2c.974,1.185,1.977,2.346,2.952,3.529a1.415,1.415,0,0,1,.322,1.024q-.007,11.23,0,22.461c.558.263,1.106.548,1.644.851a21.624,21.624,0,0,1,5.282-9.409c.009-4.374,0-8.746.008-13.12a3.8,3.8,0,0,1-1.905-1.7,3.413,3.413,0,1,1,5.784.476,3.9,3.9,0,0,1-1.6,1.217c-.008,3.689,0,7.378,0,11.068a21.943,21.943,0,0,1,8.2-3.95q0-5.474,0-10.948a3.521,3.521,0,0,1-2.271-3.312A3.476,3.476,0,0,1,98.251,0h.6a3.486,3.486,0,0,1,2.612,1.545,3.419,3.419,0,0,1-.067,3.83,3.884,3.884,0,0,1-1.647,1.281q-.007,5.264,0,10.527a22.33,22.33,0,0,1,8.2.509c0-2.4.006-4.8,0-7.206a3.713,3.713,0,0,1-1.891-1.68,3.413,3.413,0,1,1,5.834.386,3.807,3.807,0,0,1-1.653,1.288c-.015,2.647-.006,5.293,0,7.94a21.845,21.845,0,0,1,6.856,4.227q0-6.463,0-12.929a1.449,1.449,0,0,1,.349-1.06c.972-1.165,1.955-2.321,2.925-3.49a3.663,3.663,0,0,1-.307-2.747A3.493,3.493,0,0,1,123,0h.6a3.467,3.467,0,0,1,3.1,2.876,3.427,3.427,0,0,1-1.96,3.646,3.689,3.689,0,0,1-2.622.114c-.921,1.082-1.828,2.176-2.742,3.26q-.007,7.593,0,15.187a22.1,22.1,0,0,1,2.186,3.338,1.142,1.142,0,0,1-.153,1.34,1.128,1.128,0,0,1-1.717-.084c-.457-.668-.8-1.41-1.284-2.063a19.253,19.253,0,0,0-34.654,6.724,3.033,3.033,0,0,1-.471,1.37,1.167,1.167,0,0,1-1.592.055,12.077,12.077,0,0,0-6.92-2.472c-.52-.011-1.153-.035-1.448-.541a1.132,1.132,0,0,1,.817-1.741,14.1,14.1,0,0,1,3.654.4q0-10.752,0-21.505Q76.413,8.266,75.04,6.636A3.522,3.522,0,0,1,71.1,5.474a3.42,3.42,0,0,1-.123-3.944A3.557,3.557,0,0,1,73.479,0m-.046,2.35a1.135,1.135,0,1,0,1.5,1.3,1.141,1.141,0,0,0-1.5-1.3m24.775,0A1.135,1.135,0,1,0,99.72,3.648a1.141,1.141,0,0,0-1.512-1.294m24.75-.015a1.136,1.136,0,1,0,1.469,1.319,1.142,1.142,0,0,0-1.469-1.319m-35.2,3.835a1.135,1.135,0,1,0,1.493,1.27,1.142,1.142,0,0,0-1.493-1.27m20.957,0A1.135,1.135,0,1,0,110.2,7.446,1.14,1.14,0,0,0,108.711,6.174Z" transform="translate(-59.715)" fill="#0065bb"/>
  <path id="Path_526" data-name="Path 526" d="M7.858,212.3a2.145,2.145,0,0,1,1.407-.4,1.144,1.144,0,0,1,.817,1.454c-.117.441-.547.659-.922.848a12.25,12.25,0,0,0,4.98,23.248,1.433,1.433,0,0,1,1.379.567,1.137,1.137,0,0,1-.936,1.717,14.509,14.509,0,0,1-11.206-5.228A14.711,14.711,0,0,1,0,225.941v-1.068A14.624,14.624,0,0,1,7.858,212.3Z" transform="translate(0 -179.689)" fill="#0065bb"/>
  <path id="Path_527" data-name="Path 527" d="M405.33,217.078a1.128,1.128,0,0,1,2.233-.149,21.706,21.706,0,0,1,.548,4.666,11.017,11.017,0,0,1,13.424,10.146V232.8a11.092,11.092,0,0,1-2.4,6.32,10.961,10.961,0,0,1-7.94,4.116c-1.262.05-2.525,0-3.789.027-.507,0-1.123.033-1.463-.422a1.134,1.134,0,0,1,.716-1.837c1.72-.108,3.455.1,5.169-.125a8.682,8.682,0,1,0-3.3-17.031c-.538.125-1.047.362-1.594.441a1.141,1.141,0,0,1-1.144-1.282,19.965,19.965,0,0,0-.284-4.739A7.073,7.073,0,0,1,405.33,217.078Z" transform="translate(-343.75 -183.198)" fill="#0065bb"/>
  <path id="Path_528" data-name="Path 528" d="M88.97,317.606a3.413,3.413,0,1,1,6.155,2.95,3.683,3.683,0,0,1-1.92,1.74q0,7.864,0,15.73a1.475,1.475,0,0,1-.351,1.068q-2.425,2.9-4.856,5.79a1.824,1.824,0,0,1-.83.588h-.412a1.248,1.248,0,0,1-.9-.907,1.376,1.376,0,0,1,.451-1.225c1.547-1.822,3.073-3.66,4.616-5.486q0-7.782,0-15.563a3.861,3.861,0,0,1-1.612-1.229,3.414,3.414,0,0,1-.339-3.456m2.557.448a1.136,1.136,0,1,0,1.673.981A1.142,1.142,0,0,0,91.527,318.054Z" transform="translate(-72.787 -267.686)" fill="#0065bb"/>
  <path id="Path_529" data-name="Path 529" d="M233.9,317.516A3.412,3.412,0,0,1,240,320.564a3.659,3.659,0,0,1-1.911,1.727c-.017,7.324,0,14.65-.011,21.975a1.225,1.225,0,0,1-.905,1.206h-.425a1.255,1.255,0,0,1-.872-.758,7.931,7.931,0,0,1-.073-1.677q0-10.373,0-20.747a3.86,3.86,0,0,1-1.624-1.247,3.411,3.411,0,0,1-.28-3.526m2.613.491a1.135,1.135,0,1,0,1.565,1.179A1.14,1.14,0,0,0,236.51,318.007Z" transform="translate(-198.053 -267.686)" fill="#0065bb"/>
  <path id="Path_530" data-name="Path 530" d="M363.437,316.885a3.411,3.411,0,0,1,6.021,2.59,3.548,3.548,0,0,1-2.241,2.821q-.011,7.778,0,15.556c1.6,1.916,3.225,3.818,4.813,5.746a1.176,1.176,0,0,1-.608,1.873h-.433c-.608-.163-.948-.723-1.335-1.17q-2.113-2.525-4.234-5.041a1.544,1.544,0,0,1-.48-1.088c-.011-5.295,0-10.589-.006-15.884a3.8,3.8,0,0,1-1.7-1.346,3.411,3.411,0,0,1,.2-4.058m2.2,1.121a1.135,1.135,0,1,0,1.566,1.177A1.141,1.141,0,0,0,365.637,318.007Z" transform="translate(-307.565 -267.686)" fill="#0065bb"/>
  <path id="Path_531" data-name="Path 531" d="M150.546,380.625a1.506,1.506,0,0,1,1.133-.325c3.3.012,6.6,0,9.895.006a1.173,1.173,0,0,1,1.24.863,1.133,1.133,0,0,1-1.1,1.405c-1.594.03-3.187,0-4.783.012,0,3.689,0,7.378,0,11.066a3.9,3.9,0,0,1,1.579,1.185,3.421,3.421,0,0,1,.129,3.935,3.562,3.562,0,0,1-2.5,1.536h-.679a3.577,3.577,0,0,1-2.4-1.363,3.416,3.416,0,0,1-.3-3.636,3.713,3.713,0,0,1,1.881-1.656c.008-3.69,0-7.381,0-11.069-.988,0-1.975,0-2.963,0a1.563,1.563,0,0,1-1.12-.3,1.145,1.145,0,0,1-.029-1.665m4.968,15.168a1.136,1.136,0,1,0,1.358,1.466A1.142,1.142,0,0,0,155.514,395.793Z" transform="translate(-127.382 -322.523)" fill="#0065bb"/>
  <path id="Path_532" data-name="Path 532" d="M278.536,381.164a1.17,1.17,0,0,1,1.24-.861c3.4,0,6.8,0,10.2,0a1.236,1.236,0,0,1,1.259.664,1.132,1.132,0,0,1-.96,1.6c-1.191.046-2.384,0-3.575.017,0,3.69,0,7.379,0,11.069a3.94,3.94,0,0,1,1.521,1.111,3.421,3.421,0,0,1,.193,4,3.571,3.571,0,0,1-2.5,1.545h-.682a3.6,3.6,0,0,1-2.271-1.2,3.414,3.414,0,0,1-.421-3.8,3.723,3.723,0,0,1,1.878-1.654c.008-3.689,0-7.376,0-11.065-1.6-.017-3.192.017-4.787-.012a1.131,1.131,0,0,1-1.1-1.407m6.629,14.659a1.136,1.136,0,1,0,1.507,1.279A1.142,1.142,0,0,0,285.165,395.823Z" transform="translate(-236.186 -322.519)" fill="#0065bb"/>
</svg>
