<svg id="همایش_ها_و_کنفرانس_ها" data-name="همایش ها و کنفرانس ها" xmlns="http://www.w3.org/2000/svg" width="77.786" height="77.786" viewBox="0 0 77.786 77.786">
  <path id="Path_559" data-name="Path 559" d="M18.608,0h.421a6.827,6.827,0,0,1,6.347,8.488A6.886,6.886,0,0,1,20.6,13.4a3.07,3.07,0,0,1-1.01,2.249,14.566,14.566,0,0,1-2.227,2.027,3.17,3.17,0,0,1-1.89.228q0,6.855,0,13.71,11.137,0,22.274,0,0-2.224,0-4.45a3.171,3.171,0,0,1-1.711-.9,2.827,2.827,0,0,1-.716-1.794c-.181-2.369-.372-4.737-.55-7.107a2.92,2.92,0,0,1-2.262-1.249,4.648,4.648,0,0,1-.441-2.736,6.565,6.565,0,0,1,.167-2.1,3.779,3.779,0,0,1,.706-1.086,6.7,6.7,0,0,1-.795-4.195,1.138,1.138,0,0,1,1.855-.5c.4.328.346.886.362,1.351a3.919,3.919,0,0,0,.909,2.65c2.428.061,4.86,0,7.289.026a4.642,4.642,0,0,0,.469-4.543,4.556,4.556,0,0,0-4.9-2.622c-.763.076-1.384.6-2.125.732a1.141,1.141,0,0,1-.823-1.939A6.475,6.475,0,0,1,38.437,0h.846a6.851,6.851,0,0,1,5.554,10.181,2.935,2.935,0,0,1,.868,1.967c0,.984.056,1.977-.041,2.958a2.784,2.784,0,0,1-2.654,2.252c-.178,2.367-.371,4.732-.55,7.1a2.834,2.834,0,0,1-.782,1.875,3.163,3.163,0,0,1-1.644.828q0,2.226,0,4.451,6.65,0,13.3,0a1.565,1.565,0,0,1,1.074.281,1.145,1.145,0,0,1,.012,1.718c-.466.409-1.141.257-1.708.287q-25.214-.009-50.43,0c0,1.7-.018,3.4.011,5.093q36.6-.018,73.209-.009c.006-1.7.009-3.389,0-5.083q-8.129-.016-16.258,0a1.386,1.386,0,0,1-1.05-.325,1.146,1.146,0,0,1,.011-1.639,1.6,1.6,0,0,1,1.2-.324q1.454.007,2.909,0,0-6.855,0-13.71a2.867,2.867,0,0,1-2.432-.6c-.678-.635-1.329-1.3-1.972-1.966a2.985,2.985,0,0,1-.723-1.94A6.938,6.938,0,0,1,52.907,9.84,6.823,6.823,0,0,1,58.735,0h.542a6.889,6.889,0,0,1,4.374,1.826,7.052,7.052,0,0,1,1.94,3.157,3,3,0,0,1,2.018.795c.678.684,1.4,1.329,2.019,2.066a2.766,2.766,0,0,1-.252,3.509q2.053,2.4,4.105,4.8A4.175,4.175,0,0,1,74.74,18.22a2.739,2.739,0,0,1-.864,2.482,7.729,7.729,0,0,1-1.97,1.679,2.715,2.715,0,0,1-2.812-.465c-1.506-1.278-3-2.568-4.5-3.847q0,6.771,0,13.54c3.595,0,7.189,0,10.784,0a2.437,2.437,0,0,1,2.414,2.1v5.427a2.473,2.473,0,0,1-1.252,1.834,3.752,3.752,0,0,1-1.864.3q-.718,17.039-1.431,34.079a8.531,8.531,0,0,1-.144,1.715,1.289,1.289,0,0,1-.846.719h-.4a1.22,1.22,0,0,1-.939-1.358q.736-17.582,1.477-35.165H5.4Q6.109,58.229,6.825,75.2a8.517,8.517,0,0,1,0,1.8,1.3,1.3,0,0,1-.845.787H5.57a1.206,1.206,0,0,1-.966-1.2Q3.851,58.934,3.116,41.274a3.739,3.739,0,0,1-1.858-.3A2.5,2.5,0,0,1,0,39.17V33.747a2.426,2.426,0,0,1,2.417-2.133c3.595-.009,7.188,0,10.781,0q0-6.768,0-13.537c-1.507,1.275-2.994,2.572-4.5,3.844a2.723,2.723,0,0,1-2.925.416,9.364,9.364,0,0,1-1.926-1.7,2.711,2.711,0,0,1-.24-3.649C5.2,15.1,6.808,13.23,8.412,11.355a2.885,2.885,0,0,1-.72-2.486c.254-1.226,1.411-1.908,2.179-2.8a3.109,3.109,0,0,1,2.321-1.088,7.08,7.08,0,0,1,1.791-3.013A6.842,6.842,0,0,1,18.608,0M17.162,2.575a4.593,4.593,0,0,0-2.884,3.569q2.6,2.575,5.176,5.173a4.67,4.67,0,0,0,2.835-1.636,4.537,4.537,0,0,0-5.128-7.106m39.077.652a4.561,4.561,0,0,0-1.468,5.2,4.607,4.607,0,0,0,3.561,2.893q2.584-2.593,5.178-5.176a4.646,4.646,0,0,0-1.724-2.914,4.557,4.557,0,0,0-5.547,0M11.9,7.323c-.661.559-1.253,1.2-1.855,1.823a.406.406,0,0,0,.065.63c1.843,1.861,3.71,3.7,5.551,5.564.169.143.336.381.589.333a4.65,4.65,0,0,0,.89-.8,12.593,12.593,0,0,0,1.146-1.2c.068-.272-.167-.454-.327-.63q-2.705-2.691-5.4-5.4c-.19-.158-.38-.444-.664-.316m53.647.036c-1.919,1.825-3.748,3.748-5.643,5.6-.178.2-.472.393-.4.7a17.719,17.719,0,0,0,1.288,1.351,3.249,3.249,0,0,0,.752.655c.21.056.363-.135.506-.252q2.771-2.778,5.55-5.55c.149-.163.395-.4.214-.632-.482-.583-1.063-1.076-1.582-1.627-.17-.164-.439-.45-.682-.249m-31.02,4.508c-.239.166-.146.5-.175.738.02.713-.033,1.427.029,2.136.03.273.343.3.559.3,2.589,0,5.178,0,7.766,0,.249-.008.652.029.7-.3.052-.858.035-1.721.009-2.58.012-.305-.334-.39-.576-.369-2.53-.008-5.059.006-7.589-.006a1.847,1.847,0,0,0-.726.082M5.5,18.26c-.166.17-.336.46-.12.664a17.219,17.219,0,0,0,1.3,1.3c.2.2.471.024.638-.125q2.659-2.279,5.323-4.555-1.3-1.3-2.6-2.6Q7.774,15.6,5.5,18.26m59.643-2.7c1.784,1.5,3.546,3.026,5.319,4.538.169.152.444.328.646.12A17.18,17.18,0,0,0,72.4,18.932c.22-.208.05-.5-.119-.675q-2.277-2.655-4.544-5.313c-.863.874-1.749,1.724-2.593,2.615M37.056,17.32q.273,3.5.545,7c0,.235.1.542.4.53a13.559,13.559,0,0,0,1.908-.017c.287-.088.261-.431.293-.667.172-2.283.356-4.564.532-6.847Z" fill="#0065bb"/>
  <path id="Path_560" data-name="Path 560" d="M94.833,315.509a1.245,1.245,0,0,1,.978-.343q16.413,0,32.825-.006c.535.02,1.183-.093,1.589.345s.3,1.073.392,1.609a6.513,6.513,0,0,0,5.767,5.668c.51.076,1.133-.018,1.518.4a1.625,1.625,0,0,1,.33,1.22c-.018,6.484.006,12.968-.012,19.453a1.189,1.189,0,0,1-.963,1.208h-.331a1.181,1.181,0,0,1-.974-1.2c-.014-6.27,0-12.541-.006-18.811a9.059,9.059,0,0,1-4.471-1.966,8.937,8.937,0,0,1-3.136-5.638q-15.809,0-31.616,0a9.147,9.147,0,0,1-1.472,3.813,8.925,8.925,0,0,1-6.135,3.789c-.015,1.209.021,2.42-.011,3.628a1.13,1.13,0,1,1-2.261-.006c-.032-1.373.009-2.747-.015-4.12a1.85,1.85,0,0,1,.324-1.363c.384-.424,1.009-.33,1.521-.406a6.506,6.506,0,0,0,5.769-5.667C94.536,316.579,94.416,315.932,94.833,315.509Z" transform="translate(-73.638 -267.279)" fill="#0065bb"/>
  <path id="Path_561" data-name="Path 561" d="M86.869,432.768a1.132,1.132,0,0,1,1.621-1,1.256,1.256,0,0,1,.649,1.293c-.011,3.2.008,6.4-.009,9.593a1.2,1.2,0,0,1-.94,1.2H87.8a1.194,1.194,0,0,1-.939-1.2C86.857,439.364,86.845,436.064,86.869,432.768Z" transform="translate(-73.659 -366.074)" fill="#0065bb"/>
</svg>
