<svg xmlns="http://www.w3.org/2000/svg" width="66.445" height="77.999" viewBox="0 0 66.445 77.999">
  <g id="محاسبات_سریع" data-name="محاسبات سریع" transform="translate(-37.92)">
    <path id="Path_533" data-name="Path 533" d="M43.467,0h5.839a1.173,1.173,0,0,1,.934,1.392,1.144,1.144,0,0,1-1.179.888c-1.83.021-3.661-.017-5.49.014A3.431,3.431,0,0,0,40.3,5.632q-.011,4.573,0,9.144a3.442,3.442,0,0,0,3.428,3.35q26.889.011,53.78,0a5.747,5.747,0,0,0,2.409-.282,3.43,3.43,0,0,0,2.072-3.08c.015-2.789,0-5.58.009-8.37a4.707,4.707,0,0,0-.3-2.07,3.442,3.442,0,0,0-3.131-2.04q-21.94-.016-43.879-.008a1.149,1.149,0,0,1-1.213-1.225A1.2,1.2,0,0,1,54.424,0H99.057a5.914,5.914,0,0,1,3.88,2.046,5.75,5.75,0,0,1,1.339,3.745c0,2.99.009,5.982,0,8.973a5.872,5.872,0,0,1-2.27,4.52,5.748,5.748,0,0,1,2.27,4.491c.017,2.84,0,5.678.009,8.517A5.992,5.992,0,0,1,102,37.4a5.784,5.784,0,0,1,2.239,4.043c.05.806.05,1.616.02,2.424a1.132,1.132,0,0,1-2.25.093c-.107-1.089.155-2.233-.271-3.275a3.439,3.439,0,0,0-3.175-2.143q-11.96-.009-23.919,0a1.322,1.322,0,0,1-1.028-.332,1.145,1.145,0,0,1,.075-1.694,1.379,1.379,0,0,1,.951-.262q11.963,0,23.924,0a3.438,3.438,0,0,0,3.417-3.352c.014-3,0-5.99.006-8.984a3.456,3.456,0,0,0-2.035-3.208,5.658,5.658,0,0,0-2.457-.3q-26.889.007-53.777,0a3.439,3.439,0,0,0-3.425,3.35c-.014,2.792,0,5.586-.008,8.379a4.621,4.621,0,0,0,.3,2.07,3.445,3.445,0,0,0,3.126,2.038q12.342.007,24.684,0c.5.014,1.109-.075,1.493.335a1.148,1.148,0,0,1-.087,1.7,1.632,1.632,0,0,1-1.1.261q-12.491-.011-24.981,0a3.435,3.435,0,0,0-3.088,1.938,3.741,3.741,0,0,0-.344,1.718c.011,2.942,0,5.885.008,8.827a3.44,3.44,0,0,0,3.42,3.355q27.422.009,54.845,0a3.436,3.436,0,0,0,3.352-2.728c.219-.992-.093-2.038.189-3.013a1.143,1.143,0,0,1,2.142.27,9.041,9.041,0,0,1-.539,4.525,5.736,5.736,0,0,1-5.146,3.233q-12.413.011-24.827,0c0,2.573-.006,5.145,0,7.718a7.557,7.557,0,0,1,3.026,3.1c4.223.006,8.447,0,12.67.006a1.14,1.14,0,1,1,0,2.276c-3.982.011-7.964,0-11.947,0a9.108,9.108,0,0,1-.05,2.285h24.037c.216,0,.565-.015.574-.308a9.455,9.455,0,0,0,0-1.674c-.017-.289-.36-.308-.576-.3-2.191-.006-4.381.009-6.572,0a1.14,1.14,0,1,1,0-2.276c2.293-.006,4.587-.012,6.88,0a2.661,2.661,0,0,1,2.575,2.579,5.987,5.987,0,0,1-.318,2.873,2.686,2.686,0,0,1-2.412,1.394q-12.509,0-25.016,0A7.406,7.406,0,0,1,70.765,78h-.914a7.416,7.416,0,0,1-5.844-3.658q-11.668,0-23.334,0a2.676,2.676,0,0,1-2.733-2.568,6.061,6.061,0,0,1,.318-2.9,2.68,2.68,0,0,1,2.409-1.388q11.59-.007,23.18,0a7.538,7.538,0,0,1,3.026-3.1c.011-2.572,0-5.145,0-7.718q-11.579,0-23.158,0a5.754,5.754,0,0,1-5.142-3.231,6.3,6.3,0,0,1-.573-3.016c.009-2.841-.006-5.682.009-8.522a5.779,5.779,0,0,1,2.27-4.494,5.83,5.83,0,0,1-2.27-4.509q-.016-4.559,0-9.116a5.859,5.859,0,0,1,2.27-4.517,5.764,5.764,0,0,1-2.268-4.485c-.014-3,0-5.993-.006-8.988A5.739,5.739,0,0,1,43.467,0m25.7,56.671v6.941a8.26,8.26,0,0,1,2.285,0q0-3.471,0-6.941H69.163m.219,9.229a4.948,4.948,0,1,0,5.693,3.551A4.96,4.96,0,0,0,69.382,65.9M40.236,70.065a14.194,14.194,0,0,0,0,1.708c.053.265.358.3.58.286q11.183,0,22.365,0a8.262,8.262,0,0,1-.049-2.285q-11.154,0-22.307,0C40.6,69.756,40.282,69.788,40.236,70.065Z" fill="#0065bb"/>
    <path id="Path_534" data-name="Path 534" d="M293.459,34.069a4.947,4.947,0,1,1-3.918,4.186,4.97,4.97,0,0,1,3.918-4.186m.286,2.278a2.664,2.664,0,1,0,3.2,1.654A2.685,2.685,0,0,0,293.746,36.347Z" transform="translate(-213.246 -28.789)" fill="#0065bb"/>
    <path id="Path_535" data-name="Path 535" d="M378.5,34.059a4.951,4.951,0,1,1-2.536,1.389,4.973,4.973,0,0,1,2.536-1.389m.309,2.271a2.663,2.663,0,0,0-.824,4.764,2.662,2.662,0,1,0,.824-4.764Z" transform="translate(-285.352 -28.776)" fill="#0065bb"/>
    <path id="Path_536" data-name="Path 536" d="M74.229,42.061a2.712,2.712,0,0,1,.859-.081c1.988.012,3.978-.009,5.967.009a1.136,1.136,0,0,1,0,2.271c-2.09.018-4.179,0-6.269.008a1.183,1.183,0,0,1-1.229-.766A1.145,1.145,0,0,1,74.229,42.061Z" transform="translate(-30.156 -35.585)" fill="#0065bb"/>
    <path id="Path_537" data-name="Path 537" d="M151.254,42.055a3.606,3.606,0,0,1,1-.075c2.037.012,4.074-.009,6.11.009a1.138,1.138,0,0,1,1.1,1.367,1.175,1.175,0,0,1-1.271.913c-2.185,0-4.371.009-6.555-.006a1.139,1.139,0,0,1-.387-2.207Z" transform="translate(-95.435 -35.585)" fill="#0065bb"/>
    <path id="Path_538" data-name="Path 538" d="M74.234,77.059a2.8,2.8,0,0,1,.867-.079c1.987.012,3.973-.009,5.958.011a1.135,1.135,0,0,1,0,2.27c-2.089.018-4.179,0-6.267.008a1.179,1.179,0,0,1-1.225-.772A1.145,1.145,0,0,1,74.234,77.059Z" transform="translate(-30.157 -65.253)" fill="#0065bb"/>
    <path id="Path_539" data-name="Path 539" d="M151.245,77.058a2.815,2.815,0,0,1,.855-.078c2.089.012,4.179-.009,6.267.009a1.141,1.141,0,0,1,1.059,1.511,1.179,1.179,0,0,1-1.219.768c-2.194,0-4.387.011-6.581-.008a1.138,1.138,0,0,1-.381-2.2Z" transform="translate(-95.433 -65.253)" fill="#0065bb"/>
    <path id="Path_540" data-name="Path 540" d="M293.5,153.056a4.951,4.951,0,1,1-2.386,1.236,4.971,4.971,0,0,1,2.386-1.236m.3,2.274a2.665,2.665,0,1,0,3.3,2.044A2.68,2.68,0,0,0,293.8,155.33Z" transform="translate(-213.298 -129.645)" fill="#0065bb"/>
    <path id="Path_541" data-name="Path 541" d="M378.5,153.059a4.951,4.951,0,1,1-2.381,1.236,4.973,4.973,0,0,1,2.381-1.236m.306,2.273a2.665,2.665,0,1,0,3.219,1.734A2.683,2.683,0,0,0,378.809,155.332Z" transform="translate(-285.354 -129.647)" fill="#0065bb"/>
    <path id="Path_542" data-name="Path 542" d="M74.248,161.008a2.269,2.269,0,0,1,.71-.076q2.891.007,5.781,0a1.276,1.276,0,0,1,1.335.647,1.145,1.145,0,0,1-1.025,1.635q-3.208.016-6.417,0a1.138,1.138,0,0,1-.384-2.2Z" transform="translate(-30.165 -136.408)" fill="#0065bb"/>
    <path id="Path_543" data-name="Path 543" d="M151.368,161.056a2.812,2.812,0,0,1,.846-.076c2.087.012,4.174-.009,6.261.009a1.138,1.138,0,0,1,1.109,1.368,1.173,1.173,0,0,1-1.264.911c-2.241-.014-4.483.027-6.723-.021A1.144,1.144,0,0,1,151.368,161.056Z" transform="translate(-95.552 -136.456)" fill="#0065bb"/>
    <path id="Path_544" data-name="Path 544" d="M74.251,196.056a2.862,2.862,0,0,1,.853-.076c1.987.012,3.973-.009,5.96.009a1.142,1.142,0,0,1,1.007,1.636,1.187,1.187,0,0,1-1.162.643c-2.093,0-4.186.011-6.28-.008a1.138,1.138,0,0,1-.378-2.2Z" transform="translate(-30.165 -166.124)" fill="#0065bb"/>
    <path id="Path_545" data-name="Path 545" d="M151.236,196.058a2.82,2.82,0,0,1,.862-.078c2.084.012,4.168-.009,6.252.009a1.142,1.142,0,0,1,1.072,1.5,1.178,1.178,0,0,1-1.225.778c-2.188,0-4.377.009-6.564-.006a1.139,1.139,0,0,1-.4-2.2Z" transform="translate(-95.426 -166.124)" fill="#0065bb"/>
    <path id="Path_546" data-name="Path 546" d="M293.494,272.047a4.955,4.955,0,1,1-2.063.952,4.976,4.976,0,0,1,2.063-.952m.286,2.277a2.667,2.667,0,1,0,2.619.734A2.681,2.681,0,0,0,293.78,274.325Z" transform="translate(-213.276 -230.511)" fill="#0065bb"/>
    <path id="Path_547" data-name="Path 547" d="M378.5,272.057a4.951,4.951,0,1,1-2.37,1.228,4.973,4.973,0,0,1,2.37-1.228m.309,2.271a2.665,2.665,0,1,0,3.22,1.737A2.683,2.683,0,0,0,378.808,274.328Z" transform="translate(-285.353 -230.516)" fill="#0065bb"/>
    <path id="Path_548" data-name="Path 548" d="M74.363,280.058a2.752,2.752,0,0,1,.852-.078c1.985.012,3.972-.009,5.958.009a1.139,1.139,0,0,1,1.106,1.363,1.176,1.176,0,0,1-1.263.916c-2.142-.014-4.285.029-6.427-.021A1.144,1.144,0,0,1,74.363,280.058Z" transform="translate(-30.28 -237.327)" fill="#0065bb"/>
    <path id="Path_549" data-name="Path 549" d="M151.251,280.055a2.932,2.932,0,0,1,.864-.075c2.079.012,4.159-.009,6.238.009a1.142,1.142,0,0,1,1.076,1.507,1.183,1.183,0,0,1-1.226.772c-2.191,0-4.383.011-6.574-.008a1.138,1.138,0,0,1-.378-2.206Z" transform="translate(-95.433 -237.327)" fill="#0065bb"/>
    <path id="Path_550" data-name="Path 550" d="M74.24,315.059a2.769,2.769,0,0,1,.861-.079c1.985.012,3.97-.009,5.955.009a1.139,1.139,0,0,1,1.109,1.351,1.176,1.176,0,0,1-1.278.928c-2.087-.006-4.174.011-6.261-.008a1.138,1.138,0,0,1-.385-2.2Z" transform="translate(-30.165 -266.995)" fill="#0065bb"/>
    <path id="Path_551" data-name="Path 551" d="M151.36,315.058a2.858,2.858,0,0,1,.867-.078c2.083.012,4.165-.009,6.248.009a1.139,1.139,0,0,1,1.109,1.359,1.175,1.175,0,0,1-1.263.92c-2.241-.014-4.485.027-6.724-.02A1.145,1.145,0,0,1,151.36,315.058Z" transform="translate(-95.55 -266.995)" fill="#0065bb"/>
  </g>
</svg>
