<svg id="ftp" xmlns="http://www.w3.org/2000/svg" width="77.782" height="77.786" viewBox="0 0 77.782 77.786">
  <g id="_000000ff" data-name="#000000ff" transform="translate(0.07)">
    <path id="Path_552" data-name="Path 552" d="M42.113,0h6.476A33.077,33.077,0,0,1,76.755,22.826a36.083,36.083,0,0,1,1.417,6.78v6.165a33,33,0,0,1-5.692,15.8,33.506,33.506,0,0,1-9.267,9.018q0,5.025,0,10.049a8.444,8.444,0,0,1-.327,2.616,6.518,6.518,0,0,1-4.1,4.164,10.99,10.99,0,0,1-3.707.365H9.2A25.165,25.165,0,0,1,6,77.687a6.5,6.5,0,0,1-4.953-3.763C.275,72.281.5,70.423.46,68.666c.008-.545-.043-1.228.468-1.578a1.126,1.126,0,0,1,1.767.629c.188,1.518-.117,3.072.193,4.58a4.216,4.216,0,0,0,2.975,3.038A9.552,9.552,0,0,0,8.29,75.5q24.162-.009,48.324,0a4.258,4.258,0,0,0,4.152-3.1,9.141,9.141,0,0,0,.17-2.373c-.006-4.606,0-9.211-.006-13.817a1.506,1.506,0,0,1,.439-1.307,1.127,1.127,0,0,1,1.776.548,15.786,15.786,0,0,1,.068,2.368,30.839,30.839,0,0,0,11.838-17.3c-3.184,3.417-7.477,5.547-11.836,7.055-.03,1.082.061,2.168-.043,3.246a1.128,1.128,0,0,1-1.744.7,1.349,1.349,0,0,1-.5-1.235q0-8.6,0-17.212-16.3,0-32.6,0a2.253,2.253,0,0,1-2-.984c-.966-1.413-1.9-2.85-2.856-4.269q-10.362,0-20.723,0,0,17.228,0,34.457a1.257,1.257,0,0,1-.737,1.3,1.173,1.173,0,0,1-1.5-.719c.07-5.106.011-10.214.03-15.319q0-9.04,0-18.08a16.861,16.861,0,0,0-.071-2.092,2.188,2.188,0,0,1,2.043-1.82c3.528-.038,7.058.009,10.587-.023A33.08,33.08,0,0,1,28.542,4.45,33.376,33.376,0,0,1,42.113,0M38.719,5.047a22.922,22.922,0,0,0-4.94,7.213,40.707,40.707,0,0,0-1.8,4.579,63.811,63.811,0,0,1,12.17-1.451q0-6.586,0-13.173a10.556,10.556,0,0,0-5.431,2.832m7.717-2.832q0,6.588,0,13.177c.8.039,1.612.033,2.416.1a1.124,1.124,0,0,1,.018,2.245c-.813.032-1.626-.052-2.438-.064q0,6.561,0,13.121,7.228,0,14.455,0a55.765,55.765,0,0,0-1.577-11.438c-1.3-.284-2.6-.63-3.921-.826a11.388,11.388,0,0,1-1.894-.389,1.128,1.128,0,0,1-.3-1.8,1.354,1.354,0,0,1,1.308-.289c1.373.214,2.738.485,4.1.776A32.8,32.8,0,0,0,53.812,7.2c-1.831-2.382-4.327-4.491-7.376-4.981M24.089,10.648a30.681,30.681,0,0,0-8.564,14.564c3.7-3.929,8.785-6.186,13.876-7.714,1.533-5.27,3.877-10.523,7.962-14.318a30.913,30.913,0,0,0-13.275,7.468m29.133-7.47c3.6,3.338,5.855,7.851,7.388,12.454a13.589,13.589,0,0,0,.637,1.873c.565.231,1.164.369,1.741.568,4.456,1.5,8.826,3.686,12.073,7.163A30.894,30.894,0,0,0,53.223,3.178M31.265,19.364A56.682,56.682,0,0,0,29.7,30.8H44.149q.009-6.561,0-13.121a59.931,59.931,0,0,0-12.887,1.688m-12.819,6.18c1.682.011,3.365-.009,5.048.006a2.162,2.162,0,0,1,1.788.9c.746,1.051,1.423,2.15,2.169,3.2a60.622,60.622,0,0,1,1.29-9.557,30.018,30.018,0,0,0-10.3,5.451m43.4-5.451A60.813,60.813,0,0,1,63.2,31.716q6.365,0,12.731,0A10.729,10.729,0,0,0,72.34,25.73a29.882,29.882,0,0,0-10.5-5.638M63.215,34q0,5.576,0,11.154c3.722-1.405,7.415-3.248,10.147-6.213A9.954,9.954,0,0,0,75.935,34Q69.575,34,63.215,34Z" transform="translate(-0.46)" fill="#0065bb"/>
    <path id="Path_553" data-name="Path 553" d="M35.961,12.158a1.122,1.122,0,0,1,.579-1.645,1.265,1.265,0,0,1,1.379.445c.934.946,1.89,1.87,2.815,2.824a1.158,1.158,0,0,1,.056,1.618c-.934.98-1.916,1.916-2.862,2.885a1.389,1.389,0,0,1-1.264.556,1.131,1.131,0,0,1-.781-1.667A13.662,13.662,0,0,1,37.178,15.8,8.97,8.97,0,0,0,34,16.073a3.861,3.861,0,0,0-2.267,2.5,6.028,6.028,0,0,0-.163,1.676c.008,2.888,0,5.776.006,8.665a1.637,1.637,0,0,1-.337,1.24,1.134,1.134,0,0,1-1.673-.055,1.985,1.985,0,0,1-.287-1.344c.021-3.084-.021-6.169.021-9.253a6.153,6.153,0,0,1,4.035-5.607,11.1,11.1,0,0,1,3.9-.383A13.59,13.59,0,0,1,35.961,12.158Z" transform="translate(-24.902 -8.854)" fill="#0065bb"/>
    <path id="Path_554" data-name="Path 554" d="M107.988,301.325c-.067-.668.653-1.006,1.221-.992,2.431-.009,4.863-.014,7.294,0,.623-.047.936.623.911,1.156.032.544-.26,1.285-.911,1.244-1.92.023-3.844,0-5.765.009q0,2.115,0,4.229c1.1.017,2.2-.032,3.3.02,1.1.12,1.022,2.182-.132,2.133-1.054.026-2.11,0-3.166.008q0,2.707,0,5.416c-.008.327,0,.729-.311.928a1.973,1.973,0,0,1-2.151-.006c-.3-.2-.287-.591-.3-.907C107.991,310.152,107.974,305.738,107.988,301.325Z" transform="translate(-91.646 -254.7)" fill="#0065bb"/>
    <path id="Path_555" data-name="Path 555" d="M172.3,300.79a.976.976,0,0,1,1.018-.445c2.836.009,5.676-.008,8.512.008,1.375-.023,1.259,2.605-.146,2.406-.946.008-1.893-.006-2.839,0-.008,4.041.015,8.082-.012,12.123.027.479-.431.764-.842.86a1.986,1.986,0,0,1-1.624-.273c-.324-.246-.26-.693-.276-1.048.015-3.883-.011-7.766.014-11.649-1.129-.07-2.27.077-3.389-.077A1.443,1.443,0,0,1,172.3,300.79Z" transform="translate(-146.038 -254.715)" fill="#0065bb"/>
    <path id="Path_556" data-name="Path 556" d="M252.5,300.673a1.554,1.554,0,0,1,1.258-.357c1.434.023,2.868-.033,4.3.033a4.519,4.519,0,0,1,3.572,1.784,6.181,6.181,0,0,1,.682,4.053,3.954,3.954,0,0,1-1.954,3.116c-1.606.945-3.534.667-5.311.713-.008,1.612.018,3.225-.009,4.837.033.488-.435.776-.851.869a1.987,1.987,0,0,1-1.619-.272c-.284-.2-.267-.583-.276-.892q.007-6.545,0-13.089a1.125,1.125,0,0,1,.207-.795m2.549,2.065q0,2.557,0,5.115a12.946,12.946,0,0,0,3.389-.191c1.158-.468,1.3-1.905,1.168-2.985A1.976,1.976,0,0,0,258,302.8,27.422,27.422,0,0,0,255.047,302.738Z" transform="translate(-214.032 -254.692)" fill="#0065bb"/>
    <path id="Path_557" data-name="Path 557" d="M436.691,354.137a1.131,1.131,0,0,1,1.692.916c.046,2.428,0,4.86.018,7.289a31.176,31.176,0,0,1-.081,3.35,6.13,6.13,0,0,1-4.061,4.927,11.488,11.488,0,0,1-3.812.357,10.81,10.81,0,0,1,1.331,1.436,1.132,1.132,0,0,1-.858,1.613,1.441,1.441,0,0,1-1.237-.579c-.9-.924-1.834-1.82-2.733-2.747a1.167,1.167,0,0,1,0-1.682c.98-1,1.97-1.984,2.961-2.972a1.2,1.2,0,0,1,1.287-.357,1.123,1.123,0,0,1,.576,1.654,13.643,13.643,0,0,1-1.273,1.344,15.541,15.541,0,0,0,2.523-.09,3.839,3.839,0,0,0,2.9-2.616,5.415,5.415,0,0,0,.188-1.66c-.006-2.94,0-5.879,0-8.819A1.384,1.384,0,0,1,436.691,354.137Z" transform="translate(-361.857 -300.203)" fill="#0065bb"/>
  </g>
  <g id="_00000080" data-name="#00000080" transform="translate(0 27.379)">
    <path id="Path_558" data-name="Path 558" d="M0,180.506l.082-.286a16.861,16.861,0,0,1,.071,2.092q0,9.04,0,18.08c-.02,5.106.039,10.214-.03,15.319L0,215.465Z" transform="translate(0 -180.22)" fill="#0065bb" opacity="0.5"/>
  </g>
</svg>
