<svg xmlns="http://www.w3.org/2000/svg" width="78" height="76.291" viewBox="0 0 78 76.291">
  <g id="سامانه_گلستان" data-name="سامانه گلستان" transform="translate(17963.336 3736.569)">
    <g id="Group_393" data-name="Group 393" transform="translate(-17963.336 -3736.569)">
      <g id="_000000ff" data-name="#000000ff" transform="translate(0 0)">
        <path id="Path_72" data-name="Path 72" d="M35.507,6.487a7.67,7.67,0,0,1,6.776-.1c.981.483,1.93,1.024,2.905,1.519a2.823,2.823,0,0,1,.98.684,1.148,1.148,0,0,1-.5,1.677,1.29,1.29,0,0,1-1.191-.139c-1.068-.556-2.118-1.152-3.2-1.682a5.408,5.408,0,0,0-4.869.148Q25.7,14.258,15,19.936a3.3,3.3,0,0,0-1.537,1.2,2.365,2.365,0,0,0,.9,3.263Q25,30.059,35.656,35.688a11.7,11.7,0,0,0,1.543.746,5.348,5.348,0,0,0,3.606,0,15.936,15.936,0,0,0,1.936-.951c1.429-.75,2.85-1.51,4.276-2.264q-4.381-5-8.767-10a1.3,1.3,0,0,1-.39-.923,1.146,1.146,0,0,1,1.3-1.088,1.393,1.393,0,0,1,.856.547q4.531,5.185,9.08,10.358,7.178-3.791,14.348-7.6a2.421,2.421,0,0,0,1.377-1.693A2.361,2.361,0,0,0,63.6,20.251q-7.164-3.8-14.339-7.6c-.5-.251-1.127-.533-1.184-1.172a1.143,1.143,0,0,1,1.676-1.144c4.956,2.6,9.9,5.233,14.846,7.852a4.7,4.7,0,0,1,2.38,2.914,4.866,4.866,0,0,1-.267,3.243c1.021.009,2.043-.026,3.064.017a5.447,5.447,0,0,1,4.447,2.93,5.591,5.591,0,0,1,.612,2.622q0,20.463,0,40.925c.748.018,1.5-.047,2.244.035a1.168,1.168,0,0,1,.919.964v2.806a7.474,7.474,0,0,1-4.63,6.735,8.408,8.408,0,0,1-3.441.551q-31.156-.007-62.311,0A7.443,7.443,0,0,1,0,74.651V71.8a1.184,1.184,0,0,1,.919-.922c.745-.084,1.5-.017,2.244-.035q.007-20.534,0-41.07a5.47,5.47,0,0,1,3.289-4.977c1.519-.687,3.221-.381,4.829-.448a4.739,4.739,0,0,1,.6-4.931A9.077,9.077,0,0,1,14.905,17.4q10.3-5.455,20.6-10.914M5.452,29.773q-.011,20.532,0,41.066,33.55.009,67.1,0,0-20.534,0-41.066a3.173,3.173,0,0,0-2.936-3.132c-1.624-.027-3.248,0-4.872-.015a1.188,1.188,0,0,0-.7.152q-2.728,1.453-5.46,2.9c3.271.009,6.542-.009,9.812.009a1.159,1.159,0,0,1,1.111,1.3q0,17.447,0,34.9c-.017.519.09,1.133-.309,1.545-.428.492-1.133.349-1.709.369q-23.542,0-47.083,0a1.179,1.179,0,0,1-1.281-.911,1.145,1.145,0,0,1,1.138-1.37q23.478-.023,46.957-.008V31.965q-5.116-.007-10.233,0c-.009,1.5.009,3.007-.008,4.512a10.671,10.671,0,0,1-7.008,9.847,21.463,21.463,0,0,0,.041,2.148c.775,1.438,1.656,2.82,2.422,4.264a3.48,3.48,0,0,1-1.4,4.456,5.041,5.041,0,0,1-2.91.452,3.458,3.458,0,0,1-2.8-5.122c.745-1.325,1.525-2.631,2.271-3.953a4.775,4.775,0,0,0,.082-1.446,30.135,30.135,0,0,1-19.611-.794,10.64,10.64,0,0,1-7.05-9.857c-.017-1.5,0-3.006-.008-4.509q-5.116,0-10.233,0V65.508c1.638.012,3.277-.015,4.915.011a1.14,1.14,0,0,1,1.076,1.427,1.166,1.166,0,0,1-1.214.849c-1.988,0-3.978.011-5.966-.008a1.166,1.166,0,0,1-1.1-1.31q0-17.438,0-34.876c.023-.491-.09-1.053.235-1.47a1.171,1.171,0,0,1,1.016-.452q4.838,0,9.674,0c-1.779-.957-3.574-1.884-5.353-2.843a1.233,1.233,0,0,0-.654-.2c-1.677.011-3.356-.015-5.035.014a3.167,3.167,0,0,0-2.923,3.129M23.3,31.73c0,1.633-.017,3.266.011,4.9a8.373,8.373,0,0,0,4.777,7.235,27.717,27.717,0,0,0,19.594.858q0-4.637,0-9.27c-1.752.919-3.492,1.859-5.247,2.771a7.672,7.672,0,0,1-6.962-.046Q29.386,34.961,23.3,31.73m26.669,2.506q0,4.8,0,9.6a8.4,8.4,0,0,0,4.7-7.053c.047-1.682.011-3.365.02-5.049-1.577.83-3.147,1.673-4.726,2.5M47.484,53.342a1.558,1.558,0,0,0-.3.954,1.177,1.177,0,0,0,1.094,1.068,5.935,5.935,0,0,0,1.356-.04,1.182,1.182,0,0,0,.692-1.7c-.484-.874-1-1.732-1.493-2.6-.452.771-.893,1.549-1.347,2.32M2.287,73.126c0,.629-.023,1.258.027,1.888a5.113,5.113,0,0,0,2.48,3.9,5.233,5.233,0,0,0,2.821.731q31.462,0,62.922,0a5.162,5.162,0,0,0,4.838-3.306,8.363,8.363,0,0,0,.337-3.211q-13.64,0-27.28,0a5.469,5.469,0,0,1-5.166,4.392c-2.891,0-5.786.015-8.677-.006a5.47,5.47,0,0,1-5.023-4.386q-13.64,0-27.28,0m29.635,0a3.2,3.2,0,0,0,2.958,2.105q4.113.007,8.228,0a3.2,3.2,0,0,0,2.969-2.105Q39,73.119,31.922,73.131Z" transform="translate(0 -5.645)" fill="#0065bb"/>
        <path id="Path_73" data-name="Path 73" d="M94.039,332.068c5.152-.066,10.311-.009,15.465-.028a1.185,1.185,0,0,1,1.278.914,1.147,1.147,0,0,1-1.114,1.379q-7.679.021-15.359,0a1.152,1.152,0,0,1-1.175-1.376A1.134,1.134,0,0,1,94.039,332.068Z" transform="translate(-78.951 -282.323)" fill="#0065bb"/>
        <path id="Path_74" data-name="Path 74" d="M93.764,363.7a1.693,1.693,0,0,1,.726-.124q11.345.007,22.688,0a1.155,1.155,0,1,1,.023,2.3q-11.434,0-22.872,0a1.149,1.149,0,0,1-.565-2.177Z" transform="translate(-78.984 -309.057)" fill="#0065bb"/>
      </g>
    </g>
  </g>
</svg>
