<svg id="کاربران_اینترنت" data-name="کاربران اینترنت" xmlns="http://www.w3.org/2000/svg" width="77.768" height="77.786" viewBox="0 0 77.768 77.786">
  <path id="Path_1685" data-name="Path 1685" d="M38.061,0h1.5a33.293,33.293,0,0,1,15.5,4.354,1.148,1.148,0,0,1-.1,2.018,1.307,1.307,0,0,1-1.288-.185A30.576,30.576,0,0,0,44.783,2.9a23.065,23.065,0,0,1,4.4,6.872A49.263,49.263,0,0,1,52.411,21.1q7.318,0,14.635,0A30.914,30.914,0,0,0,59.567,10.46a1.6,1.6,0,0,1-.6-.886,1.221,1.221,0,0,1,1.193-1.322,1.4,1.4,0,0,1,.863.442A33.2,33.2,0,0,1,69.8,44.385a33.6,33.6,0,0,1-3.613,7.134l10.82,11.233a2.51,2.51,0,0,1,.7,1.223A2.537,2.537,0,0,1,76.218,66.8a2.916,2.916,0,0,1-1.6.09c-2.308-.366-4.616-.74-6.928-1.08q-2.142,2.837-4.284,5.674a2.8,2.8,0,0,1-1.127.96,2.525,2.525,0,0,1-3.061-.992,2.855,2.855,0,0,1-.345-1.569q0-5.269-.021-10.536a33.536,33.536,0,0,1-8.572,4.77c-.008,3.294.014,6.588-.009,9.881a3.975,3.975,0,0,1-3.593,3.783H14.4a1.172,1.172,0,0,1-.82-1.624,1.107,1.107,0,0,1,1.149-.653q15.733-.007,31.468,0a1.672,1.672,0,0,0,1.8-1.653c.023-3.4-.006-6.8.014-10.2a2.312,2.312,0,0,0-.334-1.487,1.725,1.725,0,0,0-1.487-.668H4.1a1.672,1.672,0,0,0-1.8,1.694c-.008,3.554-.014,7.109,0,10.662a1.629,1.629,0,0,0,1.492,1.632c1.626.071,3.257-.033,4.883.043a1.13,1.13,0,0,1,.849,1.612,1.2,1.2,0,0,1-.784.644H3.64A4.037,4.037,0,0,1,0,74.143V62.928a4.026,4.026,0,0,1,2.291-3.342,6.369,6.369,0,0,1,2.873-.366q6.552,0,13.107,0A33.017,33.017,0,0,1,6.428,40.835,33.123,33.123,0,0,1,38.061,0M34.522,4.134a18.067,18.067,0,0,0-3.813,5.454,44.81,44.81,0,0,0-3.5,11.51q11.442,0,22.888,0A44.536,44.536,0,0,0,46.5,9.41a17.673,17.673,0,0,0-3.792-5.337A6.212,6.212,0,0,0,38.6,2.283a6.325,6.325,0,0,0-4.073,1.85m-12.4,2.955A31.043,31.043,0,0,0,10.241,21.1q7.322,0,14.647,0A48.061,48.061,0,0,1,28.314,9.321a22.4,22.4,0,0,1,4.208-6.43,30.713,30.713,0,0,0-10.4,4.2M9.369,42.843q7.593,0,15.185,0a76.517,76.517,0,0,1-.011-19.466q-7.582,0-15.164,0a31.006,31.006,0,0,0-.011,19.466m17.479,0h23.6a74.223,74.223,0,0,0,0-19.466q-11.8,0-23.6,0a73.962,73.962,0,0,0,0,19.466m25.9-19.466a76.726,76.726,0,0,1-.009,19.466H67.929a30.984,30.984,0,0,0-.02-19.466q-7.577,0-15.156,0M10.226,45.122a31.039,31.039,0,0,0,11.993,14.1c2.423.006,4.846,0,7.27,0a44.964,44.964,0,0,1-4.591-14.1H10.226m16.978,0c.9,4.906,2.256,9.842,4.944,14.1,4.331.008,8.663-.006,12.994.006,2.7-4.252,4.044-9.2,4.951-14.1H27.2m25.2,0A44.642,44.642,0,0,1,47.687,59.44a4.187,4.187,0,0,1,2.356,2.326,30.853,30.853,0,0,0,8.807-5.358c-.011-2.092-.009-4.184-.018-6.275a2.452,2.452,0,0,1,3.833-2.2c.693.568,1.259,1.275,1.9,1.9a32.3,32.3,0,0,0,2.505-4.711q-7.336,0-14.668,0m8.71,5.169q.021,6.556.032,13.114c.027,2.344-.036,4.691.052,7.034a1.883,1.883,0,0,0,.465-.412c1.343-1.8,2.706-3.582,4.053-5.378A2.569,2.569,0,0,1,67,63.665a4.857,4.857,0,0,1,2.262.082c2.09.313,4.175.675,6.27.957a1.162,1.162,0,0,0-.287-.5q-4.33-4.473-8.642-8.965c-1.816-1.843-3.551-3.768-5.416-5.557A5.1,5.1,0,0,0,61.111,50.291Z" fill="#0065bb"/>
  <path id="Path_1686" data-name="Path 1686" d="M34.986,420.746c-.346-.84.589-1.658,1.4-1.434a1.116,1.116,0,0,1,.8.849c.469,1.428.924,2.861,1.4,4.287.5-1.19.972-2.393,1.48-3.579a1.153,1.153,0,0,1,1.659-.532,1.528,1.528,0,0,1,.565.8q.672,1.661,1.36,3.317c.447-1.381.9-2.759,1.34-4.142a1.589,1.589,0,0,1,.482-.833,1.214,1.214,0,0,1,1.767.523,1.415,1.415,0,0,1-.059.966q-1.142,3.5-2.273,7a1.191,1.191,0,0,1-.722.845,1.142,1.142,0,0,1-1.474-.647c-.539-1.287-1.057-2.581-1.594-3.87-.545,1.3-1.059,2.612-1.615,3.908a1.153,1.153,0,0,1-1.714.471,1.5,1.5,0,0,1-.509-.842C36.522,425.468,35.735,423.113,34.986,420.746Z" transform="translate(-29.608 -355.576)" fill="#0065bb"/>
  <path id="Path_1687" data-name="Path 1687" d="M125.414,419.4a1.094,1.094,0,0,1,1.534.565c.517,1.486.972,2.993,1.471,4.485.453-1.1.907-2.194,1.351-3.294a1.569,1.569,0,0,1,.547-.807,1.155,1.155,0,0,1,1.67.483c.517,1.2.989,2.416,1.495,3.619.439-1.351.881-2.7,1.313-4.053.131-.444.334-.963.839-1.079.825-.264,1.806.58,1.437,1.442-.793,2.472-1.586,4.945-2.408,7.406a1.144,1.144,0,0,1-2.056.117c-.58-1.317-1.1-2.663-1.654-3.991-.545,1.3-1.059,2.6-1.61,3.9a1.139,1.139,0,0,1-1.609.559c-.459-.237-.565-.779-.717-1.225-.719-2.258-1.469-4.5-2.185-6.762A1.068,1.068,0,0,1,125.414,419.4Z" transform="translate(-105.803 -355.568)" fill="#0065bb"/>
  <path id="Path_1688" data-name="Path 1688" d="M214.591,420.605c-.239-.874.836-1.576,1.6-1.229a1.224,1.224,0,0,1,.658.855q.686,2.117,1.373,4.233c.506-1.2.98-2.42,1.5-3.619a1.143,1.143,0,0,1,2.025-.087c.548,1.215,1.009,2.469,1.542,3.692.509-1.495.957-3.01,1.48-4.5a1.131,1.131,0,0,1,1.8-.365,1.092,1.092,0,0,1,.29,1.261c-.8,2.44-1.571,4.889-2.385,7.324a1.144,1.144,0,0,1-2.048.144c-.589-1.322-1.1-2.678-1.667-4.009-.542,1.29-1.056,2.593-1.6,3.882a1.141,1.141,0,0,1-1.594.586c-.445-.213-.573-.723-.713-1.152C216.109,425.28,215.3,422.957,214.591,420.605Z" transform="translate(-181.96 -355.585)" fill="#0065bb"/>
</svg>
