<svg xmlns="http://www.w3.org/2000/svg" width="89.271" height="77.786" viewBox="0 0 89.271 77.786">
  <g id="پشتیبانی_فناوری_اطلاعات" data-name="پشتیبانی فناوری اطلاعات" transform="translate(0 -32.928)">
    <path id="Path_1689" data-name="Path 1689" d="M5.754,36.416a15.512,15.512,0,0,1,9.755-3.485q17.965-.005,35.933,0A15.157,15.157,0,0,1,57.6,34.119a1.331,1.331,0,0,1,.1,2.289c-.729.492-1.545-.058-2.272-.256-2.185-.72-4.507-.542-6.77-.561q-16.568.005-33.138,0A12.9,12.9,0,0,0,2.668,48.46c0,4.88-.009,9.761.007,14.641A12.964,12.964,0,0,0,8.814,73.812a3.2,3.2,0,0,1,1.683,2.72c.023,2.394,0,4.788.01,7.182q3.526-3.528,7.053-7.055c1.1-1.221,2.847-.9,4.308-.933.084-2.873-.265-5.806.485-8.62A15.589,15.589,0,0,1,37.487,55.4q13.535-.008,27.073,0c-.009-2.37.007-4.739-.007-7.11a12.8,12.8,0,0,0-3.05-8.122c-.4-.45-.91-.955-.764-1.62a1.333,1.333,0,0,1,2.227-.738,15.442,15.442,0,0,1,4.253,10.481c.01,2.37,0,4.739,0,7.109,2.349.014,4.7-.019,7.044.017a15.548,15.548,0,0,1,11.616,5.864,15.712,15.712,0,0,1,3.39,9.047V86.176a15.958,15.958,0,0,1-2.762,7.993,15.53,15.53,0,0,1-4.464,4.265c-.192.148-.5.279-.462.574-.03,3.145.017,6.293-.019,9.438a2.376,2.376,0,0,1-2.216,2.256,2.738,2.738,0,0,1-2.171-.98q-4-4.022-8.02-8.031c-.359-.295-.626-.837-1.147-.814-10.177-.014-20.353,0-30.528-.009a15.512,15.512,0,0,1-10.6-4.138,1.327,1.327,0,0,1,.183-2.036,1.385,1.385,0,0,1,1.787.237A12.888,12.888,0,0,0,37.313,98.2Q52.657,98.2,68,98.2a3.163,3.163,0,0,1,2.345.919c2.858,2.844,5.7,5.7,8.559,8.547q.013-4.056,0-8.113a3.729,3.729,0,0,1,.486-2.221,5.805,5.805,0,0,1,1.869-1.578A12.815,12.815,0,0,0,86.6,85.586c.017-4.88.005-9.759.005-14.639A12.895,12.895,0,0,0,73.929,58.074q-18.135-.01-36.272-.005A12.9,12.9,0,0,0,24.544,70.606c-.019,4.88,0,9.759-.009,14.637a13.111,13.111,0,0,0,.99,5.039,1.346,1.346,0,0,1-.493,1.686,1.327,1.327,0,0,1-1.9-.547,15.244,15.244,0,0,1-1.257-6.181c0-2.282,0-4.565,0-6.847-.666.007-1.332-.028-2,.005a.792.792,0,0,0-.6.317q-3.612,3.63-7.241,7.245a2.49,2.49,0,0,1-3.175.359,2.381,2.381,0,0,1-1.013-1.925c-.026-2.568.01-5.137-.014-7.7.065-.4-.361-.546-.617-.739A15.618,15.618,0,0,1,.455,66.527,24.522,24.522,0,0,1,0,63.842V47.826A15.667,15.667,0,0,1,5.754,36.416Z" fill="#0065bb"/>
    <path id="Path_1690" data-name="Path 1690" d="M65.109,121.686a1.983,1.983,0,1,1-1.194,2.383A1.994,1.994,0,0,1,65.109,121.686Z" transform="translate(-52.707 -73.168)" fill="#0065bb"/>
    <path id="Path_1691" data-name="Path 1691" d="M99.578,121.722a1.983,1.983,0,1,1-1.133,2.354A2,2,0,0,1,99.578,121.722Z" transform="translate(-81.218 -73.18)" fill="#0065bb"/>
    <path id="Path_1692" data-name="Path 1692" d="M134,121.669a1.983,1.983,0,1,1-1.226,2.417A2,2,0,0,1,134,121.669Z" transform="translate(-109.558 -73.167)" fill="#0065bb"/>
    <path id="Path_1693" data-name="Path 1693" d="M176.008,202.2a12.2,12.2,0,0,1,16.67-.35,12.435,12.435,0,0,1,3.881,7.081,4.4,4.4,0,0,1,3.158,3.714c.07,1.245.014,2.493.031,3.74a8.594,8.594,0,0,1-.289,3.123,4.468,4.468,0,0,1-3.111,2.72,7.554,7.554,0,0,1-4.16,4.539,4.1,4.1,0,0,1-2.045,2.485,5.057,5.057,0,0,1-5.5-.518,3.5,3.5,0,0,1-1.322-2.92,3.621,3.621,0,0,1,1.574-2.669,4.966,4.966,0,0,1,6.709.933,4.819,4.819,0,0,0,1.989-2.118A4.44,4.44,0,0,1,191,218.125c-.026-1.684-.009-3.369-.009-5.053a4.457,4.457,0,0,1,2.858-4.043,9.625,9.625,0,0,0-4.268-6.164,9.477,9.477,0,0,0-14.367,6.164,4.455,4.455,0,0,1,2.859,4.035q.01,2.445,0,4.892a4.375,4.375,0,0,1-8.749.009c0-1.683-.014-3.367.007-5.049a4.429,4.429,0,0,1,3.192-4,12.231,12.231,0,0,1,3.48-6.715m-3.015,9.389a1.705,1.705,0,0,0-.992,1.5c-.024,1.444,0,2.889-.012,4.333a2.537,2.537,0,0,0,.246,1.395,1.706,1.706,0,0,0,3.173-.867c.009-1.627.017-3.255,0-4.88a1.714,1.714,0,0,0-2.411-1.484m21.772-.044a1.737,1.737,0,0,0-1.1,1.7c0,1.567-.01,3.135.005,4.7a1.7,1.7,0,0,0,3.409.019c.019-1.343,0-2.685.009-4.026a2.97,2.97,0,0,0-.284-1.731,1.711,1.711,0,0,0-2.035-.668m-7.813,13.5c-.469.166-1.022.537-.968,1.1a1.492,1.492,0,0,0,1.149.942,2.326,2.326,0,0,0,2.227-.541.719.719,0,0,0,.023-.989A2.336,2.336,0,0,0,186.953,225.041Z" transform="translate(-139.801 -136.889)" fill="#0065bb"/>
    <path id="Path_1694" data-name="Path 1694" d="M356.806,226.848a2.3,2.3,0,0,1,.966-.138c3.372.01,6.746,0,10.118.007a1.364,1.364,0,0,1,1.2.581,1.332,1.332,0,0,1-.268,1.792,1.877,1.877,0,0,1-1.275.3c-3.374-.012-6.748.007-10.121-.01a1.333,1.333,0,0,1-.624-2.533Z" transform="translate(-293.967 -159.994)" fill="#0065bb"/>
    <path id="Path_1695" data-name="Path 1695" d="M357.1,261c2.785-.073,5.576-.012,8.362-.031a1.345,1.345,0,0,1,1.4,1.03,1.329,1.329,0,0,1-1.236,1.622c-2.73.021-5.463.007-8.193.007A1.329,1.329,0,0,1,357.1,261Z" transform="translate(-293.965 -188.278)" fill="#0065bb"/>
  </g>
</svg>
