<svg xmlns="http://www.w3.org/2000/svg" width="78" height="77.786" viewBox="0 0 78 77.786">
  <g id="آزمایشگاه_مرکزی" data-name="آزمایشگاه مرکزی" transform="translate(7235 -9278)">
    <g id="_000000ff" data-name="#000000ff" transform="translate(-7235 9278)">
      <path id="Path_64" data-name="Path 64" d="M35.856.9a5.657,5.657,0,0,1,5.535,1.466c2.09,2.091,4.187,4.175,6.271,6.274a5.626,5.626,0,0,1-2.51,9.342,5.81,5.81,0,0,1-3.884-.3q-3.461,3.449-6.915,6.907A19.4,19.4,0,0,1,35.822,36.6,14.809,14.809,0,0,1,30.39,45.46a16.29,16.29,0,0,1-10.409,3.184A19.563,19.563,0,0,1,6.764,43.036a19.606,19.606,0,0,1-5.45-14.351,15.857,15.857,0,0,1,3.471-9.5,14.851,14.851,0,0,1,8.054-4.953A19.279,19.279,0,0,1,25.358,15.6c2.3-2.31,4.61-4.6,6.909-6.914a5.758,5.758,0,0,1-.229-4.132A5.633,5.633,0,0,1,35.856.9m.554,2.315a3.248,3.248,0,0,0-1.3,5.415q2.977,2.987,5.964,5.969a3.807,3.807,0,0,0,1.366.981,3.242,3.242,0,0,0,4.165-4.314,5.9,5.9,0,0,0-1.428-1.747q-2.732-2.732-5.466-5.466a3.264,3.264,0,0,0-3.3-.838m-2.7,7.389q-3.582,3.589-7.169,7.173a1.246,1.246,0,0,1-1.175.432,14.015,14.015,0,0,1-1.415-.624,16.512,16.512,0,0,0-12.583-.367,17.064,17.064,0,0,1,5.337,4.26,1.185,1.185,0,0,1-.538,1.783,1.247,1.247,0,0,1-1.44-.446,13.625,13.625,0,0,0-6.036-4.1,12.109,12.109,0,0,0-3.414,4,14.972,14.972,0,0,0-1.455,8.97A16.765,16.765,0,0,0,9.684,42.471a17.349,17.349,0,0,0,11.26,3.79,13.578,13.578,0,0,0,8.384-3,12.521,12.521,0,0,0,4.06-6.655c-4.17-.245-8.457-1.345-11.752-4.021a14.489,14.489,0,0,1-3.927-5.129c-.241-.538-.688-1.092-.494-1.717a1.2,1.2,0,0,1,1.593-.759c.6.245.761.932,1.045,1.448a12.085,12.085,0,0,0,3.587,4.527,18.138,18.138,0,0,0,10.331,3.281A17.459,17.459,0,0,0,31.9,25.022a1.236,1.236,0,0,1,.2-1.537q3.62-3.623,7.244-7.242C37.475,14.354,35.59,12.484,33.713,10.605Z" transform="translate(-1.093 -0.69)" fill="#0065bb"/>
      <path id="Path_65" data-name="Path 65" d="M429.621,6.711a5.322,5.322,0,1,1-3.884,3.238,5.355,5.355,0,0,1,3.884-3.238m.187,2.406a2.944,2.944,0,1,0,2.947.727A2.962,2.962,0,0,0,429.808,9.117Z" transform="translate(-361.115 -5.657)" fill="#0065bb"/>
      <path id="Path_66" data-name="Path 66" d="M362.647,49.3a4.56,4.56,0,1,1-3.692,5.137,4.583,4.583,0,0,1,3.692-5.137m.31,2.371a2.175,2.175,0,1,0,2.63,1.631A2.182,2.182,0,0,0,362.957,51.674Z" transform="translate(-304.515 -41.512)" fill="#0065bb"/>
      <path id="Path_67" data-name="Path 67" d="M280.546,121.528a5.645,5.645,0,0,1,4.894-2.933c3.015,0,6.031-.008,9.046,0a5.627,5.627,0,0,1,3.023,10.266c-.014,4.7,0,9.4-.01,14.1a7.593,7.593,0,0,1-14.883,2.058,12.908,12.908,0,0,1-.306-3.813c0-4.117.008-8.235-.006-12.351a5.78,5.78,0,0,1-1.979-2.414,5.623,5.623,0,0,1,.221-4.916m3.994-.416a3.243,3.243,0,0,0-.435,6.037,4.52,4.52,0,0,0,2.134.318c2.695-.008,5.388,0,8.082,0a3.243,3.243,0,1,0,.013-6.485c-2.857,0-5.713,0-8.57,0a4.077,4.077,0,0,0-1.224.14m.151,8.687q0,2.046,0,4.089,5.216.007,10.433,0c0-1.362,0-2.726,0-4.089-1.216.084-2.437.03-3.657.046-2.26-.027-4.521.054-6.779-.048m0,6.474q0,3.263,0,6.528a5.216,5.216,0,0,0,9.875,2.437,5.64,5.64,0,0,0,.557-2.763c0-2.067,0-4.135,0-6.2Q289.907,136.271,284.692,136.274Z" transform="translate(-237.82 -101.124)" fill="#0065bb"/>
      <path id="Path_68" data-name="Path 68" d="M38.656,155.7a1.2,1.2,0,0,1,1.7,1.053c.024.688-.61,1.091-1.023,1.542-.478.454-.958,1.154-1.718,1a1.19,1.19,0,0,1-.667-1.969A14.3,14.3,0,0,1,38.656,155.7Z" transform="translate(-30.818 -132.033)" fill="#0065bb"/>
      <path id="Path_69" data-name="Path 69" d="M70.3,196.381a1.182,1.182,0,0,1,1.383.867,4.626,4.626,0,0,0,.246,1.483,2.275,2.275,0,0,0,2.115,1.324,1.254,1.254,0,0,1,1.281.71,1.192,1.192,0,0,1-.856,1.64,4.641,4.641,0,0,1-5.11-4.986A1.188,1.188,0,0,1,70.3,196.381Z" transform="translate(-58.334 -166.649)" fill="#0065bb"/>
      <path id="Path_70" data-name="Path 70" d="M127.028,243.98a1.2,1.2,0,0,1,1.607,1.043c.057.708-.592,1.129-1.015,1.588-.429.391-.8.969-1.429,1.016a1.2,1.2,0,0,1-1.269-1.348c.075-.562.583-.9.938-1.283A5.075,5.075,0,0,1,127.028,243.98Z" transform="translate(-105.918 -206.923)" fill="#0065bb"/>
      <path id="Path_71" data-name="Path 71" d="M6.561,337.16A37.75,37.75,0,0,1,22.094,334.6a26.744,26.744,0,0,1,13.578,4.6,7.855,7.855,0,0,0,2.722,1.58,3.453,3.453,0,0,0,2.844-.794,26.544,26.544,0,0,1,13.615-5.3,11.449,11.449,0,0,1,1.964-.092,1.2,1.2,0,0,1,.707,1.852c-.315.508-.943.507-1.456.537a24.415,24.415,0,0,0-13.443,4.9,5.893,5.893,0,0,1-2.859,1.289,5.591,5.591,0,0,1-4.3-1.22,24.309,24.309,0,0,0-11.7-4.8,34.376,34.376,0,0,0-16.318,2.207,5.408,5.408,0,0,0-3.114,2.811,8.731,8.731,0,0,0-.507,4.414,20.134,20.134,0,0,1,2.936-1.229,36.953,36.953,0,0,1,18.514-1.6A27.6,27.6,0,0,1,37.838,349.8a1.713,1.713,0,0,0,2.319,0,27.72,27.72,0,0,1,9.365-5.215,33.82,33.82,0,0,1,19.911.2,25.913,25.913,0,0,1,4.736,1.786,9.656,9.656,0,0,0-.328-3.992,5.45,5.45,0,0,0-3.17-3.193,38.408,38.408,0,0,0-9.288-2.274,1.647,1.647,0,0,1-1.1-.408,1.231,1.231,0,0,1,.088-1.745,1.365,1.365,0,0,1,1.158-.235A41.1,41.1,0,0,1,71.548,337.2a7.81,7.81,0,0,1,4.561,4.935,11.911,11.911,0,0,1,.367,4.225,4.623,4.623,0,0,1-.518,1.764A8.647,8.647,0,0,1,78,353.4v2.168a4.221,4.221,0,0,1-1.321,2.591,3.705,3.705,0,0,1-3.842.713,36.867,36.867,0,0,0-17.25-2.76,25.385,25.385,0,0,0-12.451,4.732,9.981,9.981,0,0,1-2.063,1.337,5.384,5.384,0,0,1-5.507-.816,25.262,25.262,0,0,0-10.416-4.826A34.377,34.377,0,0,0,6.8,358.252c-1.168.389-2.334,1.086-3.6.824A4,4,0,0,1,0,355.6v-2.333a8.687,8.687,0,0,1,2.043-5.143,4.5,4.5,0,0,1-.519-1.75,12.026,12.026,0,0,1,.356-4.208,7.8,7.8,0,0,1,4.682-5.005m9.677,8.537A39.322,39.322,0,0,0,6.1,348.127a5.807,5.807,0,0,0-3.8,5.377,11.282,11.282,0,0,0,.073,2.164,1.53,1.53,0,0,0,2.02.962c6.374-2.526,13.356-3.773,20.14-2.634a27.4,27.4,0,0,1,12.053,5.194,4.154,4.154,0,0,0,1.958.986,3.313,3.313,0,0,0,2.611-.78,27.5,27.5,0,0,1,12.808-5.478,37.483,37.483,0,0,1,18.114,2.128c.612.2,1.2.492,1.821.662a1.534,1.534,0,0,0,1.816-1.445,10.976,10.976,0,0,0-.227-3.29,5.757,5.757,0,0,0-3.364-3.767c-6.053-2.32-12.7-3.381-19.083-2.09a25.391,25.391,0,0,0-10.809,5.034,6.31,6.31,0,0,1-1.973,1.285,3.95,3.95,0,0,1-3.874-.8,25.564,25.564,0,0,0-4.735-3.158A27.631,27.631,0,0,0,16.238,345.7Z" transform="translate(0 -284.815)" fill="#0065bb"/>
    </g>
  </g>
</svg>
