<svg xmlns="http://www.w3.org/2000/svg" width="78" height="69.169" viewBox="0 0 78 69.169">
  <g id="کتابخانه_مرکزی" data-name="کتابخانه مرکزی" transform="translate(6358.302 -9291.6)">
    <g id="_000000ff" data-name="#000000ff" transform="translate(-6358.302 9291.6)">
      <path id="Path_61" data-name="Path 61" d="M0,32.852A4.3,4.3,0,0,1,4.116,29Q39,28.992,73.891,29A4.3,4.3,0,0,1,78,32.844V60.415a1.283,1.283,0,0,1-.782.9,1.141,1.141,0,0,1-1.463-.81,9.372,9.372,0,0,1-.041-1.387q0-12.881,0-25.761a1.979,1.979,0,0,0-1-1.781,3.41,3.41,0,0,0-1.737-.24q-34.36.007-68.719,0a1.924,1.924,0,0,0-1.952,1.72c-.066,1.506.023,3.018-.041,4.525a1.14,1.14,0,0,1-1.5.943A1.315,1.315,0,0,1,0,37.66Z" transform="translate(0 -28.995)" fill="#0065bb"/>
      <path id="Path_62" data-name="Path 62" d="M47.873,76.6a2.693,2.693,0,0,1,2.558-2.642q3.642-.014,7.285,0a2.7,2.7,0,0,1,2.572,2.634c.015,1.523,0,3.046.008,4.569q3.94,0,7.878,0c.008-1.518-.008-3.038.006-4.558a2.7,2.7,0,0,1,2.564-2.645c3.64-.011,7.279,0,10.918,0a3.209,3.209,0,0,1,1.628.474,3.288,3.288,0,0,1,2.161-.478c2.173.006,4.348-.006,6.521.006a2.659,2.659,0,0,1,2.388,1.732,4.566,4.566,0,0,1,.186,1.726c2.528,0,5.056-.03,7.584-.025a2.7,2.7,0,0,1,2.563,2.637q.02,12.879.006,25.759c.815.009,1.632-.017,2.448.011a1.916,1.916,0,0,1,1.787,1.851q.025,1.646,0,3.293a1.933,1.933,0,0,1-1.96,1.866c-4.148,0-8.3.008-12.446,0a1.166,1.166,0,0,1,.008-2.33c4.045-.012,8.088,0,12.133,0v-2.341H47.26v2.341q21,.007,41.991,0a1.175,1.175,0,0,1,.949,1.788,1.276,1.276,0,0,1-1.256.551q-21-.012-42-.006A1.926,1.926,0,0,1,45,110.949c-.021-1.047-.006-2.094-.008-3.141a1.971,1.971,0,0,1,1.09-1.832,4.165,4.165,0,0,1,1.788-.19q.007-14.595.006-29.188m2.281-.008c-.035.627,0,1.258-.014,1.887h7.881c-.011-.626.021-1.252-.014-1.876a.384.384,0,0,0-.423-.306q-3.5-.009-6.994,0a.39.39,0,0,0-.436.295m20.308,0c-.035.627,0,1.256-.014,1.885h11.67c-.009-.627.021-1.253-.014-1.879a.387.387,0,0,0-.427-.3q-5.39-.007-10.78,0a.389.389,0,0,0-.435.3m13.932.151c-.008,1.774,0,3.549,0,5.323h7.881c0-1.773,0-3.545,0-5.318a.4.4,0,0,0-.427-.453q-3.5-.009-7.008,0a.4.4,0,0,0-.44.448m10.154,3.438c-.012.627,0,1.256,0,1.885q3.94,0,7.881,0c0-.63.009-1.261,0-1.89a.4.4,0,0,0-.432-.446q-3.505-.009-7.014,0a.4.4,0,0,0-.429.453m-44.408.637V94.394h7.881V80.817H50.14m20.308,0v5.462c1.062.006,2.123-.009,3.186,0a1.166,1.166,0,0,1,.014,2.33c-1.067.017-2.132,0-3.2.006q0,4.759,0,9.519H82.118V88.62c-1.068-.006-2.137.011-3.205-.006a1.166,1.166,0,0,1,.015-2.33c1.062-.014,2.126,0,3.189,0q0-2.732,0-5.462H70.448M60.3,83.926c-.011.785,0,1.568,0,2.353h7.881c0-.785.008-1.568,0-2.352a.4.4,0,0,0-.438-.454q-3.5-.007-7,0a.4.4,0,0,0-.436.453m24.094.481v7.178h7.881V84.406H84.391m10.154,0q0,8.349,0,16.7h7.879v-16.7H94.545M60.294,88.62v12.016h7.881V88.62H60.294m24.1,5.307v11.858h7.881V93.925q-3.942,0-7.881,0M50.14,96.734v3.9h7.881v-3.9H50.14m20.308,3.745v5.306h11.67v-5.306H70.448m-20.308,2.5v2.807h7.881v-2.809q-3.94,0-7.881,0m10.154,0v2.809h7.881v-2.809H60.294m34.251.468c0,.78,0,1.56,0,2.341h7.881v-2.341Z" transform="translate(-37.965 -66.928)" fill="#0065bb"/>
      <path id="Path_63" data-name="Path 63" d="M0,111.429a1.19,1.19,0,0,1,1.225-.923,1.162,1.162,0,0,1,1.06,1.277q0,17.707,0,35.413,36.711,0,73.42,0c.018-4.488-.008-8.975.014-13.464a1.135,1.135,0,0,1,1.363-1.086,1.247,1.247,0,0,1,.914.883V151.86a4.249,4.249,0,0,1-4.256,3.8q-14.723,0-29.448,0c.34,1.083.707,2.158,1.037,3.244a10.671,10.671,0,0,1,3.537.341,5.345,5.345,0,0,1,3.531,5.429,2.662,2.662,0,0,1-2.579,2.262c-7.16.011-14.32,0-21.479.006a2.7,2.7,0,0,1-2.494-1.467,3.416,3.416,0,0,1-.2-2.179,5.531,5.531,0,0,1,3.7-4.131,12.957,12.957,0,0,1,3.33-.274c.311-1.087.689-2.153,1.025-3.232q-14.8-.014-29.6-.006A4.247,4.247,0,0,1,0,151.873V111.429M2.287,149.47c.008.727-.021,1.456.014,2.182a1.908,1.908,0,0,0,1.961,1.735q34.737,0,69.473,0a1.914,1.914,0,0,0,1.948-1.585c.069-.774.015-1.555.03-2.332q-36.713,0-73.426,0m32.769,9.448c2.629.014,5.259.006,7.887,0-.344-1.086-.7-2.167-1.045-3.252-1.932-.017-3.862-.011-5.794,0-.346,1.085-.7,2.168-1.048,3.252m-4.41,2.3a3.131,3.131,0,0,0-2.786,3.158.414.414,0,0,0,.475.3q10.669,0,21.34,0a.4.4,0,0,0,.471-.436,3.122,3.122,0,0,0-3.067-3.032C41.6,161.2,36.122,161.176,30.645,161.217Z" transform="translate(0 -97.781)" fill="#0065bb"/>
    </g>
  </g>
</svg>
