<svg xmlns="http://www.w3.org/2000/svg" width="92.941" height="77.786" viewBox="0 0 92.941 77.786">
  <g id="LMS" transform="translate(-829 -581.8)">
    <g id="_000000ff" data-name="#000000ff" transform="translate(829 581.8)">
      <path id="Path_615" data-name="Path 615" d="M2.113,43.688A7,7,0,0,1,7.081,41.7q33.129,0,66.262,0a16.171,16.171,0,0,1,1.8.036,1.346,1.346,0,0,1-.018,2.654c-.717.076-1.438.022-2.155.033q-33.037.008-66.072.007a4.259,4.259,0,0,0-4.166,4.021c-.036,2.921-.005,5.843-.013,8.764H90.216c0-2.863.011-5.725-.005-8.588a4.26,4.26,0,0,0-3.8-4.171c-1.757-.093-3.52.016-5.277-.047a1.348,1.348,0,0,1-1.272-1.577A1.374,1.374,0,0,1,81.321,41.7q2.358-.011,4.716,0a6.969,6.969,0,0,1,4.781,1.975,7.1,7.1,0,0,1,2.122,4.7v57.736a7.129,7.129,0,0,1-4.044,5.832,7.615,7.615,0,0,1-3.393.659c-3.812-.013-7.628.013-11.44-.013a1.354,1.354,0,1,1,0-2.708c3.99-.02,7.983.013,11.975-.013a4.276,4.276,0,0,0,4.173-4.211q.016-22.861,0-45.724H2.725c-.011,3.382.011,6.764-.009,10.145a1.362,1.362,0,0,1-1.587,1.378A1.444,1.444,0,0,1,0,70.345V48.385A7.061,7.061,0,0,1,2.113,43.688Z" transform="translate(0 -41.691)" fill="#0065bb"/>
      <path id="Path_616" data-name="Path 616" d="M51.649,78.134a2.516,2.516,0,1,1-1.906,2.826A2.529,2.529,0,0,1,51.649,78.134Z" transform="translate(-40.685 -71.458)" fill="#0065bb"/>
      <path id="Path_617" data-name="Path 617" d="M94.248,78.176A2.516,2.516,0,1,1,92.5,81.137,2.528,2.528,0,0,1,94.248,78.176Z" transform="translate(-75.655 -71.466)" fill="#0065bb"/>
      <path id="Path_618" data-name="Path 618" d="M137.031,78.165a2.515,2.515,0,1,1-1.817,2.806A2.531,2.531,0,0,1,137.031,78.165Z" transform="translate(-110.641 -71.465)" fill="#0065bb"/>
      <path id="Path_622" data-name="Path 622" d="M0,225.7a1.412,1.412,0,0,1,1.443-1.138,1.386,1.386,0,0,1,1.278,1.516q.005,13.889,0,27.779a7.128,7.128,0,0,0,.4,3.224,4.3,4.3,0,0,0,3.955,2.467q11.978.008,23.952,0-2.731-7.357-5.473-14.709a7.641,7.641,0,0,1-.574-1.875,2.288,2.288,0,0,1,1.872-2.314,2.648,2.648,0,0,1,1.41.191c7.934,2.962,15.883,5.89,23.811,8.869a2.086,2.086,0,0,1,.8,3.295c-1.538,1.594-3.131,3.133-4.685,4.711.6.606,1.213,1.207,1.806,1.823,5.843.033,11.688-.007,17.532.02a1.353,1.353,0,0,1,1.334,1.561,1.4,1.4,0,0,1-1.516,1.151c-4.854,0-9.708.013-14.56-.007a2.794,2.794,0,0,1,.73,1.587,2.391,2.391,0,0,1-.788,1.891c-.94.933-1.861,1.888-2.821,2.8a2.274,2.274,0,0,1-3.157-.065c-1.563-1.545-3.1-3.109-4.665-4.656-1.552,1.534-3.079,3.1-4.638,4.623a2.083,2.083,0,0,1-3.307-.608c-.733-1.839-1.385-3.71-2.089-5.562q-12.307,0-24.613,0a7.547,7.547,0,0,1-3.378-.657A7.124,7.124,0,0,1,0,255.849V225.7M28.026,243.66q4.109,11.068,8.234,22.13c1.608-1.6,3.2-3.211,4.812-4.807a1.363,1.363,0,0,1,1.953-.058c1.793,1.763,3.552,3.558,5.342,5.324q1.122-1.125,2.245-2.249c-1.766-1.777-3.551-3.536-5.311-5.32a1.359,1.359,0,0,1,.027-1.951c1.6-1.616,3.218-3.215,4.821-4.829Q39.092,247.768,28.026,243.66Z" transform="translate(0 -191.364)" fill="#0065bb"/>
    </g>
    <text id="LMS-2" data-name="LMS" transform="translate(845.903 625.506)" fill="#0065bb" stroke="#0065bb" stroke-width="1" font-size="21" font-family="MicrosoftJhengHeiUIRegular, Microsoft JhengHei UI" letter-spacing="0.284em"><tspan x="0" y="0">LMS</tspan></text>
  </g>
</svg>
