<svg xmlns="http://www.w3.org/2000/svg" width="78.063" height="78.071" viewBox="0 0 78.063 78.071">
  <g id="نگارستان" transform="translate(0.031 0.038)">
    <g id="Layer_1" data-name="Layer 1" transform="translate(-0.031 -0.038)">
      <g id="_000000ff" data-name="#000000ff" transform="translate(1.264 5.041)">
        <path id="Path_425" data-name="Path 425" d="M170.905,33.257A1.268,1.268,0,0,1,172.164,32a2.266,2.266,0,0,1,1.272.611q4.134,2.955,8.266,5.914a1.267,1.267,0,0,1,0,2.062c-2.806,2.019-5.626,4.021-8.435,6.035a1.67,1.67,0,0,1-1.259.472,1.259,1.259,0,0,1-1.089-1.218c-.02-.848,0-1.695,0-2.543H153.437a1.277,1.277,0,0,1-1.4-1.237q-.02-2.54,0-5.081a1.243,1.243,0,0,1,1.238-1.229c5.879-.016,11.758,0,17.638,0,.008-.84-.013-1.681,0-2.518Zm2.518,2.455a12.878,12.878,0,0,1-.046,1.637,1.292,1.292,0,0,1-1.371.944H154.539V40.81h17.468a1.287,1.287,0,0,1,1.375.957,13.052,13.052,0,0,1,.044,1.627c1.8-1.27,3.59-2.57,5.391-3.843C177.016,38.281,175.229,36.985,173.423,35.712Z" transform="translate(-129.36 -31.997)" fill="#0065bb"/>
        <path id="Path_426" data-name="Path 426" d="M320,171.644a3.853,3.853,0,0,1,3.756-3.6c6.609-.019,13.23,0,19.844-.009a3.941,3.941,0,0,1,3.915,2.675,6.563,6.563,0,0,1,.172,2.046v11.95a5.837,5.837,0,0,1-.252,2.274,3.911,3.911,0,0,1-3.512,2.447c-1.74.02-3.481,0-5.221,0q-1.209,2.724-2.411,5.451a1.3,1.3,0,0,1-1.023.831,1.259,1.259,0,0,1-1.357-.826c-.729-1.814-1.459-3.63-2.175-5.45-2.551-.014-5.1,0-7.651,0A3.891,3.891,0,0,1,320,185.656c0-4.675-.014-9.351,0-14.026Zm2.518.157c-.016,4.564,0,9.14,0,13.71a1.34,1.34,0,0,0,1.416,1.4c2.891.016,5.782-.008,8.672.011a1.259,1.259,0,0,1,1.179.843c.472,1.149.917,2.3,1.383,3.453.54-1.188,1.048-2.392,1.593-3.579a1.238,1.238,0,0,1,1.174-.721c1.945-.013,3.892.008,5.838-.008a1.354,1.354,0,0,0,1.416-1.407V171.949a1.34,1.34,0,0,0-1.416-1.4q-9.914-.013-19.841,0a1.334,1.334,0,0,0-1.418,1.249Z" transform="translate(-270.893 -146.622)" fill="#0065bb"/>
        <path id="Path_427" data-name="Path 427" d="M373.242,192.707a1.255,1.255,0,0,1,2.172,0c.461.916.878,1.857,1.319,2.785.99.157,1.991.277,2.976.472a1.256,1.256,0,0,1,.644,1.967c-.691.787-1.465,1.489-2.167,2.26.168,1.012.349,2.022.494,3.037a1.259,1.259,0,0,1-.927,1.382,1.458,1.458,0,0,1-1.117-.222c-.771-.425-1.537-.858-2.309-1.278-.888.472-1.75,1-2.65,1.445a1.253,1.253,0,0,1-1.7-1.325c.145-1.018.327-2.032.494-3.047-.71-.763-1.47-1.479-2.167-2.252a1.256,1.256,0,0,1,.637-1.967c.988-.192,1.991-.293,2.982-.472.442-.93.859-1.874,1.323-2.795Zm.179,4.458c-.612.595-1.539.51-2.315.68a12.772,12.772,0,0,1,1.322,1.464c.437.787.049,1.7-.038,2.526a10.213,10.213,0,0,1,1.528-.77c.873-.234,1.616.4,2.343.773a11.206,11.206,0,0,1-.242-1.91c.116-.914.985-1.429,1.537-2.082a11.439,11.439,0,0,1-1.835-.348c-.812-.346-1.023-1.283-1.4-1.991A7.118,7.118,0,0,1,373.421,197.166Z" transform="translate(-311.378 -166.889)" fill="#0065bb"/>
        <path id="Path_428" data-name="Path 428" d="M47.066,210.3q3.967-3.953,7.923-7.92.9.883,1.78,1.78-4.4,4.4-8.809,8.8a1.259,1.259,0,0,1-1.774.009L42.41,209.2c.593-.593,1.185-1.188,1.781-1.778Q45.628,208.856,47.066,210.3Z" transform="translate(-36.995 -175.568)" fill="#0065bb"/>
        <path id="Path_429" data-name="Path 429" d="M15.3,353.516a6.279,6.279,0,0,1,9.049,8.592,6.35,6.35,0,0,1,5.708,3.619,6.452,6.452,0,0,1,.607,2.834V374.7H28.143V368.4a3.789,3.789,0,0,0-2.442-3.528,4.319,4.319,0,0,0-1.649-.249c-3.3.013-6.609-.011-9.914.013a3.792,3.792,0,0,0-3.619,3.6c-.024,2.154,0,4.31-.009,6.466H8v-6.295a6.3,6.3,0,0,1,2.175-4.745,6.386,6.386,0,0,1,4.143-1.553,6.251,6.251,0,0,1,.979-8.592Zm3.161,1.147a3.777,3.777,0,1,0,3.3.787,3.777,3.777,0,0,0-3.3-.787Z" transform="translate(-8 -301.681)" fill="#0065bb"/>
        <path id="Path_430" data-name="Path 430" d="M183.127,353.677a6.279,6.279,0,0,1,9.219,8.444,6.315,6.315,0,0,1,6.315,6.306c.008,2.1,0,4.192,0,6.295h-2.518c-.008-2.154.014-4.31-.009-6.465a3.787,3.787,0,0,0-3.761-3.6c-3.412,0-6.825-.014-10.237,0a3.793,3.793,0,0,0-3.619,3.763v6.295H176v-6.295a6.3,6.3,0,0,1,2.18-4.751,6.389,6.389,0,0,1,4.139-1.542,6.246,6.246,0,0,1,.809-8.444Zm3.325,1a3.777,3.777,0,1,0,4.26,1.984,3.81,3.81,0,0,0-4.26-1.984Z" transform="translate(-149.562 -301.694)" fill="#0065bb"/>
        <path id="Path_431" data-name="Path 431" d="M351.127,353.645a6.279,6.279,0,0,1,9.219,8.446,6.316,6.316,0,0,1,6.315,6.293c.008,2.1,0,4.2,0,6.306h-2.518c-.008-2.151.013-4.3-.009-6.452a3.785,3.785,0,0,0-3.6-3.608q-5.193-.024-10.394,0a3.784,3.784,0,0,0-3.608,3.6c-.022,2.153,0,4.307-.009,6.461H344V368.4a6.3,6.3,0,0,1,2.18-4.754,6.389,6.389,0,0,1,4.139-1.552,6.348,6.348,0,0,1-1.268-3.448,6.284,6.284,0,0,1,2.077-5Zm3.336,1a3.777,3.777,0,1,0,3.209.714A3.777,3.777,0,0,0,354.463,354.644Z" transform="translate(-291.125 -301.662)" fill="#0065bb"/>
      </g>
      <path id="Path_432" data-name="Path 432" d="M149.317,3.745V21.37a3.8,3.8,0,0,1-3.619,3.777c-4.76.024-9.522,0-14.283.013q-1.742,7-3.5,13.993a1.316,1.316,0,0,1-.944,1.064,1.259,1.259,0,0,1-1.523-.91q-1.781-7.078-3.547-14.16c-4.762-.011-9.524.013-14.286-.011A3.8,3.8,0,0,1,104,21.367V3.742A3.786,3.786,0,0,1,106.1.36a3.892,3.892,0,0,1,1.825-.392h8.183a1.259,1.259,0,0,1,1.16,1.259v.014a1.259,1.259,0,0,1-1.1,1.249H107.93a1.278,1.278,0,0,0-1.405,1.249q-.016,8.822,0,17.642a1.278,1.278,0,0,0,1.4,1.251h14.006a8.037,8.037,0,0,1,1.246.039,1.3,1.3,0,0,1,.958,1.058q1.24,4.974,2.483,9.946a1.062,1.062,0,0,0,.157-.326c.787-3.21,1.6-6.416,2.4-9.625a1.286,1.286,0,0,1,1.243-1.092c5.036-.02,10.087,0,15.129-.013A1.292,1.292,0,0,0,146.81,21.2V3.891a1.32,1.32,0,0,0-.535-1.168,2.6,2.6,0,0,0-1.506-.234H124.6a1.259,1.259,0,0,1-1.1-1.249V1.227a1.259,1.259,0,0,1,1.152-1.259h19.8a6.385,6.385,0,0,1,2.411.241,3.791,3.791,0,0,1,2.456,3.536Z" transform="translate(-87.625 0.038)" fill="#0065bb"/>
      <path id="Path_433" data-name="Path 433" d="M242.132,0h0Z" transform="translate(-198.199 0.006)" fill="#0065bb"/>
      <path id="Path_434" data-name="Path 434" d="M241.912,16a1.3,1.3,0,0,1-.157.009h-6.7A1.248,1.248,0,0,1,234.9,16Z" transform="translate(-197.93 -13.476)" fill="#0065bb"/>
      <path id="Path_435" data-name="Path 435" d="M144.109,0h0Z" transform="translate(-115.621 0.006)" fill="#0065bb"/>
      <path id="Path_436" data-name="Path 436" d="M143.788,16a1.248,1.248,0,0,1-.157.009h-6.693A1.248,1.248,0,0,1,136.78,16Z" transform="translate(-115.251 -13.476)" fill="#0065bb"/>
      <path id="Path_437" data-name="Path 437" d="M151.907,211.982a1.33,1.33,0,0,1-.017-.211V208.49a1.193,1.193,0,0,1,.016-.2Q151.907,210.133,151.907,211.982Z" transform="translate(-127.983 -175.506)" fill="#0065bb"/>
      <path id="Path_438" data-name="Path 438" d="M168.042,208.237v3.281a1.309,1.309,0,0,1-.022.238V207.99A1.278,1.278,0,0,1,168.042,208.237Z" transform="translate(-141.574 -175.253)" fill="#0065bb"/>
      <path id="Path_439" data-name="Path 439" d="M26.021,187.259a3.788,3.788,0,0,1-3.366,2.109c-2.242.013-4.485-.008-6.727.009q-1.073,2.722-2.17,5.435a1.278,1.278,0,0,1-1.02.839,1.259,1.259,0,0,1-1.36-.828c-.727-1.813-1.46-3.619-2.17-5.442-1.928-.039-3.857.024-5.783-.031a3.8,3.8,0,0,1-3.451-3.759c0-4.666-.011-9.335,0-14.006a3.786,3.786,0,0,1,3.766-3.619q9.05-.013,18.1,0a5.547,5.547,0,0,1,2.1.242,3.788,3.788,0,0,1,2.472,3.534q0,1.259,0,2.518v3.766a1.259,1.259,0,0,1-1.231,1.015h-.054A1.259,1.259,0,0,1,23.892,178v-6.1a1.283,1.283,0,0,0-1.248-1.4c-6.251-.016-12.5,0-18.75,0a1.279,1.279,0,0,0-1.4,1.259c-.014,4.564,0,9.138,0,13.708a1.278,1.278,0,0,0,1.245,1.4c2.106.022,4.214-.008,6.321.013a1.259,1.259,0,0,1,1.179.843c.448,1.1.878,2.2,1.327,3.3.45-1.1.878-2.213,1.33-3.314a1.259,1.259,0,0,1,1.183-.85c2.518-.019,5.047.009,7.569-.011a1.259,1.259,0,0,0,1.243-1.246v-2.8a1.259,1.259,0,0,1,1.235-1.043h.054a1.259,1.259,0,0,1,1.229,1.01v2.508a4.1,4.1,0,0,1-.39,1.983Z" transform="translate(0.031 -141.523)" fill="#0065bb"/>
      <path id="Path_440" data-name="Path 440" d="M151.9,262.479a1.31,1.31,0,0,1,.017-.209v.8a1.2,1.2,0,0,1-.016-.2Z" transform="translate(-127.991 -220.992)" fill="#0065bb"/>
      <path id="Path_441" data-name="Path 441" d="M168.042,262.3v.389a1.325,1.325,0,0,1-.022.239v-.87A1.23,1.23,0,0,1,168.042,262.3Z" transform="translate(-141.574 -220.815)" fill="#0065bb"/>
    </g>
  </g>
</svg>
