<svg xmlns="http://www.w3.org/2000/svg" width="78" height="77.265" viewBox="0 0 78 77.265">
  <g id="پیوند" transform="translate(0 5)">
    <path id="Path_409" data-name="Path 409" d="M29.844,16.717A15.979,15.979,0,1,1,40.158,45.753c.006,2.959,0,6.915,0,9.874,3.027,1.95,6.05,7.906,9.077,9.856A15.978,15.978,0,0,1,66.984,59.9a1.143,1.143,0,0,1,.593,1.693,1.2,1.2,0,0,1-1.473.43A13.7,13.7,0,0,0,51.416,83.775a17.5,17.5,0,0,1,5.6-6.243,6.479,6.479,0,1,1,10,0,17.952,17.952,0,0,1,5.608,6.237,14.2,14.2,0,0,0,2.474-4.619,13.729,13.729,0,0,0-5.07-15.167,1.16,1.16,0,0,1-.43-1.452,1.135,1.135,0,0,1,1.618-.5A16.064,16.064,0,0,1,78,74.8v1.072a16.251,16.251,0,0,1-3.256,8.872,15.982,15.982,0,0,1-26.75-17.338C45,65.473,42.01,59.541,39.015,57.613c-3.007,1.936-6.01,7.879-9.013,9.82a15.985,15.985,0,0,1-3.376,19.622,15.844,15.844,0,0,1-9.269,3.987,1.141,1.141,0,0,1-1.091-1.5,1.264,1.264,0,0,1,1.226-.807,13.858,13.858,0,0,0,7.408-3.2,14.606,14.606,0,0,0-6.235-6.747,1.169,1.169,0,0,1-.643-1.28c.134-.676.882-.925,1.242-1.458A4.188,4.188,0,1,0,12,74.591a4.407,4.407,0,0,0,1.606,2.256,1.149,1.149,0,0,1-.171,1.9,14.8,14.8,0,0,0-6.325,6.81,13.875,13.875,0,0,0,5.821,2.927,1.165,1.165,0,0,1,.977,1.2,1.146,1.146,0,0,1-1.417,1.044,16.014,16.014,0,0,1-9.045-5.685A16.283,16.283,0,0,1,0,75.89V74.262A20.285,20.285,0,0,1,.477,71.25a15.986,15.986,0,0,1,28.28-5.743c3.039-1.961,6.08-7.918,9.116-9.887,0-2.957,0-6.914,0-9.871A16.019,16.019,0,0,1,23.037,30.3a15.778,15.778,0,0,1,3.368-10.315,1.143,1.143,0,0,1,1.93.416c.21.556-.174,1.059-.494,1.475a13.675,13.675,0,0,0,.588,16.6,17.142,17.142,0,0,1,5.588-6.231A6.485,6.485,0,0,1,38.086,21.7a6.481,6.481,0,0,1,7.405,6.309,6.6,6.6,0,0,1-1.478,4.237,17.562,17.562,0,0,1,5.6,6.231A13.694,13.694,0,0,0,31.59,18.3a1.45,1.45,0,0,1-1.488.326,1.143,1.143,0,0,1-.257-1.909m6.571,8.111a4.2,4.2,0,0,0-1.009,5.408,4.8,4.8,0,0,0,1.237,1.35,1.157,1.157,0,0,1-.236,1.884,14.727,14.727,0,0,0-6.277,6.747,13.678,13.678,0,0,0,17.772,0,14.793,14.793,0,0,0-6.29-6.753,1.161,1.161,0,0,1-.373-1.728,8.42,8.42,0,0,0,1.13-1.117,4.188,4.188,0,0,0-5.955-5.791M12.626,61.843A13.709,13.709,0,0,0,2.448,77.2,13.257,13.257,0,0,0,5.428,83.8a17.007,17.007,0,0,1,5.6-6.269,6.481,6.481,0,1,1,9.992-.02,17.584,17.584,0,0,1,5.577,6.243A13.687,13.687,0,0,0,12.626,61.843m46.21,8.828a4.2,4.2,0,0,0,.2,5.679c.378.385.975.675.989,1.29a1.3,1.3,0,0,1-.868,1.266,14.616,14.616,0,0,0-6.033,6.609,13.705,13.705,0,0,0,17.768.008,14.7,14.7,0,0,0-6.325-6.8,1.147,1.147,0,0,1-.155-1.872A4.506,4.506,0,0,0,65.841,75.1a4.188,4.188,0,0,0-7-4.426Z" transform="translate(0 -18.812)" fill="#0065bb"/>
  </g>
</svg>
