<svg id="سامانه_پویا" data-name="سامانه پویا" xmlns="http://www.w3.org/2000/svg" width="78" height="78" viewBox="0 0 78 78">
  <path id="Path_398" data-name="Path 398" d="M31.055,0h.683a3.826,3.826,0,0,1,3.189,2.518c1.813.009,3.624-.015,5.437.011a2.372,2.372,0,0,1,2.3,2.335c.014,5.948,0,11.9.006,17.844.914.02,1.831-.037,2.744.023a1.132,1.132,0,0,1-.154,2.258c-2.585.017-5.172,0-7.757.008.675.693,1.574,1.359,1.639,2.41.152,1.135-.753,2.009-1.025,3.032.395.929.835,1.845,1.14,2.812.958.375,2.108.491,2.826,1.3a2.606,2.606,0,0,1,.59,1.853c-.011,1.831.011,3.662-.009,5.492A2.383,2.383,0,0,1,41.3,44.035c-.66.3-1.362.478-2.044.711-.309.966-.748,1.881-1.143,2.814.268,1.022,1.181,1.9,1.025,3.033-.067,1.045-.955,1.711-1.629,2.4Q55.469,53,73.427,53a2.938,2.938,0,0,0,1.711-.262,1.538,1.538,0,0,0,.58-1.4q-.011-12.415,0-24.829A1.408,1.408,0,0,0,74.207,25q-11.661,0-23.322,0a1.26,1.26,0,0,1-1.306-.679,1.132,1.132,0,0,1,.879-1.587c.846-.055,1.694,0,2.541-.02q0-7.779,0-15.556a3.93,3.93,0,0,1-2.061-1.732,3.657,3.657,0,0,1,.3-4A3.777,3.777,0,0,1,53.855,0h.577a3.767,3.767,0,0,1,2.552,1.356,3.653,3.653,0,0,1,.372,4.057,3.9,3.9,0,0,1-2.067,1.75q-.009,7.779,0,15.556,3.9,0,7.808,0,0-8.85,0-17.7A2.4,2.4,0,0,1,64.35,2.808a3.117,3.117,0,0,1,1.622-.293c1.616.011,3.234,0,4.851.008A3.883,3.883,0,0,1,73.983,0h.672A3.774,3.774,0,0,1,78,3.317v.663A3.8,3.8,0,0,1,76.53,6.6a3.653,3.653,0,0,1-4.1.192,3.944,3.944,0,0,1-1.6-1.982c-1.816,0-3.633-.011-5.449.006q0,8.953,0,17.906,4.1,0,8.2,0a4.758,4.758,0,0,1,2.349.366A3.776,3.776,0,0,1,78,26.025v25.92a3.714,3.714,0,0,1-3.5,3.329c-3.041.018-6.082,0-9.122.008q0,8.953,0,17.906c1.816.017,3.633.008,5.449.006a3.9,3.9,0,0,1,1.891-2.15,3.665,3.665,0,0,1,3.909.437A3.826,3.826,0,0,1,78,74v.655A3.778,3.778,0,0,1,74.68,78h-.664a3.793,3.793,0,0,1-3.161-2.5c-1.781-.041-3.562,0-5.343-.02a2.407,2.407,0,0,1-2.2-1.385,4.314,4.314,0,0,1-.219-1.875q.007-8.469,0-16.936-5.167,0-10.332,0,0,7.776,0,15.553a3.859,3.859,0,0,1,2.105,1.822,3.653,3.653,0,0,1-.507,4.1A3.861,3.861,0,0,1,51.975,78h-.657a3.8,3.8,0,0,1-2.689-1.549,3.655,3.655,0,0,1-.008-4.217,4.014,4.014,0,0,1,1.851-1.4q.011-7.776,0-15.553-3.905,0-7.809,0c-.006,5.952.008,11.906-.006,17.858a2.374,2.374,0,0,1-2.3,2.332c-1.81.026-3.623,0-5.434.011A3.847,3.847,0,0,1,31.748,78h-.655a3.828,3.828,0,0,1-2.556-1.418,3.664,3.664,0,0,1,3.615-5.842A3.841,3.841,0,0,1,34.939,73.2c1.813,0,3.627.008,5.44-.006q.009-8.953,0-17.908-2.578,0-5.155,0a4.106,4.106,0,0,1-2.154,1.505c-1.152.195-2.113-.6-3.1-1.048a28.14,28.14,0,0,1-2.888,1.181,12.3,12.3,0,0,1-.941,2.434,2.434,2.434,0,0,1-2.06.977c-1.886-.006-3.771.006-5.655-.006a2.377,2.377,0,0,1-2.177-1.464c-.256-.635-.436-1.3-.667-1.942a19.6,19.6,0,0,1-2.826-1.182A19.606,19.606,0,0,1,10.5,56.76a2.427,2.427,0,0,1-2.276-.7Q6.242,54.081,4.264,52.1a2.43,2.43,0,0,1-.737-2c.093-.934.824-1.661,1.019-2.549-.388-.928-.83-1.837-1.132-2.8a13.768,13.768,0,0,1-2.425-.935A2.608,2.608,0,0,1,0,42.193V35.846a2.569,2.569,0,0,1,.977-1.656,13.786,13.786,0,0,1,2.437-.94,19.538,19.538,0,0,1,1.181-2.828,15.742,15.742,0,0,1-1.048-2.375A2.422,2.422,0,0,1,4.269,25.9q1.977-1.979,3.956-3.956a2.422,2.422,0,0,1,2.274-.7,19.694,19.694,0,0,1,2.252,1.027,20.532,20.532,0,0,1,2.835-1.188,9.176,9.176,0,0,1,1.068-2.594,2.435,2.435,0,0,1,1.926-.81q2.749,0,5.5,0a2.425,2.425,0,0,1,2.063.978,12.045,12.045,0,0,1,.937,2.428,27.293,27.293,0,0,1,2.884,1.185c.993-.442,1.952-1.246,3.106-1.05.928.117,1.531.9,2.157,1.507q2.575,0,5.154,0,0-8.956,0-17.908c-1.817-.014-3.633-.008-5.451,0a3.8,3.8,0,0,1-2.77,2.45A3.662,3.662,0,0,1,28.6,1.336,3.858,3.858,0,0,1,31.055,0m-.082,2.364A1.378,1.378,0,1,0,32.736,4.1a1.388,1.388,0,0,0-1.763-1.734m22.833-.035A1.377,1.377,0,1,0,55.449,4.1a1.387,1.387,0,0,0-1.642-1.772m20.123.018a1.378,1.378,0,1,0,1.732,1.683,1.39,1.39,0,0,0-1.732-1.683M17.34,22.521c-.558.724-1.513.846-2.3,1.2-.879.335-1.72,1-2.718.785a15.391,15.391,0,0,1-2.372-1.057q-2.089,2.084-4.174,4.174a11.275,11.275,0,0,1,1.079,2.527c.133.943-.492,1.723-.8,2.558-.353.789-.475,1.749-1.2,2.308a11.181,11.181,0,0,1-2.567,1.044c0,1.961.011,3.921,0,5.884.724.3,1.5.457,2.207.8a2.6,2.6,0,0,1,1.226,1.641c.27.9.753,1.712,1.074,2.588.373,1.257-.561,2.319-1.009,3.408q2.086,2.089,4.174,4.176a15.687,15.687,0,0,1,2.378-1.06c.992-.21,1.83.446,2.7.783.823.361,1.831.5,2.38,1.292a11.687,11.687,0,0,1,.949,2.459c1.982.021,3.964.026,5.946,0a11.435,11.435,0,0,1,.946-2.459c.57-.82,1.622-.937,2.468-1.327.8-.306,1.555-.9,2.46-.765a11.234,11.234,0,0,1,2.53,1.08q2.091-2.086,4.176-4.176a15.36,15.36,0,0,1-1.057-2.369c-.218-1,.449-1.839.783-2.719.36-.818.5-1.822,1.283-2.367a11.006,11.006,0,0,1,2.46-.946c.044-1.958.03-3.918.008-5.874a6.6,6.6,0,0,0-1.517-.579,2.5,2.5,0,0,1-1.737-1.49,20.886,20.886,0,0,0-1.025-2.485A2.406,2.406,0,0,1,36,29.44c.276-.619.617-1.207.888-1.828-1.4-1.386-2.782-2.78-4.174-4.168A15.043,15.043,0,0,1,30.341,24.5c-1,.215-1.839-.449-2.716-.785-.791-.352-1.749-.475-2.308-1.205a9.909,9.909,0,0,1-1.007-2.537c-1.974-.044-3.949,0-5.923-.023a11.339,11.339,0,0,1-1.047,2.569M30.971,73.032a1.377,1.377,0,1,0,1.8,1.61,1.388,1.388,0,0,0-1.8-1.61m20.246-.018a1.378,1.378,0,1,0,1.77,1.176,1.384,1.384,0,0,0-1.77-1.176m22.582.047a1.378,1.378,0,1,0,1.9,1.127A1.383,1.383,0,0,0,73.8,73.061Z" fill="#0065bb"/>
  <path id="Path_399" data-name="Path 399" d="M60.181,165.82a12.311,12.311,0,0,1,13.314,16.661,12.318,12.318,0,0,1-23.642-2.652,12.278,12.278,0,0,1,1.891-8.589,1.017,1.017,0,0,1,1.611,0,1.093,1.093,0,0,1-.037,1.32,10.284,10.284,0,1,0,3.44-3.375,1.369,1.369,0,0,1-.984.293,1.026,1.026,0,0,1-.8-1.3,1.327,1.327,0,0,1,.729-.753A12.365,12.365,0,0,1,60.181,165.82Z" transform="translate(-40.717 -138.992)" fill="#0065bb"/>
  <path id="Path_402" data-name="Path 402" d="M103.646,215.559a5.536,5.536,0,1,1,2.278,10.829,5.534,5.534,0,0,1-5.857-8.034,5.581,5.581,0,0,1,3.579-2.795m.819,1.919a3.493,3.493,0,1,0,3.948,2.921A3.513,3.513,0,0,0,104.465,217.478Z" transform="translate(-83.427 -181.715)" fill="#0065bb"/>
</svg>
