<svg xmlns="http://www.w3.org/2000/svg" width="77" height="77" viewBox="0 0 77 77">
  <g id="انتشارات" transform="translate(6949.5 -9276)">
    <path id="Path_375" data-name="Path 375" d="M57.51,0h49.362a6.776,6.776,0,0,1,5,2.423C113.329,1.5,114.617.09,116.493,0h.458A4.158,4.158,0,0,1,120.9,3.678v.536a4.291,4.291,0,0,1-1.035,2.346c-2.223,2.808-4.5,5.581-6.683,8.415-.064,2.635-.008,5.277-.026,7.913q0,12.217,0,24.434-1.294,0-2.584,0-.007-14.559,0-29.117-1.418,1.772-2.831,3.55A50.57,50.57,0,0,1,92.636,34.569a1.467,1.467,0,0,0-.632.539q-2.365,3.9-4.742,7.793a1.537,1.537,0,0,1-1.218.783c-3.716.4-7.436.774-11.154,1.173a1.6,1.6,0,0,1-1.436-.4,1.425,1.425,0,0,1-.283-1.227q.561-4.694,1.112-9.389a7.588,7.588,0,0,1,.242-1.5,1.763,1.763,0,0,1,.927-.85c2.5-1.335,5-2.685,7.506-4.023.405-.222.887-.4,1.1-.82A49.3,49.3,0,0,1,97.244,12.744c4.167-2.959,8.355-5.892,12.529-8.843a4.138,4.138,0,0,0-3.226-1.472q-24.291-.013-48.583,0a4.294,4.294,0,0,0-2.835.883,3.606,3.606,0,0,0-1.359,2.936q0,20.539,0,41.077-1.291,0-2.584,0,0-20.467,0-40.932a6.066,6.066,0,0,1,1.459-4.128A6.77,6.77,0,0,1,57.51,0m58.083,2.835q-4.975,3.5-9.945,7.006c-3.2,2.289-6.5,4.47-9.565,6.917-.808.712-1.622,1.42-2.424,2.14-.811.8-1.6,1.625-2.4,2.44-.787.9-1.537,1.819-2.309,2.726q3.168,2.986,6.349,5.963a52.44,52.44,0,0,0,4.162-3.26A48.449,48.449,0,0,0,103,23.392c2.245-2.456,4.25-5.093,6.327-7.674Q113.415,10.6,117.5,5.48a3.039,3.039,0,0,0,.793-1.344A1.519,1.519,0,0,0,117.14,2.5a1.8,1.8,0,0,0-1.548.34M86.372,27.708l5.043,4.745q.862-.508,1.719-1.021Q90.3,28.762,87.458,26.1q-.547.8-1.086,1.61M76.932,33.5c-.278,2.289-.545,4.581-.816,6.872,1.188-1.118,2.381-2.23,3.563-3.353A2.453,2.453,0,0,1,81.852,34a2.522,2.522,0,0,1,2.887,2.555,2.575,2.575,0,0,1-3.229,2.187c-1.2,1.11-2.378,2.232-3.568,3.349q3.656-.38,7.309-.765c1.448-2.386,2.9-4.766,4.35-7.152q-2.526-2.378-5.056-4.752C82.005,30.778,79.474,32.148,76.932,33.5Z" transform="translate(-6993.405 9276)" fill="#0065bb"/>
    <path id="Path_379" data-name="Path 379" d="M.917,55.519A6.5,6.5,0,0,1,4.811,52.57q.323,1.242.636,2.486A3.947,3.947,0,0,0,2.57,58.841q-.014,19.36,0,38.719,35.934,0,71.866,0,0-19.21,0-38.424a4.958,4.958,0,0,0-.51-2.253q1.105-.649,2.218-1.291A6.941,6.941,0,0,1,77,58.649V104.09a6.682,6.682,0,0,1-1.951,4.535,6.393,6.393,0,0,1-3.331,1.725,16.231,16.231,0,0,1-2.684.121q-11.166,0-22.336,0,1.491,4.519,2.99,9.037c.976.006,1.954,0,2.93,0,0,.86,0,1.719,0,2.58H24.381c0-.861,0-2.58,0-2.58s1.952,0,2.93,0q1.491-4.519,2.99-9.037-11.618,0-23.237,0a7.358,7.358,0,0,1-3.519-.705A6.562,6.562,0,0,1,0,104.111V58.694a6.747,6.747,0,0,1,.917-3.175m1.65,44.625c0,1.268-.009,2.536,0,3.806a3.972,3.972,0,0,0,.907,2.55,3.9,3.9,0,0,0,3.133,1.386q31.884,0,63.772,0a3.939,3.939,0,0,0,2.534-.807,3.9,3.9,0,0,0,1.505-2.99c.027-1.317,0-2.632.011-3.947q-35.934,0-71.866,0m30.441,10.33q-1.489,4.519-2.99,9.037,8.482,0,16.964,0-1.493-4.519-2.99-9.039Q38.5,110.468,33.008,110.474Z" transform="translate(-6949.5 9230.905)" fill="#0065bb"/>
    <path id="Path_629" data-name="Path 629" d="M94.039,334.31c5.152.066,10.311.009,15.466.028a1.185,1.185,0,0,0,1.278-.914,1.147,1.147,0,0,0-1.114-1.379q-7.679-.021-15.36,0a1.152,1.152,0,0,0-1.175,1.376A1.134,1.134,0,0,0,94.039,334.31Z" transform="translate(-7028.452 8963.483)" fill="#0065bb"/>
    <path id="Path_630" data-name="Path 630" d="M93.764,365.755a1.693,1.693,0,0,0,.726.124q11.345-.007,22.689,0a1.155,1.155,0,1,0,.023-2.3q-11.435,0-22.873,0a1.149,1.149,0,0,0-.565,2.177Z" transform="translate(-7028.485 8927.14)" fill="#0065bb"/>
  </g>
</svg>
