<svg xmlns="http://www.w3.org/2000/svg" xmlns:xlink="http://www.w3.org/1999/xlink" width="84.835" height="77.786" viewBox="0 0 84.835 77.786">
  <defs>
    <clipPath id="clip-path">
      <rect id="Rectangle_528" data-name="Rectangle 528" width="84.835" height="77.786" fill="#0065bb"/>
    </clipPath>
  </defs>
  <g id="پروفایل_اساتید" data-name="پروفایل اساتید" transform="translate(0 0)">
    <g id="Group_429" data-name="Group 429" transform="translate(0 0)" clip-path="url(#clip-path)">
      <path id="Path_628" data-name="Path 628" d="M80.241.452a12.557,12.557,0,0,0-4.59-.44H68.8a1.451,1.451,0,0,0-1.383,1.446A1.41,1.41,0,0,0,68.8,2.9h5.6c.126,0,.189.063.314,0h3.081A4.16,4.16,0,0,1,82,7.055V52.33a4.213,4.213,0,0,1-4.213,4.213h-43.7a.937.937,0,0,1-.566-.252,22.187,22.187,0,0,0-5.408-2.83,14.854,14.854,0,0,0,7.42-7.86A16,16,0,0,0,32.89,29.315a14.7,14.7,0,0,0-7.42-4.653c-.063-5.722,0-11.382,0-17.1a5.061,5.061,0,0,1,.314-2.138,4.187,4.187,0,0,1,3.9-2.578H58.106A1.4,1.4,0,0,0,59.49,1.458,1.41,1.41,0,0,0,58.106.012H29.872a6.822,6.822,0,0,0-4.9,1.824A7.092,7.092,0,0,0,22.64,7.055V24.1a15.706,15.706,0,0,0-10.879,3.081A16.058,16.058,0,0,0,6.731,45.225a15.359,15.359,0,0,0,7.546,8.238,21.238,21.238,0,0,0-5.848,3.207l-.44.314-.126.126A1.438,1.438,0,0,0,7.989,59a1.484,1.484,0,0,0,1.006.44,1.242,1.242,0,0,0,.88-.377c.063,0,.063,0,.126-.063v-.063a18.7,18.7,0,0,1,8.615-3.584c-1.446,4.025-2.955,8.049-4.4,12.073,0,.126-.063.252-.063.377a1.41,1.41,0,0,0,1.383,1.446H26.916a.8.8,0,0,0,.377-.063,1.426,1.426,0,0,0,.88-1.824c-1.446-4.024-2.893-7.986-4.339-12.011A18.347,18.347,0,0,1,39.556,73.522a1.356,1.356,0,0,1-1.383,1.383H33.959v-2.83A1.422,1.422,0,0,0,32.7,70.692a1.4,1.4,0,0,0-1.572,1.195c-.063,1.006,0,2.012,0,3.018H11.322v-2.83a1.422,1.422,0,0,0-1.258-1.383,1.4,1.4,0,0,0-1.572,1.195c-.063,1.006,0,2.012,0,3.018H4.216a1.4,1.4,0,0,1-1.383-1.383A18.149,18.149,0,0,1,4.97,64.97l.189-.377a1.836,1.836,0,0,0,.126-.566A1.4,1.4,0,0,0,3.9,62.643H3.776a1.142,1.142,0,0,0-1.006.5l-.252.44a.231.231,0,0,0-.063.189A20.233,20.233,0,0,0,0,73.711a4.254,4.254,0,0,0,2.641,3.71,6.992,6.992,0,0,0,3.018.314h32.51A4.237,4.237,0,0,0,42.386,73.9a20.967,20.967,0,0,0-5.408-14.526h5.471a6.992,6.992,0,0,0,.314,3.018,4.245,4.245,0,0,0,3.9,2.641h5.659v3.081a4.466,4.466,0,0,0-2.327,1.949A4.405,4.405,0,0,0,51,75.346a4.273,4.273,0,0,0,5.471,0,4.421,4.421,0,0,0,1.006-5.219,4.308,4.308,0,0,0-2.327-2.012c-.063-1.006,0-2.075,0-3.081H61a4.254,4.254,0,0,0,3.71-2.641,6.992,6.992,0,0,0,.314-3.018H77.914a7.087,7.087,0,0,0,6.917-7.232V7.055a7.128,7.128,0,0,0-4.59-6.6m-55.4,65.964H17.61c1.195-3.27,2.327-6.54,3.584-9.873h.063c1.195,3.333,2.39,6.6,3.584,9.873M21.194,52.268a12.426,12.426,0,0,1-7.86-2.7,12.964,12.964,0,0,1-4.716-8.175,12.7,12.7,0,0,1,10.753-14.4,13.328,13.328,0,0,1,6.98.943,12.362,12.362,0,0,1,5.974,5.345,13.356,13.356,0,0,1,.943,10.187A11.958,11.958,0,0,1,28.614,50a13.553,13.553,0,0,1-7.42,2.264M54.711,73.082a.864.864,0,0,1-.5.314,1.369,1.369,0,0,1-1.824-.817,1.426,1.426,0,0,1,.88-1.824,1.368,1.368,0,0,1,1.446.314,1.4,1.4,0,0,1,0,2.012m7.483-11.948A1.5,1.5,0,0,1,60.622,62.2H46.85a1.5,1.5,0,0,1-1.572-1.069,8.24,8.24,0,0,1,0-1.761H62.194a16.434,16.434,0,0,1,0,1.761" transform="translate(-0.003 0.003)" fill="#0065bb"/>
      <path id="Path_631" data-name="Path 631" d="M249.008,116.056a2.991,2.991,0,0,1,.788-.076c7.134.012,14.268-.008,21.4.01a1.359,1.359,0,1,1-.178,2.709h-21.4a1.365,1.365,0,0,1-.611-2.643Z" transform="translate(-205.672 -102.514)" fill="#0065bb"/>
      <path id="Path_632" data-name="Path 632" d="M225,172.06a2.892,2.892,0,0,1,.784-.08c9.85.012,19.7-.008,29.554.01a1.358,1.358,0,1,1-.165,2.709H225.615A1.364,1.364,0,0,1,225,172.06Z" transform="translate(-185.75 -149.008)" fill="#0065bb"/>
      <path id="Path_633" data-name="Path 633" d="M264.995,228.056a3.055,3.055,0,0,1,.8-.076c5.32.012,10.638-.008,15.957.01a1.358,1.358,0,1,1-.165,2.709c-5.388-.005-10.775.01-16.163-.008a1.288,1.288,0,0,1-1.28-1.018A1.352,1.352,0,0,1,264.995,228.056Z" transform="translate(-218.944 -195.503)" fill="#0065bb"/>
      <path id="Path_634" data-name="Path 634" d="M233,284.06a2.93,2.93,0,0,1,.808-.08c8.94.012,17.882-.009,26.824.01a1.358,1.358,0,1,1-.18,2.709H233.623A1.365,1.365,0,0,1,233,284.06Z" transform="translate(-192.39 -241.998)" fill="#0065bb"/>
    </g>
  </g>
</svg>
