<svg xmlns="http://www.w3.org/2000/svg" width="77.833" height="77.786" viewBox="0 0 77.833 77.786">
  <g id="صندوق_رفاه_هیئت_علمی" data-name="صندوق رفاه هیئت علمی" transform="translate(0 -0.313)">
    <path id="Path_569" data-name="Path 569" d="M54.833,2.434A34.844,34.844,0,0,1,87.821,7.363a1.19,1.19,0,0,1,.541.958,1.147,1.147,0,0,1-1.091,1.155c-.508.027-.891-.353-1.275-.623A32.433,32.433,0,0,0,35.071,41.637a1.9,1.9,0,0,0,2.484,1.339,1.955,1.955,0,0,0,1.186-2.349A28.648,28.648,0,0,1,94.518,27.653a1.133,1.133,0,0,1-.871,1.43c-.651.074-1.3-.079-1.953-.009a1.383,1.383,0,0,0-1.117,1.145,1.722,1.722,0,0,0,.283,1.122c1.438,2.726,2.837,5.473,4.284,8.192a1.368,1.368,0,0,0,2.289.084c1.715-2.654,3.4-5.327,5.1-7.993a1.386,1.386,0,0,0-.714-2.1c-.792-.166-1.614-.036-2.408-.193a1.246,1.246,0,0,1-.842-1.09A32.3,32.3,0,0,0,89.981,12.3a1.215,1.215,0,0,1-.348-1.467,1.14,1.14,0,0,1,1.815-.29,34.67,34.67,0,0,1,9.218,16.6,5.415,5.415,0,0,1,2.347.409,3.806,3.806,0,0,1,2.052,2.925v.581a4.082,4.082,0,0,1-.642,1.839q-2.394,3.767-4.793,7.528a4.446,4.446,0,0,1-1.212,1.388,3.683,3.683,0,0,1-4.208,0,4.03,4.03,0,0,1-1.285-1.576q-1.9-3.655-3.805-7.306a6.313,6.313,0,0,1-.8-1.961,3.674,3.674,0,0,1,1.02-3.127,3.8,3.8,0,0,1,2.536-1.1A26.375,26.375,0,0,0,41,40.335a4.223,4.223,0,0,1-2.039,4.5A4.175,4.175,0,0,1,32.835,42.1a35.07,35.07,0,0,1,.6-16.6,34.9,34.9,0,0,1,21.4-23.073Z" transform="translate(-27.233 0)" fill="#0065bb"/>
    <path id="Path_570" data-name="Path 570" d="M210.709,77.272a3.628,3.628,0,0,1,4.229.038A3.916,3.916,0,0,1,216.4,79.62a6.3,6.3,0,0,1,3.016,2.186,3.617,3.617,0,0,1-4.488,5.234c-.622-.233-1.078-.86-1.792-.827-.284.036-.775-.062-.825.328,1.3.862,2.911,1.058,4.317,1.706a7.734,7.734,0,0,1,4.316,4.82A8.373,8.373,0,0,1,219.4,100.6a8.964,8.964,0,0,1-2.989,2.387,3.621,3.621,0,0,1-5.687,2.7,3.841,3.841,0,0,1-1.5-2.285,11.121,11.121,0,0,1-3.171-1.552,3.616,3.616,0,0,1,3.046-6.424c.917.185,1.564,1.028,2.516,1.095a7.314,7.314,0,0,0,1.459-.006,1.235,1.235,0,0,0,.955-1.288c-.044-.284-.366-.363-.588-.468a20.888,20.888,0,0,1-6.006-2.964,6.758,6.758,0,0,1-2.317-6.017,7.522,7.522,0,0,1,4.076-5.956,3.732,3.732,0,0,1,1.519-2.548M212.26,79a1.43,1.43,0,0,0-.8,1.473,1.218,1.218,0,0,1-.9,1.247,5.265,5.265,0,0,0-2.987,6.342,4.215,4.215,0,0,0,1.76,2.306,22.868,22.868,0,0,0,5,2.3,2.866,2.866,0,0,1,1.879,1.92,3.529,3.529,0,0,1-2.028,3.962,6.154,6.154,0,0,1-2.881.23,5.417,5.417,0,0,1-2.428-.985,1.333,1.333,0,0,0-1.455,2.235,8.426,8.426,0,0,0,2.657,1.24,1.72,1.72,0,0,1,1.155.549,1.8,1.8,0,0,1,.243,1.019,1.309,1.309,0,0,0,1.044,1.2,1.341,1.341,0,0,0,1.494-.766c.251-.535-.04-1.192.313-1.7.252-.4.748-.483,1.14-.686a6.181,6.181,0,0,0,3.4-6.655,5.509,5.509,0,0,0-3.259-3.937,34.5,34.5,0,0,1-4.155-1.587,2.786,2.786,0,0,1-1.313-1.42,2.58,2.58,0,0,1,1.2-2.989,4.158,4.158,0,0,1,4.284.531,1.334,1.334,0,0,0,2.043-1c.1-.971-.882-1.484-1.607-1.867-.526-.321-1.227-.33-1.655-.8-.424-.453-.129-1.149-.473-1.642A1.345,1.345,0,0,0,212.26,79Z" transform="translate(-173.459 -64.699)" fill="#0065bb"/>
    <path id="Path_571" data-name="Path 571" d="M36.288,295.718a7.821,7.821,0,0,1,10.232,7.78,8.413,8.413,0,0,1-1.937,4.915,6.941,6.941,0,0,1-3.445,2.2c1.131.154,2.25.4,3.382.521,1.373-.6,2.7-1.3,4.06-1.929q8.873-4.271,17.744-8.548a8.128,8.128,0,0,1,8.376.984,8.229,8.229,0,0,1,3.132,6.181v.185a8.222,8.222,0,0,1-2.431,5.809,9.229,9.229,0,0,1-2.645,1.779q-8.925,4.371-17.848,8.749a41.056,41.056,0,0,1-6.561,2.84,28.417,28.417,0,0,1-6.73,1.095H1.143A1.332,1.332,0,0,1,0,327.3V303.843a1.178,1.178,0,0,1,1.21-.982c3.439-.009,6.879,0,10.319,0a10.478,10.478,0,0,1,7.38-7.02c.567-.111,1.216-.389,1.759-.058a1.142,1.142,0,0,1,.325,1.649c-.318.462-.923.461-1.412.594a8.1,8.1,0,0,0-6.157,6.99c-.014,6.979,0,13.96-.006,20.94q12.9,0,25.8,0c1.014,0,2.028.014,3.042-.03a22.4,22.4,0,0,0,6.782-1.377c1.993-.754,3.858-1.794,5.781-2.7q8.77-4.305,17.54-8.61a5.838,5.838,0,0,0-2.885-11.03,6.467,6.467,0,0,0-2.791.8q-10.663,5.147-21.327,10.281c-.631.368-1.351.068-2.019-.008-2.337-.356-4.662-.807-7.007-1.108-2.622.777-5.217,1.662-7.83,2.481-.552.149-1.152.5-1.718.216a1.145,1.145,0,0,1-.47-1.621c.283-.483.886-.558,1.368-.727,4.407-1.415,8.819-2.817,13.223-4.243a5.151,5.151,0,0,0,3.051-3.367,5.539,5.539,0,0,0-6.765-7.083c-2.856.9-5.7,1.827-8.557,2.732a1.185,1.185,0,0,1-1.257-.275,8.3,8.3,0,0,0-2.709-1.847c-.468-.182-1.038-.382-1.175-.929a1.137,1.137,0,0,1,1.3-1.447,10.661,10.661,0,0,1,3.749,2.148c2.577-.848,5.164-1.662,7.745-2.492M2.282,305.139q0,10.409,0,20.817,4.421,0,8.846,0c.006-6.938-.078-13.878-.032-20.816Q6.69,305.136,2.282,305.139Z" transform="translate(0 -250.177)" fill="#0065bb"/>
  </g>
</svg>
