<svg xmlns="http://www.w3.org/2000/svg" width="79.019" height="78.28" viewBox="0 0 79.019 78.28">
  <g id="ایمیل_دانشجویان" data-name="ایمیل دانشجویان" transform="translate(16584.232 3742)">
    <g id="Group_391" data-name="Group 391" transform="translate(-16584.232 -3742)">
      <g id="_000000ff" data-name="#000000ff" transform="translate(0 0)">
        <path id="Path_75" data-name="Path 75" d="M67.519,0h1.107a6.29,6.29,0,0,1,3.3,1.352q5.665,4.878,11.321,9.77,5.882,0,11.767,0a6.159,6.159,0,0,1,3.855,1.245,4.745,4.745,0,0,1,1.913,3.686c-.005.971.036,1.942-.019,2.911a1.346,1.346,0,0,1-2.087.745c-.7-.472-.457-1.316-.5-1.981-.052-.963.193-2.009-.361-2.894a3.16,3.16,0,0,0-2.792-1.419q-27.014,0-54.028,0a2.88,2.88,0,0,0-2.992,2.63c-.005,6.617-.016,13.233,0,19.85Q49.858,46.277,61.675,56.68c1.3-.609,2.575-1.257,3.876-1.861a6.239,6.239,0,0,1,5.073-.006c1.306.6,2.585,1.246,3.879,1.867Q86.345,46.3,98.173,35.9c.023-4.073-.009-8.146.014-12.219a1.235,1.235,0,0,1,1.346-1.131,1.218,1.218,0,0,1,1.244,1.144c.026.858,0,1.717.007,2.575,1.367,1.2,2.752,2.381,4.126,3.573a9.98,9.98,0,0,1,1.883,1.864,4.661,4.661,0,0,1,.8,2.7V73.236a4.726,4.726,0,0,1-1.859,3.781,6.408,6.408,0,0,1-3.19,1.263H87.713a1.284,1.284,0,0,1-1.058-1.067,1.248,1.248,0,0,1,1.416-1.225c4.635-.008,9.27.006,13.906-.006A3.012,3.012,0,0,0,104.91,74q-17.593-8.522-35.2-17.027a3.421,3.421,0,0,0-3.134-.046C54.812,62.638,43.016,68.3,31.263,74.027a3.065,3.065,0,0,0,2.95,1.957q23.981.014,47.963.006c.829-.073,1.574.66,1.369,1.378a1.373,1.373,0,0,1-.985.913H33.66a6.628,6.628,0,0,1-2.649-.871,4.789,4.789,0,0,1-2.424-4.026q-.01-10.469,0-20.937a1.171,1.171,0,0,1,.8-1.177,1.3,1.3,0,0,1,1.789,1c.03,6.383,0,12.768.014,19.153Q41.827,66.292,52.45,61.147c2.271-1.119,4.585-2.176,6.829-3.336q-13.96-12.242-27.907-24.5a7.294,7.294,0,0,0-.182,2.313c0,3.877.005,7.755,0,11.632a1.3,1.3,0,0,1-2.6-.018q-.005-6.5,0-13a4.714,4.714,0,0,1,1.647-3.5c1.713-1.5,3.45-2.972,5.162-4.471.005-3.457-.014-6.914.01-10.371.036-2.514,2.564-4.735,5.419-4.77,4.036-.023,8.073-.006,12.109-.009,3.784-3.244,7.538-6.513,11.317-9.762A6.3,6.3,0,0,1,67.519,0M66.1,2.98q-4.722,4.064-9.43,8.14,11.422,0,22.843,0Q74.854,7.073,70.172,3.05A3.293,3.293,0,0,0,66.1,2.98M33.042,31.525c.787.688,1.569,1.379,2.354,2.067q0-2.048,0-4.1-1.181,1.011-2.354,2.029m67.746-2.033q-.005,2.05,0,4.1,1.178-1.032,2.352-2.067-1.17-1.023-2.352-2.035M76.906,57.807c2.842,1.449,5.758,2.795,8.628,4.2q9.731,4.7,19.458,9.4V34.4a3.444,3.444,0,0,0-.188-1.082Q90.839,45.547,76.906,57.807Z" transform="translate(-28.58)" fill="#0065bb"/>
        <path id="Path_76" data-name="Path 76" d="M186.622,132.3a11.832,11.832,0,0,1,15.486,2.883,10.849,10.849,0,0,1,2.288,5.647,11.464,11.464,0,0,1-.951,5.336,5.376,5.376,0,0,1-3.184,3.078,3.648,3.648,0,0,1-4.692-1.775,4.808,4.808,0,0,1-3.7,1.476,5.167,5.167,0,0,1-3.706-2.017,7.432,7.432,0,0,1-.3-8.7,5.521,5.521,0,0,1,4.337-2.319,4.914,4.914,0,0,1,3.009.987,1.555,1.555,0,0,1,.577-1.581,1.178,1.178,0,0,1,1.774.982c0,3.136-.039,6.273-.034,9.408a1.354,1.354,0,0,0,1.247,1.434,2.8,2.8,0,0,0,2.465-1.786,8.752,8.752,0,0,0,.556-5.748,9.471,9.471,0,0,0-16.3-3.283,9.555,9.555,0,0,0-2.214,6.867,9.449,9.449,0,0,0,2.78,5.964,9.559,9.559,0,0,0,6.29,2.761,1.206,1.206,0,0,1,1.263,1.15,1.181,1.181,0,0,1-1.26,1.2,11.838,11.838,0,0,1-5.737-21.968m4.7,6.125a3.658,3.658,0,0,0-2.2,2.568,5.517,5.517,0,0,0,.3,3.574,3.4,3.4,0,0,0,2.272,1.993,2.477,2.477,0,0,0,2.341-.9,5.307,5.307,0,0,0,1.134-3.892,4.2,4.2,0,0,0-1.291-2.91A2.58,2.58,0,0,0,191.318,138.423Z" transform="translate(-153.157 -110.829)" fill="#0065bb"/>
      </g>
    </g>
  </g>
</svg>
