<svg xmlns="http://www.w3.org/2000/svg" width="87.371" height="78" viewBox="0 0 87.371 78">
  <g id="ایمیل_اساتید" data-name="ایمیل اساتید" transform="translate(-1067.474 -267.859)">
    <path id="Path_600" data-name="Path 600" d="M53.248,54.884Q50.7,57.12,48.157,59.366l-2.4-1.125,5.894-5.184a1.208,1.208,0,0,1,1.885.4l.011.022a1.186,1.186,0,0,1-.3,1.407" transform="translate(1068.506 266.612)" fill="#0065bb"/>
    <path id="Path_601" data-name="Path 601" d="M71.933,18.376a4.7,4.7,0,0,0-1.9-3.671,6.07,6.07,0,0,0-3.844-1.237H54.458Q48.829,8.59,43.179,3.733A6.236,6.236,0,0,0,39.9,2.383h-1.1a6.344,6.344,0,0,0-3.253,1.35c-3.763,3.241-7.505,6.493-11.279,9.735-4.028,0-8.046-.02-12.065,0-2.843.041-5.369,2.25-5.4,4.755-.031,3.446-.01,6.892-.01,10.338-1.708,1.483-3.436,2.965-5.143,4.448A4.7,4.7,0,0,0,.007,36.5q-.015,6.488,0,12.956a1.3,1.3,0,0,0,2.588.02c.01-3.865,0-7.73,0-11.6a7.257,7.257,0,0,1,.184-2.3q13.9,12.209,27.812,24.408c-2.239,1.155-4.54,2.209-6.81,3.323Q13.2,68.444,2.605,73.552c-.02-6.36.01-12.72-.02-19.081a1,1,0,0,0-.082-.307,1.3,1.3,0,0,0-1.7-.7,1.164,1.164,0,0,0-.8,1.176q-.015,10.43,0,20.86a4.756,4.756,0,0,0,2.414,4.008,6.7,6.7,0,0,0,2.638.869H46.724a1.14,1.14,0,0,0,.007-2.28c-13.25,0-27.968,0-41.13-.01a3.042,3.042,0,0,1-2.935-1.953C14.374,70.433,26.133,64.8,37.852,59.1a3.414,3.414,0,0,1,3.129.051c2.832,1.37,6.675,3.336,9.722,4.833a1.181,1.181,0,0,0,1.055-2.114c-1.207-.621-2.772-1.46-3.61-1.891.01-.01-2.361-1.166-2.361-1.166-.011.02-2.609-1.227-3.906-1.82a6.212,6.212,0,0,0-5.052,0c-1.3.6-2.567,1.248-3.865,1.861Q21.184,48.49,9.384,38.152q-.015-9.893,0-19.786a2.882,2.882,0,0,1,2.986-2.618H66.2a3.165,3.165,0,0,1,2.792,1.411c.552.879.308,11.125.358,12.086.031.665-.2,1.5.492,1.974a1.324,1.324,0,0,0,2.075-.736c.061-.971.02-11.136.02-12.107M6.788,35.851c-.777-.685-1.564-1.37-2.343-2.055.778-.675,1.555-1.35,2.343-2.025Zm21.2-22.394q4.692-4.065,9.4-8.109a3.274,3.274,0,0,1,4.061.072q4.663,4,9.3,8.037Z" transform="translate(1067.475 265.476)" fill="#0065bb"/>
    <path id="Path_602" data-name="Path 602" d="M33.947,24.96a10.7,10.7,0,0,1,14.008,2.607,9.82,9.82,0,0,1,2.069,5.109,10.359,10.359,0,0,1-.861,4.825,4.86,4.86,0,0,1-2.879,2.783,3.3,3.3,0,0,1-4.243-1.606,4.345,4.345,0,0,1-3.348,1.335,4.671,4.671,0,0,1-3.352-1.823,6.725,6.725,0,0,1-.27-7.865,5,5,0,0,1,3.924-2.093,4.438,4.438,0,0,1,2.721.893,1.406,1.406,0,0,1,.521-1.431,1.064,1.064,0,0,1,1.6.889c0,2.837-.035,5.674-.031,8.51a1.224,1.224,0,0,0,1.128,1.3,2.537,2.537,0,0,0,2.23-1.616,7.918,7.918,0,0,0,.5-5.2,8.568,8.568,0,1,0-8.538,11.133,1.089,1.089,0,0,1,1.142,1.037v0a1.068,1.068,0,0,1-1.049,1.087c-.03,0-.06,0-.091,0a10.707,10.707,0,0,1-5.188-19.87ZM38.193,30.5a3.309,3.309,0,0,0-1.986,2.326,5,5,0,0,0,.27,3.233,3.074,3.074,0,0,0,2.055,1.8,2.239,2.239,0,0,0,2.118-.814,4.8,4.8,0,0,0,1.027-3.521A3.8,3.8,0,0,0,40.513,30.9a2.333,2.333,0,0,0-2.32-.4" transform="translate(1068.123 265.95)" fill="#0065bb"/>
    <path id="Path_603" data-name="Path 603" d="M67.5,59.063a13.865,13.865,0,0,1-6.075-1.4,18.955,18.955,0,0,0-8.174,5.6,18.574,18.574,0,0,0-4.441,12.26,3.764,3.764,0,0,0,2.306,3.306,6.892,6.892,0,0,0,2.684.281q14.384.018,28.743,0a3.769,3.769,0,0,0,3.721-3.416,18.638,18.638,0,0,0-2.379-9.467,16.388,16.388,0,0,0-1.609-2.391c-.012-.025-.025-.037-.025-.049q-.367-.475-.769-.915l-.049-.2a17.026,17.026,0,0,0-2.66-2.33,1.517,1.517,0,0,1-.39-.219,18.509,18.509,0,0,0-4.734-2.452Zm.086,1.329c1.074,2.9,2.111,5.819,3.172,8.723H64.332c1.06-2.916,2.111-5.819,3.171-8.723ZM82.558,76.606c-1.257.025-2.513,0-3.77.012,0-.842.012-1.684,0-2.513a1.243,1.243,0,0,0-2.477-.158c-.048.891,0,1.781-.024,2.672H58.805c-.012-.842.012-1.684-.012-2.526a1.234,1.234,0,0,0-1.061-1.208,1.249,1.249,0,0,0-1.4,1.061c-.049.891,0,1.781-.025,2.672-1.244-.012-2.5.012-3.758-.012a1.239,1.239,0,0,1-1.232-1.244,16.248,16.248,0,0,1,13.92-16.055c-1.28,3.55-2.586,7.1-3.855,10.663a1.137,1.137,0,0,0-.073.366A1.252,1.252,0,0,0,62.539,71.6q5.014.018,10.016,0a1.29,1.29,0,0,0,.378-.06,1.251,1.251,0,0,0,.792-1.586c-1.281-3.55-2.586-7.1-3.867-10.651a16.248,16.248,0,0,1,13.92,16.08,1.24,1.24,0,0,1-1.22,1.22" transform="translate(1068.575 266.723)" fill="#0065bb"/>
    <path id="Path_604" data-name="Path 604" d="M75.579,34.979c-.183-.134-.354-.256-.537-.378a13.628,13.628,0,0,0-6.82-2.318H68.2c-.269-.011-.538-.024-.806-.024a13.628,13.628,0,0,0-7.1,1.988H60.28a13.508,13.508,0,0,0-3.013,2.5,2.138,2.138,0,0,0-.146.171c-.183.208-.354.415-.512.635a14.217,14.217,0,0,0-2.647,10.979c.037.2.086.4.123.6.036.158.073.317.109.475.049.134.085.281.122.415a13.863,13.863,0,0,0,5.795,7.527c.391.244.793.475,1.208.683a13.855,13.855,0,0,0,6.076,1.4,13.693,13.693,0,0,0,8.186-24.656m2.2,15.36a10.14,10.14,0,0,1-1.22,2.232,10.268,10.268,0,0,1-2.574,2.562,12.27,12.27,0,0,1-6.539,2.061,11.241,11.241,0,0,1-1.647-22.362l.012-.012a12.055,12.055,0,0,1,6.149.829c.012,0,.012.012.025.012a9.725,9.725,0,0,1,2.086,1.172,10.133,10.133,0,0,1,3.16,3.538A11.867,11.867,0,0,1,78.1,49.4c-.1.318-.208.635-.329.94" transform="translate(1068.686 266.15)" fill="#0065bb"/>
  </g>
</svg>
