<svg xmlns="http://www.w3.org/2000/svg" width="75.687" height="75.786" viewBox="0 0 75.687 75.786">
  <g id="دفترچه_تلفن" data-name="دفترچه تلفن" transform="translate(-1.748 -1)">
    <path id="Path_1843" data-name="Path 1843" d="M17.452,1H61.317c4.849.583,8.423,3.983,8.684,8.741,1.793.164,3.81.079,5.238,1.379a6.226,6.226,0,0,1,2.194,5.257q-.009,22.5,0,44.994a6.228,6.228,0,0,1-2.236,5.3c-1.428,1.27-3.427,1.185-5.214,1.373-.225,4.734-3.756,8.024-8.514,8.741H17.556c-4.813-.462-8.52-3.7-8.836-8.438-1.835-.109-3.956.243-5.463-1.057a4.3,4.3,0,0,1-.085-6.454c1.531-1.416,3.78-1.009,5.682-1.13q.009-4.056,0-8.125c-1.908-.128-4.181.3-5.706-1.149A4.283,4.283,0,0,1,3,44.241c1.513-1.586,3.883-1.179,5.852-1.313,0-2.686.006-5.378,0-8.07-1.981-.134-4.375.267-5.883-1.349a4.288,4.288,0,0,1,.152-6.144C4.648,25.9,6.939,26.326,8.853,26.2q.009-4.066,0-8.125c-1.9-.128-4.132.28-5.664-1.124a4.281,4.281,0,0,1-.237-6.18c1.471-1.6,3.816-1.24,5.767-1.337C9.03,4.728,12.682,1.523,17.452,1M14.116,4.719a6.106,6.106,0,0,0-3.063,4.737c1.951.085,4.248-.34,5.81,1.112a4.288,4.288,0,0,1,.067,6.308c-1.531,1.513-3.847,1.1-5.8,1.167v8.2c1.975.055,4.327-.365,5.858,1.2a4.285,4.285,0,0,1-.164,6.284c-1.55,1.4-3.78,1.015-5.694,1.088v8.155c1.914.073,4.151-.322,5.7,1.088a4.289,4.289,0,0,1,.14,6.3c-1.531,1.55-3.871,1.136-5.84,1.191v8.2c1.945.061,4.248-.346,5.791,1.155a4.289,4.289,0,0,1-.073,6.326c-1.568,1.44-3.853,1.015-5.8,1.106a6.136,6.136,0,0,0,3.063,4.737c2.407,1.872,5.627,1.4,8.471,1.446.006-19.3-.006-37.6,0-56.9-.079-.778.14-1.981,1.2-1.817,1.033-.067,1.082,1.094,1.076,1.823v56.9q17.365,0,34.73,0a7.53,7.53,0,0,0,7.165-4c1.367-2.522.486-4.475.991-7.168,1.72-1.477,2.4,1.021,2.2,2.382,1.914.073,4.315-.286,4.977-2.407.51-2.923.067-5.925.243-8.879A9.829,9.829,0,0,1,69.9,55.556c-.237,1.264.559,3.318-1.142,3.762-1.155-.158-1.2-1.209-1.179-2.151-.006-15.825.03-31.661-.018-47.486C67.7,5.718,64.173,3.157,60.2,3.3c-11.777-.067-23.561-.012-35.338-.024-.079,3.032.152,5.083-.091,8.109-.359,1.1-2.3.8-2.139-.407-.146-2.9,0-4.8-.049-7.7-2.85.043-6.071-.438-8.471,1.446m-8.9,7.222a1.968,1.968,0,0,0,.334,3.713,82.3,82.3,0,0,0,8.484.055A1.975,1.975,0,0,0,15.8,12.847c-.668-1.337-2.352-1.051-3.573-1.118-2.334.1-4.7-.2-7.007.213m64.648.115q-.009,8.1,0,16.2c1.428-.122,3.13.091,4.205-1.076,1.452-1.361,1.009-3.519,1.088-5.293-.134-2.486.255-5.007-.231-7.457-.675-2.163-3.13-2.473-5.062-2.376M5.122,28.726c-1.623.7-1.361,3.446.438,3.677a75.829,75.829,0,0,0,9.1-.024c2.018-.51,1.592-3.877-.5-3.792a57.488,57.488,0,0,0-9.037.14m64.745,1.793q-.009,5.2,0,10.38c1.945.067,4.43-.267,5.08-2.461.48-2.978.049-6.022.231-9.03a10.36,10.36,0,0,1-5.311,1.112m0,12.652q-.009,5.059,0,10.118c2.024.14,4.661-.34,5.141-2.692.346-2.838.018-5.718.176-8.575a10.6,10.6,0,0,1-5.317,1.149M5.067,45.5c-1.592.741-1.258,3.44.5,3.658a65.52,65.52,0,0,0,9.073-.03,1.971,1.971,0,0,0,.006-3.731,55.454,55.454,0,0,0-9.583.1m.1,16.73a1.97,1.97,0,0,0,.431,3.7,69.143,69.143,0,0,0,8.836-.006c1.945-.207,2.1-3.318.213-3.762A49.407,49.407,0,0,0,5.165,62.235Z" fill="#0065bb"/>
    <path id="Path_1844" data-name="Path 1844" d="M55.822,31.5a9.323,9.323,0,0,1,18.152,4.211,10.56,10.56,0,0,1-3.051,5.372,14.354,14.354,0,0,1,8.07,13c.049,1.452-2.516,1.161-2.194-.273a12.146,12.146,0,0,0-8.028-11.085c-1-.128-2.376-1.434-1.07-2.23,2.71-1.525,4.734-4.54,4.059-7.754a7.045,7.045,0,1,0-12.494,5.518c.833,1.452,3.269,1.7,3.215,3.616C60.714,43,58.55,43.454,57.019,44.955A12.654,12.654,0,0,0,52.8,54.01c.182,1.343-2.224,1.416-2.157.085A14.347,14.347,0,0,1,58.72,41.084,9.613,9.613,0,0,1,55.822,31.5Z" transform="translate(-19.178 -9.642)" fill="#0065bb"/>
    <path id="Path_1845" data-name="Path 1845" d="M51.121,87.367c5.986-.286,12-.03,17.994-.115,3.136.085,6.284-.188,9.407.128a1.172,1.172,0,0,1-.887,2.109c-7.924.091-15.849-.024-23.773.055a10.493,10.493,0,0,1-2.893-.243A1.3,1.3,0,0,1,51.121,87.367Z" transform="translate(-19.168 -34.217)" fill="#0065bb"/>
    <path id="Path_1846" data-name="Path 1846" d="M58.334,100.016c.741-.656,1.847-.334,2.753-.456,5.074.109,10.161-.1,15.235.1,1.373-.213,1.373,2.37,0,2.163-5.494.164-11.006.055-16.505.055A1.263,1.263,0,0,1,58.334,100.016Z" transform="translate(-22.116 -39.057)" fill="#0065bb"/>
  </g>
</svg>
