<svg xmlns="http://www.w3.org/2000/svg" xmlns:xlink="http://www.w3.org/1999/xlink" width="95.032" height="77.797" viewBox="0 0 95.032 77.797">
  <defs>
    <clipPath id="clip-path">
      <rect id="Rectangle_526" data-name="Rectangle 526" width="95.032" height="77.797" transform="translate(0 0)" fill="none"/>
    </clipPath>
  </defs>
  <g id="ویانا_اساتید" data-name="ویانا اساتید" transform="translate(0 0)">
    <g id="Group_426" data-name="Group 426" clip-path="url(#clip-path)">
      <path id="Path_577" data-name="Path 577" d="M56.55,5.5A5.642,5.642,0,0,1,62.027.011Q75.015-.007,88.008,0a5.632,5.632,0,0,1,4.38,2.025A5.722,5.722,0,0,1,93.7,5.857c-.007,4.273.009,8.545-.009,12.818a5.64,5.64,0,0,1-5.171,5.461c-2.227.054-5.2-.013-7.426.011V65.189c1.06,0,3.409-.192,4.468-.192q.008-18.45,0-36.9c-.016-.759.191-1.318,1.021-1.35.773-.029,1.115.447,1.209,1.214a1.382,1.382,0,0,1,0,.334q.007,18.453,0,36.907a31.139,31.139,0,0,1,4.681.152,3.631,3.631,0,0,1,2.561,3.371v1.017a9.18,9.18,0,0,1-4.531,6.94,8.96,8.96,0,0,1-4.562,1.112H8.9A8.7,8.7,0,0,1,3.226,75.78,9.227,9.227,0,0,1,0,69.78V68.742a3.63,3.63,0,0,1,2.563-3.387,31.209,31.209,0,0,1,4.676-.15q.01-21.693,0-43.39a21.6,21.6,0,0,1,.084-2.786,7.208,7.208,0,0,1,3.491-5.14,7.307,7.307,0,0,1,3.838-.987q18.292-.006,36.584,0a7.972,7.972,0,0,1,1.793.089,1.114,1.114,0,0,1,.688,1.425.973.973,0,0,1-.309.457,1.526,1.526,0,0,1-1.13.358H14.41a5.1,5.1,0,0,0-4.724,4.894v.018c0,15.019-.131,30.066-.127,45.088h4.085c.009-6.357-.007-12.714.007-19.07-.021-.765.371-1.409,1.136-1.43s1.187.563,1.207,1.329c0,.025,0,.05,0,.074.017,6.355,0,12.712.007,19.068,3.593,0,7.189.006,10.782,0,.11-1.47.176-2.944.312-4.41a8.1,8.1,0,0,1,6.546-7c2.728-.572,5.462-1.117,8.189-1.706,0-.763,0-1.526.007-2.289a11.833,11.833,0,0,1-2.851-3.109,9.311,9.311,0,0,1-1.2-3.476A3.651,3.651,0,0,1,35.568,40c-.022-2.225-.007-4.451-.006-6.675a8.8,8.8,0,0,1,8.629-8.813c1.483-.019,2.966,0,4.451-.009A5.337,5.337,0,0,1,51.3,25.1c.878.47,1.68,1.21,2.732,1.219a5.96,5.96,0,0,1,5.8,5.717c.026,2.1,0,4.2,0,6.307a6.54,6.54,0,0,1-.449,3.293,3.625,3.625,0,0,1-1.773,1.578,10.184,10.184,0,0,1-.8,2.74A10.81,10.81,0,0,1,53.391,49.9c-.011.728-.009,1.457-.006,2.185q4.229.87,8.449,1.76a8.09,8.09,0,0,1,6.038,5.678,40.029,40.029,0,0,1,.562,5.676q5.3.009,10.6,0,.006-20.519,0-41.04c-.793.059-1.674-.2-2.391.236q-6.306,3.625-12.621,7.229a2.409,2.409,0,0,1-3.514-2.945c.705-1.516,1.474-3.005,2.205-4.512A5.864,5.864,0,0,1,57.3,21.394q-20.3-.018-40.6-.006a.565.565,0,0,0-.686.407A.574.574,0,0,0,16,22c-.019,6.131.006,12.261-.013,18.39a1.281,1.281,0,0,1-1.2,1.472,1.194,1.194,0,0,1-1.236-1.265q0-.065,0-.129c-.015-5.886-.034-11.366-.043-17.252a5.16,5.16,0,0,1,.254-2.107,2.927,2.927,0,0,1,2.721-2.094c13.338,0,26.75.086,40.089.092.007-4.367-.051-9.236-.033-13.6m2.129-.235V18.591a2.993,2.993,0,0,0,2.186,2.922,13.535,13.535,0,0,0,2.922.1c.684-.027,1.542-.034,1.952.624.493.625.162,1.423-.156,2.041-.84,1.619-1.693,3.235-2.429,4.905q6.4-3.652,12.8-7.325a2.811,2.811,0,0,1,1.546-.253q5.6.033,11.207,0A2.978,2.978,0,0,0,91.558,18.6V5.249A2.978,2.978,0,0,0,88.7,2.261q-13.52-.015-27.041,0a2.986,2.986,0,0,0-2.978,2.994v.011M44.2,26.889a6.332,6.332,0,0,0-5.647,4.2,13.277,13.277,0,0,0-.361,4.426c4.181,1.366,8.652-.093,12.36-2.114A4.674,4.674,0,0,1,55,33.083c1.155.478,1.815,1.609,2.849,2.262,0-1.155.023-2.316-.007-3.473a3.293,3.293,0,0,0-1.808-2.74c-.964-.509-2.108-.237-3.11-.62-1.311-.374-2.272-1.627-3.7-1.627-1.672-.007-3.344-.02-5.016.007m6.665,9.133c-3.948,2.021-8.565,3.291-12.976,2.19a5.719,5.719,0,0,0,.117,1.994c.315.538,1.1.24,1.531.649.768.544.542,1.575.735,2.372a8.552,8.552,0,0,0,6.382,6.248,6.319,6.319,0,0,0,5.125-1.438,7.633,7.633,0,0,0,3.33-4.63c.236-.82-.064-1.864.66-2.483.4-.446,1.113-.21,1.534-.594.371-.6.173-1.338.2-1.994a11.22,11.22,0,0,1-3.143-2.177,2.392,2.392,0,0,0-1.378-.9c-.8-.125-1.44.453-2.119.764m-6.42,17.73A3.216,3.216,0,0,0,50.8,53.6c.07-.753.018-1.515.032-2.272a8.745,8.745,0,0,1-6.437-.076,21.316,21.316,0,0,0,.054,2.5m-10.72,2.756a5.364,5.364,0,0,0-4.171,4.594c-.125,1.392-.189,2.788-.3,4.18q18.349.018,36.7,0c-.1-1.369-.172-2.746-.289-4.111a5.368,5.368,0,0,0-4.164-4.664c-2.732-.57-5.465-1.146-8.2-1.7-.338.5-.468,1.163-.865,1.654a5.934,5.934,0,0,1-6.7,2.208A5.688,5.688,0,0,1,42,54.814c-2.768.516-5.518,1.132-8.274,1.7M2.55,68.043a3.661,3.661,0,0,0-.028,2.4,7,7,0,0,0,4.287,4.927,8.7,8.7,0,0,0,2.867.266h76.83c3.09-.036,5.7-2.613,6.176-6.09.069-.665.035-1.564-.576-1.889a5.6,5.6,0,0,0-1.5-.087H62.045a6.3,6.3,0,0,1-3.034,5.044,5.175,5.175,0,0,1-2.687.593c-6.056-.012-12.113.008-18.162-.01a5.792,5.792,0,0,1-5.179-5.631c-9.832.028-19.665,0-29.5.013a.923.923,0,0,0-.939.471m33-.352c.222,1.936,1.309,3.35,2.582,3.36q9.4.012,18.788,0c1.268-.026,2.345-1.44,2.566-3.368q-11.967-.018-23.933,0Z" fill="#0065bb"/>
      <path id="Path_578" data-name="Path 578" d="M65.783,7.158a6.512,6.512,0,0,1,1.134-.048c5.5.009,11.009-.005,16.514.007A1.265,1.265,0,0,1,84.7,8.38a1.292,1.292,0,0,1-.021.232,1.322,1.322,0,0,1-1.435,1.05c-5.727-.008-11.454.02-17.182-.015a1.28,1.28,0,0,1-.278-2.489" fill="#0065bb"/>
      <path id="Path_579" data-name="Path 579" d="M65.633,14.388a2.137,2.137,0,0,1,.8-.108c2.792.007,5.586,0,8.381.006a1.29,1.29,0,0,1,1.338,1.242,1.275,1.275,0,0,1-.027.314,1.344,1.344,0,0,1-1.475,1.014c-2.9-.022-5.811.036-8.713-.029a1.3,1.3,0,0,1-.305-2.439" fill="#0065bb"/>
    </g>
  </g>
</svg>
