<svg xmlns="http://www.w3.org/2000/svg" width="79.565" height="77.786" viewBox="0 0 79.565 77.786">
  <g id="ویانا_دانشجویان" data-name="ویانا دانشجویان" transform="translate(0 -5.747)">
    <path id="Path_565" data-name="Path 565" d="M36.825,6.4a7.074,7.074,0,0,1,6.73.441,7.217,7.217,0,0,1,3.218,4.9,6.156,6.156,0,0,1,4.95,5.8c8.036.008,16.075-.009,24.11.008a3.9,3.9,0,0,1,3.731,3.574V65.631a3.937,3.937,0,0,1-2.3,3.254,6.568,6.568,0,0,1-2.828.336q-13.375,0-26.752,0,.807,2.818,1.622,5.633c1.823.078,3.731-.252,5.472.444a6.633,6.633,0,0,1,4.1,4.936,3.18,3.18,0,0,1-.191,2.269,2.056,2.056,0,0,1-1.8.945q-17.023.044-34.045.082a2.127,2.127,0,0,1-1.675-.547,2.939,2.939,0,0,1-.569-2.416,6.74,6.74,0,0,1,4.894-5.447,24.438,24.438,0,0,1,4.746-.214c.535-1.9,1.075-3.79,1.608-5.686q-13.361,0-26.721,0A6.559,6.559,0,0,1,2.3,68.886,3.945,3.945,0,0,1,0,65.662v-44.6A3.91,3.91,0,0,1,3.728,17.54c8.037-.017,16.076,0,24.114-.008a6.23,6.23,0,0,1,1.389-3.661A6.293,6.293,0,0,1,32.8,11.725,7.142,7.142,0,0,1,36.825,6.4m1.933,1.79a4.727,4.727,0,1,0,5.413,2.866,4.76,4.76,0,0,0-5.413-2.866m-8.586,9.346c1.455.008,2.911,0,4.367,0a7.454,7.454,0,0,1-1.7-3.417,3.884,3.884,0,0,0-2.664,3.413m14.853,0c1.456,0,2.911,0,4.367,0a3.883,3.883,0,0,0-2.664-3.413,7.507,7.507,0,0,1-1.7,3.417M3.307,19.971a1.555,1.555,0,0,0-.974,1.512q0,21.923,0,43.843a1.567,1.567,0,0,0,1.713,1.563H75.525a1.566,1.566,0,0,0,1.7-1.568q.014-21.923,0-43.846a1.543,1.543,0,0,0-1.563-1.607q-35.809-.012-71.621,0a2.13,2.13,0,0,0-.74.107m30.96,49.251q-.8,2.839-1.605,5.675c.716.016,1.434-.034,2.151.022a1.115,1.115,0,0,1,1.027,1.108,1.171,1.171,0,0,1-1.178,1.2c-2.539.017-5.082.006-7.621.026a4.312,4.312,0,0,0-4.149,3.946q16.888-.023,33.775-.076a4.36,4.36,0,0,0-2.65-3.615,6.089,6.089,0,0,0-2.584-.317c-3.986,0-7.974.022-11.961.026A1.347,1.347,0,0,1,38.657,77a1.225,1.225,0,0,1-.053-1.865,1.8,1.8,0,0,1,1.181-.26c2.365.011,4.73-.014,7.1-.009q-.811-2.823-1.627-5.646Q39.76,69.223,34.267,69.222Z" transform="translate(0 0)" fill="#0065bb"/>
    <path id="Path_566" data-name="Path 566" d="M249.38,32.087a2.9,2.9,0,0,1,3.193,3.346,1.2,1.2,0,0,1-1.991.356c-.364-.357-.134-1.01-.563-1.31-.4-.162-.912-.117-1.212-.485A1.147,1.147,0,0,1,249.38,32.087Z" transform="translate(-209.88 -22.218)" fill="#0065bb"/>
    <path id="Path_567" data-name="Path 567" d="M32.876,117.65a3.242,3.242,0,0,1,3.111-3.187q5.681-.016,11.36,0a1.165,1.165,0,1,1-.162,2.323c-3.68.006-7.361-.006-11.043,0a.917.917,0,0,0-.939,1q-.007,8.277,0,16.556,3.438,0,6.876,0a4.34,4.34,0,0,1,.706-2.9,7.489,7.489,0,0,1,3.444-2.339,5.5,5.5,0,0,1,.294-6.838,4.411,4.411,0,0,1,6.412.194,5.54,5.54,0,0,1,.137,6.62A7.056,7.056,0,0,1,56.28,131.1a5.074,5.074,0,0,1,1.016,3.249q4.541,0,9.082,0,0-8.781,0-17.56c-4.788,0-9.576.006-14.364,0A1.162,1.162,0,1,1,52,114.459q23.466-.009,46.936,0a3.252,3.252,0,0,1,3.273,3.2q.021,17.4.008,34.8a3.431,3.431,0,0,1-.468,1.891,3.3,3.3,0,0,1-2.965,1.579q-31.319-.007-62.639,0a3.253,3.253,0,0,1-3.271-3.166q-.016-17.552,0-35.108m35.835-.862q0,8.779,0,17.559,15.585,0,31.172,0c.009-5.461,0-10.923.006-16.384a.993.993,0,0,0-1.1-1.178q-15.037,0-30.075,0m-19.775,6.651a2.1,2.1,0,0,0-1.4,1.826,3.017,3.017,0,0,0,.528,2.371,2.115,2.115,0,0,0,3.094.05,3.181,3.181,0,0,0,.528-2.734,2.118,2.118,0,0,0-2.755-1.514m-3.312,8.485a2.565,2.565,0,0,0-1.253,2.421q5.291.007,10.581,0a2.556,2.556,0,0,0-1.341-2.479,8.873,8.873,0,0,0-4.1-1.169,9.5,9.5,0,0,0-3.885,1.225M35.21,136.677c-.02,5.049,0,10.1-.011,15.148a7.482,7.482,0,0,0,.037,1.088.9.9,0,0,0,.92.676c1.972.016,3.944,0,5.916.006a4.516,4.516,0,0,1,.494-2.5,6.9,6.9,0,0,1,3.663-2.749,5.537,5.537,0,0,1-.193-6.213,4.4,4.4,0,0,1,6.611-.74,5.487,5.487,0,0,1,.42,6.934,7.491,7.491,0,0,1,3.012,1.779A5,5,0,0,1,57.3,153.6q4.541,0,9.082,0,0-8.459,0-16.917-15.583,0-31.167,0m33.5,0q0,8.459,0,16.917,5,0,10.006,0a4.985,4.985,0,0,1,1.072-3.332,7.138,7.138,0,0,1,3.111-1.919,5.547,5.547,0,0,1-.134-6.3,4.394,4.394,0,0,1,6.637-.572,5.5,5.5,0,0,1,.337,6.849,7.522,7.522,0,0,1,3.005,1.775,5,5,0,0,1,1.223,3.5c1.653,0,3.307.011,4.96-.006a.916.916,0,0,0,.953-.971q.012-7.97,0-15.939-15.587,0-31.175,0M49.263,142.6a2.105,2.105,0,0,0-1.706,1.781,6.007,6.007,0,0,0,.022,1.531,2.1,2.1,0,0,0,4.145-.143,3.386,3.386,0,0,0-.359-2.3,2.108,2.108,0,0,0-2.1-.866m36.684,0a2.108,2.108,0,0,0-1.719,1.795,6.092,6.092,0,0,0,.025,1.514,2.1,2.1,0,0,0,4.16-.287,3.378,3.378,0,0,0-.315-2.065,2.108,2.108,0,0,0-2.151-.956M45.9,151.024a2.568,2.568,0,0,0-1.523,2.57q5.294,0,10.589,0a2.93,2.93,0,0,0-.555-1.838,3.846,3.846,0,0,0-1.616-1.026,7.561,7.561,0,0,0-3.274-.786,9.173,9.173,0,0,0-3.621,1.08m36.476.1a2.563,2.563,0,0,0-1.327,2.466q5.3,0,10.592,0a2.617,2.617,0,0,0-1.215-2.407,12.224,12.224,0,0,0-3.122-1.158C85.585,149.668,83.893,150.4,82.374,151.128Z" transform="translate(-27.762 -91.814)" fill="#0065bb"/>
    <path id="Path_568" data-name="Path 568" d="M298.272,144.227a6.782,6.782,0,0,1,1.537-.107c3.784.009,7.57-.009,11.355.009a4.4,4.4,0,0,1,4.23,3.869c.067,1.078.048,2.163.016,3.242a4.41,4.41,0,0,1-4.238,4.019c-2.505.023-5.012.006-7.517.008-.925,1.139-1.806,2.314-2.741,3.442a1.613,1.613,0,0,1-2.653-.317,11.558,11.558,0,0,1-.205-3.27,4.5,4.5,0,0,1-3-2.808,7.542,7.542,0,0,1-.246-2.62,8.048,8.048,0,0,1,.2-2.488,4.414,4.414,0,0,1,3.254-2.979m-.988,3.562a12.633,12.633,0,0,0-.14,2.839,2.147,2.147,0,0,0,1.078,2.047c.566.367,1.386.095,1.852.646.527.646.221,1.554.311,2.314.615-.76,1.2-1.545,1.827-2.3.342-.465.981-.39,1.489-.416,2.479.034,4.957.07,7.436.006a2.074,2.074,0,0,0,1.758-1.172,4.537,4.537,0,0,0,.205-1.9,10.011,10.011,0,0,0-.078-1.869,2.065,2.065,0,0,0-2.008-1.523c-3.893-.012-7.787,0-11.68,0A2.1,2.1,0,0,0,297.284,147.789Z" transform="translate(-248.998 -116.87)" fill="#0065bb"/>
  </g>
</svg>
