<?xml version="1.0" encoding="UTF-8"?><svg id="Layer_2" xmlns="http://www.w3.org/2000/svg" viewBox="0 0 20.24 23.81"><defs><style>.cls-1{fill:#e9e9ed;}.cls-2{fill:#b5b5c3;}</style></defs><g id="Layer_1-2"><g><g><path class="cls-1" d="M20.24,11.92c0,2.8,0,5.6,0,8.41,0,2.12-1.37,3.49-3.48,3.49-4.42,0-8.85,0-13.27,0-2.11,0-3.49-1.38-3.49-3.49C0,14.71,0,9.08,0,3.46,0,1.39,1.39,0,3.46,0c4.44,0,8.88,0,13.32,0,2.08,0,3.45,1.37,3.45,3.46,0,2.82,0,5.64,0,8.46Z"/><path class="cls-2" d="M10.16,16.19c-1.45,0-2.9,0-4.35,0-.48,0-.87-.16-1-.67-.16-.63,.26-1.11,1-1.12,1.91,0,3.81,0,5.72,0,.96,0,1.92,0,2.89,0,.65,0,1.06,.35,1.06,.89,0,.54-.4,.89-1.06,.89-1.42,0-2.83,0-4.25,0Z"/><path class="cls-2" d="M10.13,18.37c1.42,0,2.84,0,4.25,0,.68,0,1.1,.36,1.09,.92-.01,.53-.43,.87-1.09,.87-2.84,0-5.67,0-8.51,0-.7,0-1.11-.34-1.1-.9,0-.58,.39-.89,1.1-.89,1.42,0,2.84,0,4.25,0Z"/></g><g><path class="cls-2" d="M7.2,6.21l2.8,2.8c.35,.35,.35,.91,0,1.25s-.91,.35-1.25,0l-2.8-2.8c-.35-.35-.35-.91,0-1.25s.91-.35,1.25,0Z"/><path class="cls-2" d="M15.26,5.04l-5.22,5.22c-.35,.35-.91,.35-1.25,0s-.35-.91,0-1.25L14.01,3.79c.35-.35,.91-.35,1.25,0s.35,.91,0,1.25Z"/></g></g></g></svg>