<svg xmlns="http://www.w3.org/2000/svg" viewBox="0 0 30 30"><defs><style>.cls-1{fill:#b5b5c3;}.cls-2{fill:#e9e9ed;}</style></defs><g id="Layer_2" data-name="Layer 2"><g id="Layer_1-2" data-name="Layer 1"><path class="cls-1" d="M11.5,10.1H2.3A2.3,2.3,0,0,1,0,7.8V2.3A2.3,2.3,0,0,1,2.3,0h9.2a2.3,2.3,0,0,1,2.3,2.3V7.8A2.3,2.3,0,0,1,11.5,10.1Z"/><rect class="cls-1" x="16.2" y="19.9" width="13.8" height="10.11" rx="2.3"/><path class="cls-2" d="M11.5,30H2.3A2.3,2.3,0,0,1,0,27.7V14.9a2.3,2.3,0,0,1,2.3-2.3h9.2a2.3,2.3,0,0,1,2.3,2.3V27.7A2.3,2.3,0,0,1,11.5,30Z"/><path class="cls-2" d="M27.7,17.4H18.5a2.3,2.3,0,0,1-2.3-2.3V2.3A2.3,2.3,0,0,1,18.5,0h9.2A2.3,2.3,0,0,1,30,2.3V15.1A2.3,2.3,0,0,1,27.7,17.4Z"/></g></g></svg>