<?xml version="1.0" encoding="UTF-8"?><svg id="Layer_2" xmlns="http://www.w3.org/2000/svg" viewBox="0 0 33.21 33.21"><defs><style>.cls-1{fill:#e9e9ed;}.cls-2{fill:#b5b5c3;}</style></defs><g id="Layer_1-2"><g><path class="cls-1" d="M8.68,24.57c.69,3.28,1.8,6.04,3.2,7.95-4.24-1.25-7.77-4.15-9.85-7.95h6.65Z"/><path class="cls-1" d="M10.73,24.57h11.75c-1.02,4.53-2.85,7.65-4.71,8.59-.39,.04-.78,.05-1.17,.05s-.78-.01-1.17-.05c-1.86-.94-3.68-4.06-4.7-8.59Z"/><path class="cls-1" d="M24.53,24.57h6.64c-2.08,3.8-5.6,6.7-9.83,7.95,1.39-1.91,2.5-4.67,3.19-7.95Z"/><path class="cls-1" d="M22.59,9.04H10.61C11.56,4.46,13.32,1.22,15.15,.07c.48-.05,.96-.07,1.45-.07s.97,.02,1.45,.07c1.84,1.15,3.6,4.39,4.54,8.97Z"/><path class="cls-1" d="M7.88,16.54c0,2.12,.15,4.15,.44,6.03H1.11c-.72-1.85-1.11-3.86-1.11-5.97,0-1.95,.34-3.82,.96-5.56h7.28c-.23,1.73-.36,3.58-.36,5.5Z"/><path class="cls-1" d="M11.76,.72c-1.42,2.01-2.53,4.89-3.19,8.32H1.82C3.85,5.07,7.43,2.03,11.76,.72Z"/><path class="cls-1" d="M23.33,16.54c0,2.17-.17,4.19-.46,6.03H10.34c-.29-1.84-.46-3.86-.46-6.03,0-1.96,.14-3.8,.38-5.5h12.69c.24,1.7,.38,3.54,.38,5.5Z"/><path class="cls-1" d="M31.38,9.04h-6.74c-.66-3.42-1.77-6.3-3.18-8.31,4.32,1.31,7.9,4.35,9.92,8.31Z"/><path class="cls-1" d="M33.21,16.6c0,2.11-.39,4.12-1.11,5.97h-7.21c.29-1.88,.44-3.91,.44-6.03,0-1.92-.13-3.77-.36-5.5h7.28c.62,1.74,.96,3.61,.96,5.56Z"/><g><path class="cls-2" d="M15.05,22.57H7.88V11.19h7.17v2.05h-4.84v2.58h4.26v2.12h-4.26v2.58h4.84v2.04Z"/><path class="cls-2" d="M19.01,22.57h-2.33V11.19h1.99l4.33,6.91v-6.91h2.33v11.38h-2.01l-4.31-6.9v6.9Z"/></g></g></g></svg>