<svg width="36" height="36" viewBox="0 0 36 36" fill="none" xmlns="http://www.w3.org/2000/svg">
<g clip-path="url(#clip0_2923_3454)">
<path d="M11.65 35.5C11.1167 35.5 10.6087 35.4 10.126 35.2C9.64333 35 9.218 34.7167 8.85 34.35L0.65 26.15C0.283333 25.7833 1.78814e-07 25.358 -0.2 24.874C-0.4 24.39 -0.5 23.882 -0.5 23.35V11.65C-0.5 11.1167 -0.4 10.6087 -0.2 10.126C1.78814e-07 9.64333 0.283333 9.218 0.65 8.85L8.85 0.65C9.21667 0.283333 9.642 1.78814e-07 10.126 -0.2C10.61 -0.4 11.118 -0.5 11.65 -0.5H23.35C23.8833 -0.5 24.392 -0.4 24.876 -0.2C25.36 1.78814e-07 25.7847 0.283333 26.15 0.65L34.35 8.85C34.7167 9.21667 35 9.642 35.2 10.126C35.4 10.61 35.5 11.118 35.5 11.65V23.35C35.5 23.8833 35.4 24.392 35.2 24.876C35 25.36 34.7167 25.7847 34.35 26.15L26.15 34.35C25.7833 34.7167 25.358 35 24.874 35.2C24.39 35.4 23.882 35.5 23.35 35.5H11.65ZM17.5 20.3L21.8 24.6C22.1667 24.9667 22.6333 25.15 23.2 25.15C23.7667 25.15 24.2333 24.9667 24.6 24.6C24.9667 24.2333 25.15 23.7667 25.15 23.2C25.15 22.6333 24.9667 22.1667 24.6 21.8L20.3 17.5L24.6 13.2C24.9667 12.8333 25.15 12.3667 25.15 11.8C25.15 11.2333 24.9667 10.7667 24.6 10.4C24.2333 10.0333 23.7667 9.85 23.2 9.85C22.6333 9.85 22.1667 10.0333 21.8 10.4L17.5 14.7L13.2 10.4C12.8333 10.0333 12.3667 9.85 11.8 9.85C11.2333 9.85 10.7667 10.0333 10.4 10.4C10.0333 10.7667 9.85 11.2333 9.85 11.8C9.85 12.3667 10.0333 12.8333 10.4 13.2L14.7 17.5L10.4 21.8C10.0333 22.1667 9.85 22.6333 9.85 23.2C9.85 23.7667 10.0333 24.2333 10.4 24.6C10.7667 24.9667 11.2333 25.15 11.8 25.15C12.3667 25.15 12.8333 24.9667 13.2 24.6L17.5 20.3Z" fill="#F64E60"/>
</g>
<defs>
<clipPath id="clip0_2923_3454">
<rect width="36" height="36" fill="white"/>
</clipPath>
</defs>
</svg>
