<?xml version="1.0" encoding="UTF-8"?><svg id="Layer_2" xmlns="http://www.w3.org/2000/svg" viewBox="0 0 33.21 33.2"><defs><style>.cls-1{fill:#e9e9ed;}.cls-2{fill:#b5b5c3;}</style></defs><g id="Layer_1-2"><g><path class="cls-1" d="M8.68,24.57c.69,3.28,1.79,6.03,3.19,7.94-4.23-1.25-7.75-4.14-9.84-7.94h6.65Z"/><path class="cls-1" d="M22.48,24.57c-1.02,4.51-2.83,7.62-4.68,8.58-.4,.04-.8,.05-1.2,.05s-.8-.01-1.2-.05c-1.85-.96-3.65-4.07-4.67-8.58h11.75Z"/><path class="cls-1" d="M24.53,24.57h6.64c-2.08,3.79-5.6,6.69-9.83,7.94,1.39-1.91,2.5-4.66,3.19-7.94Z"/><path class="cls-1" d="M11.76,.72c-1.42,2.01-2.53,4.89-3.19,8.32H1.82C3.85,5.07,7.43,2.03,11.76,.72Z"/><path class="cls-1" d="M22.59,9.04H10.61C11.56,4.46,13.32,1.22,15.15,.07c.48-.05,.96-.07,1.45-.07s.97,.02,1.45,.07c1.84,1.15,3.6,4.39,4.54,8.97Z"/><path class="cls-1" d="M31.38,9.04h-6.74c-.66-3.42-1.77-6.3-3.18-8.31,4.32,1.31,7.9,4.35,9.92,8.31Z"/><path class="cls-1" d="M7.88,16.54c0,2.12,.15,4.14,.44,6.03H1.11c-.72-1.85-1.11-3.87-1.11-5.97,0-1.95,.34-3.82,.96-5.56h7.28c-.23,1.73-.36,3.58-.36,5.5Z"/><path class="cls-1" d="M23.33,16.54c0,2.16-.17,4.19-.46,6.03H10.34c-.29-1.84-.46-3.87-.46-6.03,0-1.96,.14-3.8,.38-5.5h12.69c.24,1.7,.38,3.54,.38,5.5Z"/><path class="cls-1" d="M33.21,16.6c0,2.1-.39,4.12-1.11,5.97h-7.21c.29-1.89,.44-3.91,.44-6.03,0-1.92-.13-3.77-.36-5.5h7.28c.62,1.74,.96,3.61,.96,5.56Z"/><g><rect class="cls-2" x="17.78" y="11.1" width="2.41" height="2.02"/><path class="cls-2" d="M21.75,15.46c-.63-.7-1.53-1.05-2.69-1.05-.69,0-1.3,.16-1.84,.47-.54,.31-.97,.74-1.28,1.29s-.46,1.15-.46,1.81c0,.5,.1,.92,.31,1.27,.21,.35,.52,.65,.95,.91h-3.03c-.32,0-.55-.09-.7-.27-.15-.18-.22-.46-.22-.84v-7.94h-2.27v8.1c0,1.06,.26,1.88,.77,2.46,.51,.57,1.27,.86,2.26,.86h4.34c1.58,0,2.78-.3,3.59-.89,.81-.59,1.21-1.48,1.21-2.68v-.6c0-1.23-.32-2.19-.95-2.89Zm-1.29,3.24c0,.57-.14,.99-.41,1.28-.86-.31-1.47-.61-1.81-.91-.34-.3-.51-.67-.51-1.09,0-.37,.13-.68,.38-.93,.25-.25,.56-.38,.93-.38,.95,0,1.42,.59,1.42,1.77v.27Z"/></g></g></g></svg>