<svg xmlns="http://www.w3.org/2000/svg" width="33" height="33" viewBox="0 0 33 33">
  <g id="فارسی" transform="translate(-175 -44)">
    <text id="فا" transform="translate(183.5 67.5)" fill="#0065bb" font-size="20" font-family="SegoeUI, Segoe UI"><tspan x="0" y="0">فا</tspan></text>
    <path id="فا_-_Outline" data-name="فا - Outline" d="M6.875.387H4.814A3.958,3.958,0,0,1,3.089.059,2.644,2.644,0,0,1,2.034-.827a3.215,3.215,0,0,1-.493-1.228A7.479,7.479,0,0,1,1.42-3.408V-14.8a.25.25,0,0,1,.25-.25H3.193a.25.25,0,0,1,.25.25v10.82A10.742,10.742,0,0,0,3.491-2.9a1.631,1.631,0,0,0,.2.673.847.847,0,0,0,.427.352,2.47,2.47,0,0,0,.892.128H6.963c.312,0,.662,0,1.042,0H8.14q-.192-.111-.354-.226a3.431,3.431,0,0,1-.8-.765,2.521,2.521,0,0,1-.417-.878,3.9,3.9,0,0,1-.11-.934,4.342,4.342,0,0,1,.248-1.394,5.146,5.146,0,0,1,.683-1.334,4.019,4.019,0,0,1,1.047-1.02A2.437,2.437,0,0,1,9.8-8.707a2.469,2.469,0,0,1,1.426.445,4.369,4.369,0,0,1,1.18,1.335c.133.22.264.455.39.7a6.446,6.446,0,0,1,.34.793,6.388,6.388,0,0,1,.239.874,4.892,4.892,0,0,1,.093.957,4.217,4.217,0,0,1-.3,1.677,3.194,3.194,0,0,1-.816,1.143A3.64,3.64,0,0,1,11.173-.1,7.215,7.215,0,0,1,9.787.243,12.666,12.666,0,0,1,8.312.367C7.821.38,7.337.387,6.875.387ZM5.26-.113H6.875c.458,0,.937-.007,1.424-.019a12.165,12.165,0,0,0,1.416-.12A6.713,6.713,0,0,0,11-.568a3.142,3.142,0,0,0,1.023-.592,2.7,2.7,0,0,0,.687-.966A3.729,3.729,0,0,0,12.973-3.6a4.392,4.392,0,0,0-.083-.859,5.887,5.887,0,0,0-.22-.806A5.946,5.946,0,0,0,12.356-6c-.12-.235-.246-.459-.372-.668a3.883,3.883,0,0,0-1.036-1.183A1.952,1.952,0,0,0,9.8-8.207a1.919,1.919,0,0,0-1.092.334,3.521,3.521,0,0,0-.916.894,4.646,4.646,0,0,0-.616,1.2,3.846,3.846,0,0,0-.221,1.233,3.4,3.4,0,0,0,.1.814,2.024,2.024,0,0,0,.335.7,2.937,2.937,0,0,0,.685.651,5.7,5.7,0,0,0,1.141.6.25.25,0,0,1,.146.3l-.02.068a.25.25,0,0,1-.245.181c-.35-.006-.719-.011-1.1-.015s-.728,0-1.038,0H5.26ZM1.92-14.555V-3.408a6.977,6.977,0,0,0,.113,1.263,2.719,2.719,0,0,0,.415,1.038,2.152,2.152,0,0,0,.86.716,2.8,2.8,0,0,0,.885.242,1.25,1.25,0,0,1-.116-.535,1.222,1.222,0,0,1,.168-.63,1.913,1.913,0,0,1-.315-.1,1.348,1.348,0,0,1-.667-.557,2.12,2.12,0,0,1-.269-.88,11.23,11.23,0,0,1-.05-1.139v-10.57ZM4.76-1.168A.323.323,0,0,0,4.7-1.1a.718.718,0,0,0-.127.42A.741.741,0,0,0,4.7-.257a.331.331,0,0,0,.055.065Zm6.324-.574a.25.25,0,0,1-.106-.023,12.709,12.709,0,0,1-1.47-.788,5.44,5.44,0,0,1-.922-.718,2.2,2.2,0,0,1-.494-.713,1.926,1.926,0,0,1-.14-.712A2.464,2.464,0,0,1,8.1-5.523a2.831,2.831,0,0,1,.381-.728,2.3,2.3,0,0,1,.543-.536,1.209,1.209,0,0,1,.694-.23,1.164,1.164,0,0,1,.633.2,2.3,2.3,0,0,1,.521.47,4.06,4.06,0,0,1,.432.64,5.851,5.851,0,0,1,.337.724,4.918,4.918,0,0,1,.221.741,3.334,3.334,0,0,1,.079.682,3.021,3.021,0,0,1-.158,1.05,1.561,1.561,0,0,1-.551.724A.25.25,0,0,1,11.084-1.742ZM9.717-6.518a.71.71,0,0,0-.41.141,1.8,1.8,0,0,0-.424.421,2.332,2.332,0,0,0-.313.6,1.966,1.966,0,0,0-.117.659,1.428,1.428,0,0,0,.1.528,1.716,1.716,0,0,0,.385.547,4.955,4.955,0,0,0,.836.649,11.668,11.668,0,0,0,1.269.688,1.055,1.055,0,0,0,.266-.4,2.538,2.538,0,0,0,.126-.874,2.838,2.838,0,0,0-.068-.578,4.416,4.416,0,0,0-.2-.665,5.348,5.348,0,0,0-.308-.662,3.56,3.56,0,0,0-.378-.561A1.808,1.808,0,0,0,10.08-6.4.664.664,0,0,0,9.717-6.518Zm.781-4.316H8.691a.25.25,0,0,1-.25-.25v-1.768a.25.25,0,0,1,.25-.25H10.5a.25.25,0,0,1,.25.25v1.768A.25.25,0,0,1,10.5-10.834Zm-1.557-.5h1.307V-12.6H8.941Z" transform="translate(183.5 67.5)" fill="#0065bb"/>
    <g id="Rectangle_41" data-name="Rectangle 41" transform="translate(175 44)" fill="none" stroke="#0065bb" stroke-linecap="round" stroke-linejoin="round" stroke-width="1.9">
      <rect width="33" height="33" rx="5" stroke="none"/>
      <rect x="0.95" y="0.95" width="31.1" height="31.1" rx="4.05" fill="none"/>
    </g>
  </g>
</svg>
