<?xml version="1.0" encoding="UTF-8"?><svg id="Layer_2" xmlns="http://www.w3.org/2000/svg" viewBox="0 0 25.75 14.88"><defs><style>.cls-1{fill:#e9e9ed;}.cls-2{fill:#b5b5c3;}</style></defs><g id="Layer_1-2"><g><path class="cls-2" d="M19.63,13.09l-5.51,1.61c-.81,.24-1.67,.24-2.48,0l-5.51-1.61c-.5-.15-.84-.6-.84-1.12V6.29c0-.64,.52-1.17,1.17-1.17h12.85c.64,0,1.17,.52,1.17,1.17v5.68c0,.52-.34,.97-.84,1.12Z"/><path class="cls-1" d="M12.52,8.65L.29,4.75c-.39-.12-.39-.68,0-.8L12.52,.06c.23-.07,.48-.07,.71,0l12.23,3.9c.39,.12,.39,.68,0,.8l-12.23,3.9c-.23,.07-.48,.07-.71,0Z"/><rect class="cls-1" x="22.13" y="4.35" width="1.34" height="9.07" rx=".67" ry=".67"/></g></g></svg>