<svg width="36" height="36" viewBox="0 0 36 36" fill="none" xmlns="http://www.w3.org/2000/svg">
<g clip-path="url(#clip0_2923_3446)">
<path d="M18 0C27.9414 0 36 8.0604 36 18C36 27.9396 27.9414 36 18 36C8.0586 36 0 27.9396 0 18C0 8.0604 8.0586 0 18 0ZM18.0036 23.4072C17.7628 23.3996 17.5229 23.4404 17.2982 23.5273C17.0735 23.6142 16.8685 23.7454 16.6955 23.913C16.5224 24.0807 16.3848 24.2814 16.2909 24.5032C16.1969 24.7251 16.1485 24.9636 16.1485 25.2045C16.1485 25.4454 16.1969 25.6839 16.2909 25.9058C16.3848 26.1276 16.5224 26.3283 16.6955 26.496C16.8685 26.6636 17.0735 26.7948 17.2982 26.8817C17.5229 26.9686 17.7628 27.0094 18.0036 27.0018C18.4704 26.987 18.9132 26.7912 19.2382 26.4557C19.5632 26.1203 19.7449 25.6716 19.7449 25.2045C19.7449 24.7374 19.5632 24.2887 19.2382 23.9533C18.9132 23.6178 18.4704 23.422 18.0036 23.4072ZM18 9C17.5588 9.00011 17.1331 9.16222 16.8036 9.45556C16.4741 9.74889 16.2638 10.153 16.2126 10.5912L16.2 10.8L16.2036 19.8018L16.2162 20.0124C16.2682 20.4499 16.4789 20.8531 16.8083 21.1457C17.1378 21.4382 17.563 21.5998 18.0036 21.5998C18.4442 21.5998 18.8694 21.4382 19.1989 21.1457C19.5283 20.8531 19.739 20.4499 19.791 20.0124L19.8036 19.8018L19.8 10.8L19.7874 10.5894C19.7358 10.1515 19.5253 9.74785 19.1959 9.45489C18.8664 9.16192 18.4409 9.00006 18 9Z" fill="#1BC5BD"/>
</g>
<defs>
<clipPath id="clip0_2923_3446">
<rect width="36" height="36" fill="white"/>
</clipPath>
</defs>
</svg>
