<?xml version="1.0" encoding="UTF-8"?><svg id="Layer_2" xmlns="http://www.w3.org/2000/svg" viewBox="0 0 23.77 23.77"><defs><style>.cls-1{fill:#1bc5bd;}.cls-2{fill:#b3e7e7;}</style></defs><g id="Layer_1-2"><g><path class="cls-2" d="M23.77,11.89c0,1.99-.49,3.87-1.35,5.51-.26,.5-.55,.97-.88,1.42-1.4,1.96-3.4,3.47-5.72,4.28-.94,.34-1.94,.55-2.98,.63-.32,.03-.64,.04-.96,.04s-.64-.02-.95-.04c-1.03-.08-2.03-.29-2.98-.62-2.32-.82-4.31-2.33-5.72-4.29-.33-.45-.62-.92-.88-1.42-.87-1.65-1.36-3.52-1.36-5.51s.5-3.87,1.36-5.52c.26-.5,.55-.97,.88-1.42C3.65,2.98,5.64,1.48,7.96,.66c.94-.33,1.94-.55,2.98-.62,.31-.03,.63-.04,.95-.04s.64,.02,.96,.04c1.03,.08,2.03,.29,2.98,.63,2.32,.81,4.3,2.31,5.72,4.27,.33,.45,.62,.93,.87,1.43,.87,1.65,1.36,3.52,1.36,5.51Z"/><path class="cls-1" d="M18.3,7.92c-.08-.56-.18-1.11-.29-1.64-.48-2.26-1.24-4.19-2.19-5.61-.94-.34-1.94-.55-2.98-.63,1.42,.76,2.79,3.14,3.51,6.56,.12,.52,.21,1.07,.29,1.64,.16,1.13,.24,2.35,.24,3.65s-.08,2.51-.24,3.65c-.08,.57-.17,1.11-.29,1.63-.72,3.42-2.09,5.81-3.51,6.56,1.03-.08,2.03-.29,2.98-.63,.96-1.41,1.71-3.35,2.19-5.61,.11-.53,.21-1.08,.29-1.65,.18-1.25,.27-2.58,.27-3.96s-.09-2.71-.27-3.97ZM7.42,17.16c-.12-.52-.21-1.06-.29-1.63-.16-1.13-.24-2.35-.24-3.65s.08-2.51,.24-3.65c.08-.57,.17-1.12,.29-1.64C8.14,3.18,9.51,.8,10.94,.04c-1.03,.08-2.03,.29-2.98,.62-.96,1.41-1.71,3.35-2.19,5.61-.11,.53-.21,1.08-.29,1.64-.18,1.25-.27,2.58-.27,3.97s.09,2.71,.27,3.96c.08,.56,.18,1.12,.29,1.65,.48,2.27,1.24,4.2,2.19,5.61,.94,.33,1.94,.55,2.98,.62-1.42-.76-2.79-3.14-3.51-6.56Z"/><g><path class="cls-1" d="M21.53,4.94c-.82,.5-2.01,.97-3.52,1.34-.51,.12-1.07,.23-1.66,.32-1.32,.2-2.82,.33-4.47,.33s-3.14-.12-4.46-.33c-.59-.09-1.14-.2-1.66-.32-1.51-.36-2.71-.83-3.52-1.34-.33,.45-.62,.92-.88,1.42,1.08,.66,2.51,1.19,4.12,1.55,.54,.13,1.09,.23,1.66,.32,1.53,.24,3.15,.37,4.75,.37s3.23-.13,4.76-.37c.56-.09,1.13-.19,1.66-.32,1.61-.37,3.03-.89,4.11-1.55-.25-.5-.55-.98-.87-1.43Z"/><path class="cls-1" d="M18.3,15.84c-.53-.12-1.09-.23-1.66-.31-1.53-.25-3.15-.38-4.76-.38s-3.22,.13-4.75,.38c-.56,.08-1.12,.19-1.66,.31-1.61,.38-3.03,.89-4.12,1.56,.26,.5,.55,.97,.88,1.42,.82-.5,2.01-.98,3.52-1.33,.51-.13,1.07-.24,1.66-.33,1.32-.21,2.82-.33,4.46-.33s3.15,.13,4.47,.33c.59,.09,1.14,.2,1.66,.33,1.51,.36,2.71,.83,3.52,1.33,.33-.45,.62-.92,.88-1.42-1.08-.66-2.5-1.18-4.12-1.56Z"/></g></g></g></svg>