<svg xmlns="http://www.w3.org/2000/svg" viewBox="0 0 34.8 30"><defs><style>.cls-1{fill:#1bc5bd;}.cls-2{fill:#b3e7e7;}</style></defs><g id="Layer_2" data-name="Layer 2"><g id="Layer_1-2" data-name="Layer 1"><path class="cls-1" d="M.9,10.5h.2l14.8,9.3a2.3,2.3,0,0,0,2.9,0l14.8-9.3h.3C34.1,10.3.6,10.3.9,10.5Z"/><path class="cls-2" d="M34.7,11.2V26.4q0,3.6-3.6,3.6H3.7C1.2,30,0,28.8,0,26.3V11.2c0-.3-.1-.7.2-.9h0c.2-.2.4,0,.7.2h.2l14.8,9.3a2.3,2.3,0,0,0,2.9,0l14.8-9.3h.3c.2-.2.4-.4.6-.2l.2.2C34.8,10.7,34.7,11,34.7,11.2Z"/><path class="cls-2" d="M34.8,10.5H.6c-.2,0-.4,0-.4-.2h0c0-.3.2-.3.3-.3l.3-.2L16.7.2A1.2,1.2,0,0,1,18,.2L33.8,9.8H34Z"/></g></g></svg>