<svg xmlns="http://www.w3.org/2000/svg" viewBox="0 0 25 25"><defs><style>.cls-1{fill:#e9e9ed;}.cls-2{fill:#b5b5c3;}</style></defs><g id="Layer_2" data-name="Layer 2"><g id="Layer_1-2" data-name="Layer 1"><path class="cls-1" d="M12.5,25A12.5,12.5,0,1,1,25,12.5,12.5,12.5,0,0,1,12.5,25ZM11.3,8.7h0c0,1.3-.1,2.5,0,3.8a1.2,1.2,0,0,0,1.2,1.2c2.1.1,4.2,0,6.3,0l.7-.2a1.3,1.3,0,0,0,.4-1.4,1.1,1.1,0,0,0-1.1-.8H14.1c-.4,0-.4,0-.4-.4V5.1a1,1,0,0,0-.3-1,1.1,1.1,0,0,0-1.3-.3A1.2,1.2,0,0,0,11.3,5C11.2,6.2,11.3,7.5,11.3,8.7Z"/><path class="cls-2" d="M11.3,8.7c0-1.2-.1-2.5,0-3.7a1.2,1.2,0,0,1,.8-1.2,1.1,1.1,0,0,1,1.3.3,1,1,0,0,1,.3,1v5.8c0,.4,0,.4.4.4h4.7a1.1,1.1,0,0,1,1.1.8,1.3,1.3,0,0,1-.4,1.4l-.7.2c-2.1,0-4.2.1-6.3,0a1.2,1.2,0,0,1-1.2-1.2c-.1-1.3,0-2.5,0-3.8Z"/></g></g></svg>