<svg width="36" height="36" viewBox="0 0 36 36" fill="none" xmlns="http://www.w3.org/2000/svg">
<g clip-path="url(#clip0_2923_3452)">
<path d="M18 0C22.7739 0 27.3523 1.89642 30.7279 5.27208C34.1036 8.64773 36 13.2261 36 18C36 22.7739 34.1036 27.3523 30.7279 30.7279C27.3523 34.1036 22.7739 36 18 36C13.2261 36 8.64773 34.1036 5.27208 30.7279C1.89642 27.3523 0 22.7739 0 18C0 13.2261 1.89642 8.64773 5.27208 5.27208C8.64773 1.89642 13.2261 0 18 0ZM15.7577 21.5511L11.7591 17.55C11.6158 17.4067 11.4456 17.2929 11.2583 17.2154C11.071 17.1378 10.8703 17.0979 10.6676 17.0979C10.4648 17.0979 10.2641 17.1378 10.0768 17.2154C9.88952 17.2929 9.71935 17.4067 9.576 17.55C9.2865 17.8395 9.12386 18.2322 9.12386 18.6416C9.12386 19.051 9.2865 19.4436 9.576 19.7331L14.6674 24.8246C14.8104 24.9686 14.9804 25.083 15.1678 25.161C15.3551 25.239 15.5561 25.2792 15.759 25.2792C15.9619 25.2792 16.1629 25.239 16.3502 25.161C16.5376 25.083 16.7076 24.9686 16.8506 24.8246L27.3934 14.2791C27.5387 14.1364 27.6543 13.9663 27.7334 13.7787C27.8126 13.591 27.8539 13.3896 27.8548 13.1859C27.8558 12.9822 27.8164 12.7804 27.739 12.592C27.6615 12.4037 27.5475 12.2325 27.4036 12.0884C27.2597 11.9443 27.0887 11.8301 26.9004 11.7525C26.7121 11.6748 26.5103 11.6352 26.3067 11.6359C26.103 11.6366 25.9015 11.6776 25.7137 11.7566C25.526 11.8355 25.3558 11.9509 25.2129 12.096L15.7577 21.5511Z" fill="#49D481"/>
</g>
<defs>
<clipPath id="clip0_2923_3452">
<rect width="36" height="36" fill="white"/>
</clipPath>
</defs>
</svg>
