<svg xmlns="http://www.w3.org/2000/svg" width="178.982" height="178.982" viewBox="0 0 178.982 178.982">
  <g id="کشاورزی" transform="translate(20455 4004)">
    <g id="Ellipse_11" data-name="Ellipse 11" transform="translate(-20455 -4004)" fill="none" stroke="#0065bb" stroke-width="3">
      <circle cx="89.491" cy="89.491" r="89.491" stroke="none"/>
      <circle cx="89.491" cy="89.491" r="87.991" fill="none"/>
    </g>
    <g id="کشاورزی-2" data-name="کشاورزی" transform="translate(-20409 -3962)">
      <path id="Path_475" data-name="Path 475" d="M71.254,0h.433a2.369,2.369,0,0,1,1.776,1.289,42.188,42.188,0,0,1,6.06,16.106,22.255,22.255,0,0,1-2,13.172,21.656,21.656,0,0,1-4.669,6.056q.008,5.768,0,11.533a19.825,19.825,0,0,1,2.1-2.459,19.685,19.685,0,0,1,6.338-12.8c4.5-4.086,10.489-6.117,16.423-6.934a44.077,44.077,0,0,1,5.523-.407,2.406,2.406,0,0,1,2.425,2.774,25.748,25.748,0,0,1-6.632,12.847,1.392,1.392,0,0,1-2.144-.2,1.431,1.431,0,0,1,.274-1.848,22.869,22.869,0,0,0,5.284-9.309,154.448,154.448,0,0,0-22.77,15.447,25.72,25.72,0,0,0,12.383-2.379,1.417,1.417,0,0,1,1.922.428,1.4,1.4,0,0,1-.6,2.011c-5.092,2.581-11,3.131-16.61,2.5a12.991,12.991,0,0,0-3.653,6.717,34.872,34.872,0,0,1,17.5,5.69c2.911,1.976,5.551,4.314,8.334,6.46a10.357,10.357,0,0,1,2.977-1.324,4.618,4.618,0,0,1,4.442,1.864,4.985,4.985,0,0,1-.918,6.815q-6.8,4.682-13.612,9.367A20.645,20.645,0,0,1,88.4,85.522a10.722,10.722,0,0,1-3.281.787q-10.948,1.119-21.9,2.24a9.738,9.738,0,0,1-3.8-.35c-3.949-1.294-7.911-2.544-11.864-3.821a2.7,2.7,0,0,0-2.631.448c-.852.717-1.668,1.476-2.5,2.213a4.114,4.114,0,0,1-.228,4.146,7.852,7.852,0,0,1-2.849,2.107A9.605,9.605,0,0,1,36.065,94.8H35.4a4.06,4.06,0,0,1-3.149-1.97q-5.7-9.848-11.383-19.705a5.778,5.778,0,0,1-.928-2.19,3.977,3.977,0,0,1,1.485-3.686c.733-.53,1.553-.926,2.325-1.392a7.252,7.252,0,0,1,3.027-1.307A4.122,4.122,0,0,1,29.957,65.7c3.472-1.929,6.921-3.9,10.4-5.812A16.576,16.576,0,0,1,54.1,59.129,34.788,34.788,0,0,1,70,54.521a13.1,13.1,0,0,0-3.655-6.7,35.751,35.751,0,0,1-5.134.23A25.411,25.411,0,0,1,46.237,43.1a24.184,24.184,0,0,1-8.822-14.971,2.412,2.412,0,0,1,2.492-2.579,44.106,44.106,0,0,1,5.588.424c5.943.833,11.938,2.9,16.417,7.021a19.666,19.666,0,0,1,6.236,12.69,22.081,22.081,0,0,1,1.937,2.24q0-5.654,0-11.307a21.958,21.958,0,0,1-4.344-5.436,21.789,21.789,0,0,1-2.412-13.02,41.5,41.5,0,0,1,6.177-16.91A2.3,2.3,0,0,1,71.254,0M65.966,21.472a17.694,17.694,0,0,0,4.116,11.14q0-13.361,0-26.726c-2.446,4.816-4.218,10.131-4.114,15.586m6.9-15.584q-.011,13.361,0,26.726a17.714,17.714,0,0,0,4.112-11.142c.106-5.454-1.664-10.772-4.112-15.584m-28.537,22.8A160.825,160.825,0,0,1,64.794,42.775a16.585,16.585,0,0,0-5.238-8.182A25.291,25.291,0,0,0,49.37,29.607a32.2,32.2,0,0,0-5.043-.916M84.9,33.525a16.838,16.838,0,0,0-6.582,9.243A161.012,161.012,0,0,1,98.886,28.631,30.7,30.7,0,0,0,84.9,33.525M40.655,29.794a22.22,22.22,0,0,0,5.862,9.885,19.688,19.688,0,0,0,8.03,4.562,28.182,28.182,0,0,0,8.889,1.016A156.811,156.811,0,0,0,40.655,29.794m16.83,30.67a43.738,43.738,0,0,1,5.382,2.874,10.055,10.055,0,0,0,4.046,1.576c3.779.481,7.565.9,11.342,1.394a6.823,6.823,0,0,1,5.6,6.976,18.43,18.43,0,0,0,6.169-1.909c2.077-1.079,4.145-2.181,6.221-3.264-1.579-1.337-3.229-2.59-4.84-3.892a32.127,32.127,0,0,0-33.916-3.755m-16.16,2.057q-4.938,2.763-9.874,5.536c.589,1.028,1.191,2.048,1.776,3.077a1.384,1.384,0,1,1-2.361,1.446c-.933-1.561-1.807-3.155-2.742-4.714a1.193,1.193,0,0,0-1.655-.374c-1.089.628-2.185,1.242-3.259,1.892a1.21,1.21,0,0,0-.313,1.694q5.868,10.154,11.731,20.309a1.2,1.2,0,0,0,1.626.476c1.1-.62,2.207-1.248,3.292-1.9a1.2,1.2,0,0,0,.391-1.648C38,84.939,36.039,81.577,34.108,78.2a1.385,1.385,0,0,1,.6-1.951,1.4,1.4,0,0,1,1.829.63c1.492,2.566,2.968,5.142,4.457,7.711.754-.648,1.474-1.333,2.24-1.964a5.53,5.53,0,0,1,5.173-.891c3.9,1.242,7.8,2.509,11.7,3.757a6.685,6.685,0,0,0,2.762.3c7.225-.731,14.447-1.487,21.672-2.214a8.971,8.971,0,0,0,2.518-.511,15.043,15.043,0,0,0,3.009-1.813c4.536-3.114,9.063-6.247,13.6-9.356a2.157,2.157,0,0,0,.47-3.012,1.793,1.793,0,0,0-2.264-.62c-2.62,1.413-5.268,2.777-7.9,4.17a38.643,38.643,0,0,1-5.654,2.674,34.539,34.539,0,0,1-8.969,1.255c-4.079.206-8.156.439-12.224.8a1.386,1.386,0,1,1-.194-2.762q7.054-.461,14.11-.928a4.047,4.047,0,0,0-3.34-4.449c-3.8-.48-7.608-.9-11.405-1.4-2.872-.4-5.223-2.2-7.7-3.546a35.165,35.165,0,0,0-7.1-2.864A13.643,13.643,0,0,0,41.325,62.521Z" transform="translate(-19.899)" fill="#0065bb"/>
    </g>
  </g>
</svg>
