<svg xmlns="http://www.w3.org/2000/svg" width="178.982" height="178.982" viewBox="0 0 178.982 178.982">
  <g id="اقتصاد" transform="translate(21339 4004)">
    <g id="Ellipse_11" data-name="Ellipse 11" transform="translate(-21339 -4004)" fill="none" stroke="#0065bb" stroke-width="3">
      <circle cx="89.491" cy="89.491" r="89.491" stroke="none"/>
      <circle cx="89.491" cy="89.491" r="87.991" fill="none"/>
    </g>
    <g id="اقتصاد_و_اداری" data-name="اقتصاد و اداری" transform="translate(-21297 -3962)">
      <path id="Path_456" data-name="Path 456" d="M275.673,1.562a1.5,1.5,0,0,1,2.192.026q11.189,10.467,22.367,20.943a2,2,0,0,1,.63,1.067v.275a1.481,1.481,0,0,1-1.513,1.279c-2.943.013-5.885,0-8.827,0q-.014,23.371,0,46.74a1.512,1.512,0,0,1-1.186,1.7,1.433,1.433,0,0,1-1.641-1.5q-.034-23.993-.011-47.987a1.828,1.828,0,0,1,.442-1.377,1.871,1.871,0,0,1,1.381-.415c2.117,0,4.234.007,6.352,0q-9.547-8.95-19.1-17.893-9.547,8.95-19.1,17.893c2.251.02,4.5-.024,6.755.019a1.408,1.408,0,0,1,1.4,1.418c.045,1.55,0,3.1.02,4.654a1.85,1.85,0,0,1-.61,1.7,1.4,1.4,0,0,1-2.182-.9c-.119-1.348-.013-2.706-.05-4.058-2.8,0-5.606-.006-8.409,0a2.254,2.254,0,0,1-1.307-.262,1.4,1.4,0,0,1-.389-1.916A9.037,9.037,0,0,1,254,21.854Q264.842,11.714,275.673,1.562Z" transform="translate(-205.691 -1.096)" fill="#0065bb"/>
      <path id="Path_457" data-name="Path 457" d="M34.726,128.528a2.627,2.627,0,0,1,1.7-.3,35.7,35.7,0,0,1,33.635,26.929,35.125,35.125,0,0,1-.829,20.125A35.561,35.561,0,0,1,3.212,178.5,36.267,36.267,0,0,1,0,164.35v-.786A35.817,35.817,0,0,1,5.3,145.2a35.414,35.414,0,0,1,23.514-16.3,1.367,1.367,0,0,1,1.318.745,1.392,1.392,0,0,1-.7,1.92c-.822.3-1.7.435-2.539.665a32.886,32.886,0,1,0,9.53-1.134c-.63-.054-1.383.015-1.853-.5A1.409,1.409,0,0,1,34.726,128.528Z" transform="translate(0 -104.592)" fill="#0065bb"/>
      <path id="Path_458" data-name="Path 458" d="M64.511,164.426a28.86,28.86,0,0,1,15.815,53.355,28.9,28.9,0,0,1-42.173-14.142,28.855,28.855,0,0,1,26.358-39.213m-2.067,2.952a26.023,26.023,0,1,0,16.25,3.7A26.2,26.2,0,0,0,62.444,167.377Z" transform="translate(-29.507 -134.061)" fill="#0065bb"/>
      <path id="Path_459" data-name="Path 459" d="M149.143,227.085a1.415,1.415,0,0,1,2.221-.405c.636.608.422,1.565.457,2.351a10.006,10.006,0,0,1,6.006,3.074,7.184,7.184,0,0,1,1.931,5.136,1.407,1.407,0,0,1-2.2.9c-.822-.573-.507-1.7-.846-2.515a6.242,6.242,0,0,0-4.9-3.729q0,5.214,0,10.43a9.958,9.958,0,0,1,6.142,3.234,7.15,7.15,0,0,1,1.731,5.76,7.99,7.99,0,0,1-4.1,5.668,10.906,10.906,0,0,1-3.77,1.281c-.043.74.158,1.6-.338,2.225a1.41,1.41,0,0,1-2.063.112c-.625-.6-.392-1.558-.435-2.335a9.982,9.982,0,0,1-6.034-3.1,7.146,7.146,0,0,1-1.894-5.151,1.4,1.4,0,0,1,2.169-.868,1.773,1.773,0,0,1,.645,1.465,4.845,4.845,0,0,0,2.032,3.474,7.938,7.938,0,0,0,3.069,1.329c.041-3.476-.013-6.952.026-10.428a10.137,10.137,0,0,1-5.984-3.043,7.245,7.245,0,0,1-1.942-5.621,7.575,7.575,0,0,1,2.842-5.119,10.435,10.435,0,0,1,5.073-2.178,5.591,5.591,0,0,1,.154-1.944m-4.71,7.774a4.3,4.3,0,0,0,.087,4.433,6.636,6.636,0,0,0,4.467,2.82c-.009-3.409.019-6.818-.013-10.227a6.656,6.656,0,0,0-4.541,2.974m7.391,10.333q-.006,5.108,0,10.218a6.5,6.5,0,0,0,4.647-3.145,4.3,4.3,0,0,0-.264-4.376A6.676,6.676,0,0,0,151.824,245.191Z" transform="translate(-114.82 -184.443)" fill="#0065bb"/>
      <path id="Path_460" data-name="Path 460" d="M332.909,408.153a1.42,1.42,0,1,1,2.825.02c.013,5.324,0,10.647.007,15.971a1.837,1.837,0,0,1-.455,1.474,1.711,1.711,0,0,1-1.275.4q-11.987,0-23.977,0a1.781,1.781,0,0,1-1.424-.461c-.543-.584-.375-1.435-.4-2.158.045-.749-.156-1.593.3-2.255a1.409,1.409,0,0,1,2.18-.091c.506.585.329,1.418.364,2.126q10.924,0,21.852,0C332.91,418.174,332.892,413.163,332.909,408.153Z" transform="translate(-250.913 -331.228)" fill="#0065bb"/>
    </g>
  </g>
</svg>
