<svg xmlns="http://www.w3.org/2000/svg" width="178.982" height="178.982" viewBox="0 0 178.982 178.982">
  <g id="فنی" transform="translate(22247 4012)">
    <g id="فنی-2" data-name="فنی" transform="translate(-22200 -3970)">
      <path id="Path_471" data-name="Path 471" d="M64.3,0H78.157a3.8,3.8,0,0,1,2.922,1.842A5.622,5.622,0,0,1,81.6,4.888c1.547.317,3.1.591,4.654.9a3.027,3.027,0,0,1,2.4,2.372,5.045,5.045,0,0,1-.35,2.435A35.258,35.258,0,0,1,102.733,24.1a1.742,1.742,0,0,1,.274,1.1,1.455,1.455,0,0,1-1.744,1.184c-.623-.13-.952-.723-1.269-1.212A32.118,32.118,0,0,0,87.443,13.4c-.317.989-.606,1.986-.91,2.977a1.953,1.953,0,0,1-.834,1.265A1.441,1.441,0,0,1,83.727,17a2.021,2.021,0,0,1,.028-1.451c.7-2.3,1.427-4.589,2.094-6.9-1.419-.265-2.837-.548-4.256-.821,0,4.678-.007,9.357.007,14.033a2.215,2.215,0,0,1-.43,1.592,1.449,1.449,0,0,1-2.057-.009,2.205,2.205,0,0,1-.424-1.592c.017-5.434,0-10.869.009-16.3a16.266,16.266,0,0,0-.044-2.016.667.667,0,0,0-.573-.589,16.457,16.457,0,0,0-2.2-.052c-3.585,0-7.172.007-10.757-.006-.439.019-1.064-.015-1.232.5a9.875,9.875,0,0,0-.083,1.986c.013,5.5-.007,11,.011,16.494a2.017,2.017,0,0,1-.541,1.684,1.45,1.45,0,0,1-2.031-.2,2.433,2.433,0,0,1-.339-1.493c.015-4.678,0-9.355.007-14.031-1.421.274-2.839.556-4.26.825.719,2.412,1.464,4.819,2.2,7.228a2.008,2.008,0,0,1,.007,1.543,1.452,1.452,0,0,1-1.944.587,2.066,2.066,0,0,1-.86-1.334c-.332-1.091-.658-2.183-.986-3.276A32.039,32.039,0,0,0,44.01,22.971,32.631,32.631,0,0,0,38.816,34.12c1.532.017,3.065-.03,4.6.015a3.109,3.109,0,0,1,2.861,2.157,19.679,19.679,0,0,1,.161,3.841q7.874,0,15.747,0c.03-1.1-.048-2.2.048-3.289a3.113,3.113,0,0,1,3.081-2.718c3.148-.024,6.3.007,9.444-.013a7.159,7.159,0,0,1,1.845.139,3.068,3.068,0,0,1,2.231,2.609c.1,1.088.024,2.181.044,3.27q8.6,0,17.2,0c.111-1.523-.341-3.222.515-4.593a3.147,3.147,0,0,1,2.618-1.41c1.5-.028,2.994.006,4.491-.009-.276-1.065-.68-2.1-.86-3.191a1.417,1.417,0,0,1,1.912-1.466c.83.289.963,1.264,1.193,1.994a36.874,36.874,0,0,1,1.516,8.654,5.7,5.7,0,0,1,4.091,1.286,5.085,5.085,0,0,1,1.692,3.815c.02,3.707-.006,7.413.011,11.119a4.678,4.678,0,0,1-.68,3.161,4.215,4.215,0,0,1-2.772,1.234c-2.044.382-4.085.786-6.129,1.177a35.285,35.285,0,0,1-3.081,7.422c1.258,1.86,2.511,3.722,3.776,5.577a3.852,3.852,0,0,1,.836,2.2,3.356,3.356,0,0,1-1.164,2.4q-3.063,3.046-6.111,6.107a3.368,3.368,0,0,1-2.4,1.171,3.9,3.9,0,0,1-2.209-.845c-1.849-1.262-3.708-2.511-5.562-3.765a33.222,33.222,0,0,1-8.375,3.3,1.429,1.429,0,0,1-1.64-1.882c.232-.7,1.008-.926,1.645-1.1A29.492,29.492,0,0,0,86.732,79.4a1.682,1.682,0,0,1,1.925-.1c2.3,1.519,4.573,3.089,6.865,4.623q3.416-3.413,6.828-6.831c-1.536-2.3-3.107-4.567-4.626-6.87a1.7,1.7,0,0,1,.1-1.921,29.754,29.754,0,0,0,2.833-6.464A11.115,11.115,0,0,1,101.3,59.9a1.844,1.844,0,0,1,1.414-.763c2.549-.48,5.1-.984,7.645-1.475V54.271H95.705a24.5,24.5,0,0,1-48.9,0H32.122v3.385c2.546.491,5.09.995,7.637,1.473.523.113,1.151.226,1.43.739a14.167,14.167,0,0,1,.741,2.251,29.566,29.566,0,0,0,2.663,6.022,1.818,1.818,0,0,1,.178,2.109c-1.519,2.292-3.079,4.556-4.61,6.841q3.41,3.416,6.826,6.828c2.17-1.467,4.347-2.926,6.509-4.4a2.275,2.275,0,0,1,1.258-.495,3.628,3.628,0,0,1,1.241.5,29.265,29.265,0,0,0,7.385,3.033A1.7,1.7,0,0,1,64.83,83.8c.558,2.714,1.06,5.44,1.59,8.16,3.22.009,6.44,0,9.661,0,.259-1.13.361-2.3.723-3.4a1.43,1.43,0,0,1,2.392-.378c.537.587.282,1.429.167,2.127a12.034,12.034,0,0,1-.839,3.153,3.063,3.063,0,0,1-2.375,1.4H66.355a3.29,3.29,0,0,1-1.9-.812,3.78,3.78,0,0,1-1-2.144c-.421-2.223-.852-4.445-1.28-6.666a35.184,35.184,0,0,1-7.424-3.076q-2.854,1.926-5.707,3.858a3.443,3.443,0,0,1-2.429.732,3.764,3.764,0,0,1-2.142-1.247q-3-3.027-6.027-6.031A3.337,3.337,0,0,1,37.3,77.084a3.8,3.8,0,0,1,.828-2.166q1.9-2.79,3.783-5.6A35.071,35.071,0,0,1,38.836,61.9c-1.988-.38-3.974-.773-5.964-1.145a4.926,4.926,0,0,1-2.785-1.086,3.443,3.443,0,0,1-.865-2.59q.008-5.192,0-10.381a12.737,12.737,0,0,1,.135-2.6,4.94,4.94,0,0,1,1.968-3.011,5.983,5.983,0,0,1,3.728-.973A34.754,34.754,0,0,1,54.2,10.6a5.515,5.515,0,0,1-.371-2.275A3,3,0,0,1,56.21,5.794c1.564-.308,3.133-.584,4.7-.9a5.927,5.927,0,0,1,.448-2.922A3.822,3.822,0,0,1,64.3,0M38.253,37.012c-.128,1.036-.254,2.075-.3,3.118q2.8,0,5.59,0c0-1.034.015-2.07-.026-3.1-1.753-.03-3.506-.009-5.26-.013m26.847.02c-.026,1.032-.015,2.062-.017,3.094,3.632.009,7.265,0,10.9,0-.024-1,.044-2.007-.03-3.005A2.372,2.372,0,0,0,74.944,37c-3.281.032-6.563-.026-9.844.03m33.89,0c-.037,1.034-.022,2.066-.022,3.1,1.864,0,3.728,0,5.592,0q-.086-1.567-.293-3.122c-1.758.009-3.519-.02-5.277.019M32.617,43.819a2.874,2.874,0,0,0-.5,1.955c.009,1.866,0,3.733.006,5.6q10.945,0,21.889,0a2.031,2.031,0,0,1,1.312.343,1.446,1.446,0,0,1,.261,1.938,1.608,1.608,0,0,1-1.384.615c-1.5.015-2.994,0-4.493,0a21.6,21.6,0,0,0,43.1,0c-10.281-.006-20.563.011-30.844-.009a1.454,1.454,0,0,1-1.529-1.642,1.536,1.536,0,0,1,1.71-1.245h48.214c0-1.871,0-3.745.006-5.616a2.913,2.913,0,0,0-.5-1.949,2.337,2.337,0,0,0-1.947-.784q-36.686,0-73.375,0A2.337,2.337,0,0,0,32.617,43.819Z" transform="translate(-29.22)" fill="#0065bb"/>
    </g>
    <g id="Ellipse_11" data-name="Ellipse 11" transform="translate(-22247 -4012)" fill="none" stroke="#0065bb" stroke-width="3">
      <circle cx="89.491" cy="89.491" r="89.491" stroke="none"/>
      <circle cx="89.491" cy="89.491" r="87.991" fill="none"/>
    </g>
  </g>
</svg>
