<svg xmlns="http://www.w3.org/2000/svg" width="178.982" height="178.982" viewBox="0 0 178.982 178.982">
  <g id="زبان_شناسی" data-name="زبان شناسی" transform="translate(22230 4019)">
    <g id="زبان_شناسی-2" data-name="زبان شناسی" transform="translate(-22187 -3977)">
      <path id="Path_487" data-name="Path 487" d="M45.644,0H88.961a10.423,10.423,0,0,1,9.19,6.318,10.854,10.854,0,0,1,.839,4.421q0,11.4,0,22.8a10.8,10.8,0,0,1-.806,4.241A10.381,10.381,0,0,1,88.9,44.162c-7.4.02-14.8.006-22.208.007a10.511,10.511,0,0,1,3.291,7.156c.043,2.036,0,4.071.024,6.107-.022.556.057,1.232-.408,1.642a1.417,1.417,0,0,1-2.34-.7c-.1-1.293-.009-2.6-.041-3.893a17.06,17.06,0,0,0-.365-5.019,7.638,7.638,0,0,0-4.638-4.836,8.968,8.968,0,0,0-3.422-.458c-2.855,2.89-5.735,5.757-8.59,8.649a1.805,1.805,0,0,1-1.13.652,1.4,1.4,0,0,1-1.49-1.39c-.033-2.637,0-5.273-.013-7.91q-15.375.006-30.751.006a7.585,7.585,0,0,0-6.726,4.3,7.745,7.745,0,0,0-.756,3.4Q9.333,63.092,9.336,74.3a8.741,8.741,0,0,0,.684,4.006,7.607,7.607,0,0,0,6.8,4.471q14.649.008,29.3,0c.776.022,1.712-.15,2.29.5q3.4,3.4,6.791,6.822c.015-1.936-.013-3.874.007-5.809a1.375,1.375,0,0,1,1.273-1.488c1.881-.132,3.835.228,5.649-.445a7.64,7.64,0,0,0,5.09-6.955c.031-3.148,0-6.3.011-9.449a1.91,1.91,0,0,1,.228-1.052,1.479,1.479,0,0,1,2.247-.1,2.042,2.042,0,0,1,.311,1.347c-.013,2.9,0,5.8-.006,8.7a11.168,11.168,0,0,1-.521,3.546,10.448,10.448,0,0,1-6.576,6.631,14.051,14.051,0,0,1-4.932.53c-.009,2.609.015,5.219-.007,7.828a1.456,1.456,0,0,1-1.206,1.473h-.4a4.516,4.516,0,0,1-1.692-1.345c-2.518-2.544-5.053-5.071-7.565-7.619a.91.91,0,0,0-.8-.337q-14.736-.006-29.469-.006a10.348,10.348,0,0,1-7.95-3.848,10.469,10.469,0,0,1-2.32-6.676q-.006-11.487,0-22.971a10.722,10.722,0,0,1,.91-4.517,10.385,10.385,0,0,1,9.2-6.144c7.391-.02,14.784-.006,22.176-.007a10.558,10.558,0,0,1-3.289-7.3c-.026-2.225.007-4.45-.017-6.674a2.322,2.322,0,0,1,.276-1.4,1.478,1.478,0,0,1,2.238-.006,1.965,1.965,0,0,1,.278,1.214c0,2.29-.026,4.58.009,6.868a7.629,7.629,0,0,0,4.98,6.837c1.656.641,3.459.424,5.193.45a1.88,1.88,0,0,1,1.4.387,1.748,1.748,0,0,1,.441,1.391c0,1.851-.009,3.7,0,5.553,2.285-2.286,4.554-4.588,6.839-6.87.521-.584,1.353-.443,2.049-.46,9.761.015,19.52,0,29.278.006a7.569,7.569,0,0,0,5.986-2.82,7.672,7.672,0,0,0,1.7-4.845c.007-7.539,0-15.078.006-22.619a8.561,8.561,0,0,0-.673-3.828,7.591,7.591,0,0,0-6.818-4.495q-20.839-.022-41.679-.007a10.153,10.153,0,0,0-3.472.376,7.639,7.639,0,0,0-4.908,5.01,16,16,0,0,0-.335,4.626c-.024,2.286.043,4.575-.03,6.859a1.405,1.405,0,0,1-2.3.836,1.681,1.681,0,0,1-.454-1.4q.014-4.074,0-8.149a10.908,10.908,0,0,1,.986-4.943A10.432,10.432,0,0,1,45.644,0Z" transform="translate(-6.558)" fill="#0065bb"/>
      <path id="Path_488" data-name="Path 488" d="M286.028,45.492a1.368,1.368,0,0,1,1.525-1.227,1.387,1.387,0,0,1,1.227,1.414c.022,1.23,0,2.461.007,3.689,2.612.007,5.225-.011,7.839.007a1.317,1.317,0,0,1,1.4,1.156,1.336,1.336,0,0,1-1.212,1.6c-1.18.043-2.362,0-3.544.015a22.658,22.658,0,0,1-4.11,10.674,30.741,30.741,0,0,0,7.159,6.144,2.42,2.42,0,0,1,.952.863,1.475,1.475,0,0,1-1.4,1.981,3.74,3.74,0,0,1-1.353-.686,34.544,34.544,0,0,1-7.132-6.059,34.434,34.434,0,0,1-7.75,6.457,1.4,1.4,0,0,1-2.1-1.738,1.966,1.966,0,0,1,.743-.7,30.638,30.638,0,0,0,7.343-6.272,22.847,22.847,0,0,1-4.123-10.6c-1.258-.2-2.6.074-3.871-.133a1.44,1.44,0,0,1-.393-2.425,1.9,1.9,0,0,1,1.227-.287q3.769.008,7.535,0c.017-1.291-.037-2.585.02-3.876m-1.708,6.657a19.617,19.617,0,0,0,3.079,8.273,19.723,19.723,0,0,0,3.072-8.273Q287.4,52.147,284.32,52.149Z" transform="translate(-226.686 -36.054)" fill="#0065bb"/>
      <path id="Path_490" data-name="Path 490" d="M132.831,263.015a1.421,1.421,0,0,1,1.973-.858c.611.291.749,1.013.963,1.59q3.974,11.417,7.969,22.827a5.938,5.938,0,0,1,.476,1.742,1.444,1.444,0,0,1-2.442.774,6.214,6.214,0,0,1-.63-1.51q-1.087-3.124-2.179-6.248h-9.355c-.83,2.44-1.625,4.9-2.474,7.328a1.374,1.374,0,0,1-2.177.55,1.343,1.343,0,0,1-.372-1.649q4.122-12.273,8.247-24.546m1.358,4.7c-1.23,3.609-2.431,7.228-3.648,10.841q3.724,0,7.448,0C136.72,274.94,135.481,271.316,134.189,267.712Z" transform="translate(-102.609 -213.458)" fill="#0065bb"/>
    </g>
    <g id="Ellipse_11" data-name="Ellipse 11" transform="translate(-22230 -4019)" fill="none" stroke="#0065bb" stroke-width="3">
      <circle cx="89.491" cy="89.491" r="89.491" stroke="none"/>
      <circle cx="89.491" cy="89.491" r="87.991" fill="none"/>
    </g>
  </g>
</svg>
