<svg xmlns="http://www.w3.org/2000/svg" xmlns:xlink="http://www.w3.org/1999/xlink" width="178.982" height="178.982" viewBox="0 0 178.982 178.982">
  <defs>
    <clipPath id="clip-path">
      <rect id="Rectangle_574" data-name="Rectangle 574" width="89.497" height="94.864" fill="none"/>
    </clipPath>
  </defs>
  <g id="ایران_شناسی" data-name="ایران شناسی" transform="translate(21781 4004)">
    <g id="Ellipse_11" data-name="Ellipse 11" transform="translate(-21781 -4004)" fill="none" stroke="#0065bb" stroke-width="3">
      <circle cx="89.491" cy="89.491" r="89.491" stroke="none"/>
      <circle cx="89.491" cy="89.491" r="87.991" fill="none"/>
    </g>
    <g id="Group_550" data-name="Group 550" transform="translate(-21736 -3962)">
      <g id="Group_549" data-name="Group 549" clip-path="url(#clip-path)">
        <path id="Path_1821" data-name="Path 1821" d="M29.577,18.141a3.254,3.254,0,0,1,2.074.514,7.032,7.032,0,0,1,3.767,6c.021,2.018.01,4.037,0,6.06a1.827,1.827,0,0,1-1.7,1.939h-.019c-2.443.032-4.888.015-7.331,0A1.826,1.826,0,0,1,24.5,30.865h0v-.131c0-2.036-.014-4.071,0-6.1a7.021,7.021,0,0,1,5.067-6.494Zm-2.286,6.438c-.067,1.785,0,3.575-.029,5.364h5.352c-.021-1.785.046-3.574-.029-5.358a4.376,4.376,0,0,0-2.635-3.451,4.334,4.334,0,0,0-2.642,3.451Z" fill="#0065bb"/>
        <path id="Path_1822" data-name="Path 1822" d="M65.863,53.3a4.166,4.166,0,1,1-3.025,5.056,4.072,4.072,0,0,1-.117-.744A4.169,4.169,0,0,1,65.863,53.3m.523,2.745a1.4,1.4,0,1,0,.732-.062,1.4,1.4,0,0,0-.732.062" fill="#0065bb"/>
        <path id="Path_1823" data-name="Path 1823" d="M78.83,53.287a4.167,4.167,0,1,1-3.114,5v0a4.16,4.16,0,0,1,3.111-5m.376,2.792a1.393,1.393,0,1,0,.645-.112,1.394,1.394,0,0,0-.645.112" fill="#0065bb"/>
        <path id="Path_1824" data-name="Path 1824" d="M88.1,72.765a1.4,1.4,0,0,0,1.4-1.4V48.791a1.444,1.444,0,0,0-1.472-1.165c-12.609,0-20.186,0-32.5-.013a1.146,1.146,0,0,1-1.151-1.124c.013-1.914.013-3.815,0-5.729v-.067A1.368,1.368,0,0,0,53.034,39.3h-.026c-.509-.013-1.017-.013-1.539-.013H49.942a1.125,1.125,0,0,1-1.124-1.126V25.767A26.568,26.568,0,0,0,31.43.268,6.745,6.745,0,0,0,30.292,0h-.736a8.01,8.01,0,0,0-.977.254A26.507,26.507,0,0,0,11.11,25.018V38.149a1.137,1.137,0,0,1-1.136,1.138h0c-1.044-.013-2.1-.027-3.146.013a1.371,1.371,0,0,0-1.272,1.446c-.013,1.914,0,3.828,0,5.742a1.145,1.145,0,0,1-1.138,1.138c-1.044-.013-2.1-.027-3.159.013A1.408,1.408,0,0,0,0,48.791v25.9a1.406,1.406,0,0,0,2.784.281V51.535A1.126,1.126,0,0,1,3.9,50.4h.008c1.057,0,2.1.013,3.159-.013A1.392,1.392,0,0,0,8.34,48.928V43.2a1.134,1.134,0,0,1,1.138-1.124H50.464A1.125,1.125,0,0,1,51.6,43.19v3.3a1.137,1.137,0,0,1-1.136,1.138H13.346c-.576.013-1.258-.094-1.727.321l-.08.08A1.394,1.394,0,0,0,11.525,50a1.581,1.581,0,0,0,1.272.4H56.019a1.137,1.137,0,0,1,1.138,1.136V90.942a1.137,1.137,0,0,1-1.136,1.138H49.942A1.137,1.137,0,0,1,48.8,90.948V55.4a2.7,2.7,0,0,0-.281-1.673,1.483,1.483,0,0,0-1.285-.549q-17.328-.02-34.656,0h-.147a1.4,1.4,0,0,0-1.325,1.471h0V90.942A1.137,1.137,0,0,1,9.972,92.08H3.922a1.137,1.137,0,0,1-1.138-1.136V80.983A1.406,1.406,0,0,0,0,81.265V93.686a1.554,1.554,0,0,0,1.191,1.178H88.333A1.54,1.54,0,0,0,89.5,93.673V79.042a1.4,1.4,0,0,0-2.784-.174V90.956a1.137,1.137,0,0,1-1.136,1.138H61.066a1.137,1.137,0,0,1-1.138-1.136V51.535A1.136,1.136,0,0,1,61.066,50.4H85.588a1.137,1.137,0,0,1,1.138,1.136v20A1.4,1.4,0,0,0,88.1,72.765M46.034,38.149A1.137,1.137,0,0,1,44.9,39.287H15.032a1.137,1.137,0,0,1-1.138-1.136v0l.013-13.131A23.693,23.693,0,0,1,29.569,2.851a1.409,1.409,0,0,1,.937.04A23.723,23.723,0,0,1,46.034,25.018Zm-10.6,52.918a1.23,1.23,0,0,1-1.259,1.2H25.7a1.226,1.226,0,0,1-1.246-1.2V78.285a1.084,1.084,0,0,1,1.109-1.054l8.609-.012a1.23,1.23,0,0,1,1.261,1.2V91.067Zm5.049-.125a1.137,1.137,0,0,1-1.136,1.138h-.511a1.137,1.137,0,0,1-1.138-1.136v0q.02-7.229,0-14.443v-.08a1.383,1.383,0,0,0-1.361-1.4h-.018c-4.2-.013-8.406,0-12.609,0h-.174a1.4,1.4,0,0,0-1.3,1.493V90.944A1.137,1.137,0,0,1,21.1,92.08h-.509a1.137,1.137,0,0,1-1.138-1.136V76.513a15.984,15.984,0,0,1,.91-5.368,15.792,15.792,0,0,1,3.561-5.716,15.487,15.487,0,0,1,5.635-3.681,1.113,1.113,0,0,1,.83,0A15.714,15.714,0,0,1,39.6,71.2a16.473,16.473,0,0,1,.883,5.689Zm5.568,0A1.137,1.137,0,0,1,44.91,92.08h-.524a1.134,1.134,0,0,1-1.124-1.138c.013-4.805,0-9.624,0-14.43A18.457,18.457,0,0,0,30.493,58.83a1.409,1.409,0,0,0-.937-.04,18.418,18.418,0,0,0-12.89,17.535V90.942a1.134,1.134,0,0,1-1.124,1.138h-.509A1.137,1.137,0,0,1,13.9,90.944V57.09a1.137,1.137,0,0,1,1.136-1.138H44.909a1.137,1.137,0,0,1,1.138,1.136V90.942Z" fill="#0065bb"/>
        <path id="Path_1825" data-name="Path 1825" d="M2.811,81.264V86.31a1.9,1.9,0,0,1-.027.281V80.983a1.9,1.9,0,0,1,.027.281" fill="#0065bb"/>
        <path id="Path_1826" data-name="Path 1826" d="M2.811,69.645v5.046a1.9,1.9,0,0,1-.027.281V69.365a1.9,1.9,0,0,1,.027.281" fill="#0065bb"/>
      </g>
    </g>
  </g>
</svg>
