<svg xmlns="http://www.w3.org/2000/svg" width="178.982" height="178.982" viewBox="0 0 178.982 178.982">
  <g id="ادبیات" transform="translate(21560 4004)">
    <g id="Ellipse_11" data-name="Ellipse 11" transform="translate(-21560 -4004)" fill="none" stroke="#0065bb" stroke-width="3">
      <circle cx="89.491" cy="89.491" r="89.491" stroke="none"/>
      <circle cx="89.491" cy="89.491" r="87.991" fill="none"/>
    </g>
    <g id="ادبیات_و_علوم_انسانی" data-name="ادبیات و علوم انسانی" transform="translate(-21518 -3962)">
      <path id="Path_449" data-name="Path 449" d="M149.937,0h2.345a28.347,28.347,0,0,1,4.768.748,23.924,23.924,0,0,1,11.874,39.144c0,2,.015,3.992,0,5.986a1.908,1.908,0,0,1-1.807,1.937c-2.36.043-4.72-.006-7.082.02a2.107,2.107,0,0,1-1.591-.392,1.4,1.4,0,0,1,.013-2.031c.5-.486,1.255-.347,1.892-.375.013-1.766-.02-3.533.011-5.3a1.382,1.382,0,1,1,2.765,0c.028,1.768,0,3.537.009,5.307,1,.007,2.007,0,3.01,0,0-3.377.006-6.755,0-10.134a5.007,5.007,0,0,0-2.976-4.608c-1.268-.59-2.7-.4-4.051-.436a3.287,3.287,0,0,0-1.51.171c-1.006.542-2,1.114-3.006,1.654a7.094,7.094,0,0,1-4.584.817c-1.9-.282-3.448-1.495-5.117-2.341a3.73,3.73,0,0,0-2.13-.3,10.1,10.1,0,0,0-3.309.286,5.118,5.118,0,0,0-3.353,5.312c.009,3.194,0,6.385.006,9.579,1,0,2.007.007,3.012-.009q-.008-2.565,0-5.128a1.471,1.471,0,0,1,.527-1.257,1.4,1.4,0,0,1,1.953.228,2.16,2.16,0,0,1,.31,1.422c-.011,1.58-.007,3.162-.006,4.744q5.353,0,10.708,0a1.675,1.675,0,0,1,1.216.358,1.4,1.4,0,0,1,.011,2.059,1.665,1.665,0,0,1-1.227.373q-7.985,0-15.97,0a13.71,13.71,0,0,1-1.77-.048,1.907,1.907,0,0,1-1.545-1.911c-.017-1.859,0-3.719,0-5.58.071-.477-.342-.785-.6-1.121a23.918,23.918,0,0,1-2.315-27.215c.316-.514.594-1.17,1.227-1.352a1.4,1.4,0,0,1,1.762.98,1.55,1.55,0,0,1-.256,1.233,21.207,21.207,0,0,0,.165,22.472,7.9,7.9,0,0,1,4.837-7.616c2.146-.943,4.532-.429,6.786-.641.507-.356.221-1.108.308-1.636a10.127,10.127,0,0,1-3.359-4.443,13.5,13.5,0,0,1-.5-3.485c-.158-2.236-.343-4.471-.483-6.708a10.529,10.529,0,0,1,1.669-6.177,22,22,0,0,0-5.264,3.34,1.4,1.4,0,0,1-1.905-.006,1.385,1.385,0,0,1,.045-2.052A24.241,24.241,0,0,1,149.937,0M144.6,6.647a8.725,8.725,0,0,0-.813,5.461,7.9,7.9,0,0,0,2.076-2.872,6.286,6.286,0,0,1,1.361-2.523,1.689,1.689,0,0,1,2.364.212,16.419,16.419,0,0,0,5.854,4.167c.988.425,2.065.611,3.019,1.116a13.118,13.118,0,0,0,.028-3.123A7.452,7.452,0,0,0,144.6,6.647M159.676,4.6a10.46,10.46,0,0,1,1.664,6.352q-.3,4.186-.616,8.372a9.11,9.11,0,0,1-3.708,6.07,12.912,12.912,0,0,0,.039,1.341c.158.481.745.327,1.125.356a19.9,19.9,0,0,1,5.138.312,7.784,7.784,0,0,1,3.782,2.468,7.994,7.994,0,0,1,1.836,5.42,21.146,21.146,0,0,0-9.26-30.69m-13.133,8.684c-.815.845-1.654,1.664-2.484,2.494.078,1.142.143,2.288.26,3.426.312,2.089,1.985,3.654,3.717,4.69,1.225.678,2.67,1.378,4.1.912a9.477,9.477,0,0,0,5-3.561c1.144-1.641.85-3.736,1.066-5.62a3.961,3.961,0,0,0-1.786-1.261,18.022,18.022,0,0,1-7.78-4.471,10.812,10.812,0,0,1-2.085,3.392m1.463,13.712a5.666,5.666,0,0,1-.535,1.419c1.151.6,2.284,1.445,3.65,1.4,1.365.039,2.508-.785,3.656-1.4A4.758,4.758,0,0,1,154.254,27a9.884,9.884,0,0,1-2.785.728A7.857,7.857,0,0,1,148.006,26.994Z" transform="translate(-103.59)" fill="#0065bb"/>
      <path id="Path_451" data-name="Path 451" d="M1.552,216.249a8.041,8.041,0,0,1,9.6,2.317,6.488,6.488,0,0,1,6.283,3.311,6.359,6.359,0,0,1,6.205,4.395c.964,3.461,1.862,6.939,2.8,10.405a3.172,3.172,0,0,0,1.777,2.137c1.389.78,2.75,1.6,4.144,2.371-.42-2.048-1.205-4.02-1.465-6.1a8.039,8.039,0,0,1,6.389-8.506,3.432,3.432,0,0,1,3.717,2.438c1.344,4.956,2.661,9.921,3.994,14.88a41.812,41.812,0,0,1,1.352,7.546c.206,2.282.141,4.575.152,6.864-.006,3.532.009,7.065-.006,10.6a1.68,1.68,0,0,1-1.307,1.664H29.242a1.646,1.646,0,0,1-1.337-1.339c-.134-2.52.121-5.056-.152-7.568a10.362,10.362,0,0,0-3.286-6.077c-.563-.661-1.524-1.162-1.578-2.117a1.391,1.391,0,0,1,2.1-1.214,26.7,26.7,0,0,1,2,1.918,12.875,12.875,0,0,1,3.667,8.784c.015,1.608,0,3.218.006,4.826q6.531.006,13.064,0V259.06a66.435,66.435,0,0,0-.331-9.119,66.811,66.811,0,0,0-2.055-8.976q-1.459-5.442-2.915-10.883c-.072-.356-.3-.791-.732-.737a5.228,5.228,0,0,0-3.983,5.765c.227,1.259.635,2.475.943,3.715a6.06,6.06,0,0,1,.407,2.926,2.924,2.924,0,0,1-2.921,2.165,4.51,4.51,0,0,1-2.074-.828c-5.054-2.93-10.119-5.838-15.173-8.766a5.655,5.655,0,0,1-2.674-3.5q-1-3.715-1.994-7.436a7.2,7.2,0,0,0-1.458-3.316,5.246,5.246,0,0,0-6-1.331c1.194,4.523,2.418,9.039,3.624,13.56a7.489,7.489,0,0,0,2.054,3.463q5.974,5.913,11.937,11.839a1.654,1.654,0,0,1,.631,1.255,1.4,1.4,0,0,1-1.513,1.348,1.611,1.611,0,0,1-1-.54q-6.094-6.058-12.2-12.11a10.207,10.207,0,0,1-2.627-4.636C2.449,228.334,1.2,223.763,0,219.177v-.652a3.057,3.057,0,0,1,1.552-2.276M12.581,221.4c.745,2.839,1.517,5.672,2.271,8.508a3.064,3.064,0,0,0,.94,1.645,14.133,14.133,0,0,0,1.8,1.114q-1.156-4.35-2.33-8.7a3.592,3.592,0,0,0-2.683-2.572m7.7,10.515a6.54,6.54,0,0,0,1.094,2.783,9.623,9.623,0,0,0,2.013,1.313c-.789-2.917-1.558-5.841-2.354-8.757a3.7,3.7,0,0,0-2.625-2.534C18.928,227.142,19.674,229.515,20.281,231.918Z" transform="translate(0 -175.502)" fill="#0065bb"/>
      <path id="Path_452" data-name="Path 452" d="M299.167,216.629a8,8,0,0,1,7.171-.416,3.075,3.075,0,0,1,1.682,2.321v.637c-1.159,4.523-2.412,9.022-3.6,13.538a10.555,10.555,0,0,1-1.582,3.539,19.692,19.692,0,0,1-2.41,2.629q-8.614,8.556-17.234,17.11a10.088,10.088,0,0,0-3.036,7c-.035,2.042.024,4.089-.026,6.131A1.647,1.647,0,0,1,278.8,270.6h-15.94a1.662,1.662,0,0,1-1.341-1.675c-.011-4.583,0-9.163,0-13.746a41.412,41.412,0,0,1,1.12-9.748c1.367-5.282,2.826-10.543,4.215-15.82a4.4,4.4,0,0,1,.73-1.691,3.441,3.441,0,0,1,3.489-1.248,8.039,8.039,0,0,1,5.893,9.479c-.394,1.7-.928,3.363-1.309,5.065,1.517-.83,3.006-1.708,4.5-2.579a2.932,2.932,0,0,0,1.389-1.8c.956-3.509,1.864-7.035,2.841-10.541a6.35,6.35,0,0,1,6.2-4.382,6.5,6.5,0,0,1,6.293-3.312,8.63,8.63,0,0,1,2.3-1.97m1.942,2.13a5.216,5.216,0,0,0-2.969,3.4c-.772,2.839-1.524,5.684-2.289,8.524a6.073,6.073,0,0,1-3.429,4.085c-5.065,2.919-10.121,5.854-15.19,8.766a2.892,2.892,0,0,1-3.329-.269,2.852,2.852,0,0,1-.962-2.755c.41-1.749.971-3.461,1.348-5.217a5.267,5.267,0,0,0-3.743-5.879.668.668,0,0,0-.895.527q-2.005,7.422-3.983,14.852a38.509,38.509,0,0,0-1.357,9.288c-.03,4.577-.006,9.154-.013,13.731q6.531,0,13.064,0c0-1.608-.006-3.214,0-4.82a12.838,12.838,0,0,1,3.769-8.89q8.988-8.932,17.985-17.853a9.488,9.488,0,0,0,1.77-2.12,12.825,12.825,0,0,0,1.147-3.3c1.071-4.022,2.163-8.038,3.223-12.062a5.21,5.21,0,0,0-4.15-.013m-8.357,5.249q-1.173,4.345-2.328,8.692c1.032-.577,2.291-1.135,2.635-2.386.81-2.954,1.595-5.914,2.38-8.875a3.577,3.577,0,0,0-2.687,2.57m-5.136,2.039a5.641,5.641,0,0,0-.908,2.254q-1.036,3.871-2.076,7.743c1.06-.587,2.345-1.173,2.666-2.466.776-2.941,1.615-5.867,2.334-8.822A3.927,3.927,0,0,0,287.616,226.046Z" transform="translate(-212.954 -175.533)" fill="#0065bb"/>
    </g>
  </g>
</svg>
