<svg xmlns="http://www.w3.org/2000/svg" width="178.982" height="178.982" viewBox="0 0 178.982 178.982">
  <g id="ریاضی" transform="translate(21118 4004)">
    <g id="Ellipse_11" data-name="Ellipse 11" transform="translate(-21118 -4004)" fill="none" stroke="#0065bb" stroke-width="3">
      <circle cx="89.491" cy="89.491" r="89.491" stroke="none"/>
      <circle cx="89.491" cy="89.491" r="87.991" fill="none"/>
    </g>
    <g id="ریاضی-2" data-name="ریاضی" transform="translate(-21071 -3962)">
      <path id="Path_499" data-name="Path 499" d="M129.84,0h.48c1.091.231,1.305,1.452,1.789,2.281q8.048,16.18,16.1,32.36a1.393,1.393,0,0,1-1.446,2.024c-.852-.113-1.141-1.018-1.481-1.674Q138.4,21.133,131.493,7.286a10.748,10.748,0,0,1-.137,2.674,1.4,1.4,0,0,1-2.5.006,10.6,10.6,0,0,1-.137-2.677q-12.009,24.1-24,48.218c-.383.683-.611,1.655-1.472,1.879a1.385,1.385,0,0,1-1.731-1.472,9.068,9.068,0,0,1,.818-1.857q12.947-26.014,25.9-52.031C128.638,1.268,128.884.237,129.84,0Z" transform="translate(-87.823)" fill="#0065bb"/>
      <path id="Path_500" data-name="Path 500" d="M249.175,68.728a1.39,1.39,0,0,1,2,.844,16.158,16.158,0,0,1,.063,2.222,1.569,1.569,0,0,1-.644,1.492,1.384,1.384,0,0,1-2.109-.959c-.059-.792-.037-1.589-.019-2.381A1.37,1.37,0,0,1,249.175,68.728Z" transform="translate(-207.56 -55.864)" fill="#0065bb"/>
      <path id="Path_501" data-name="Path 501" d="M249.328,105.84a1.38,1.38,0,0,1,1.872,1.07,23.278,23.278,0,0,1,.02,2.385,1.377,1.377,0,0,1-2.744.183c-.052-.794-.037-1.592-.013-2.387A1.363,1.363,0,0,1,249.328,105.84Z" transform="translate(-207.559 -86.161)" fill="#0065bb"/>
      <path id="Path_502" data-name="Path 502" d="M249.309,143.012a1.382,1.382,0,0,1,1.864,1.211,18.156,18.156,0,0,1-.035,2.6,1.389,1.389,0,0,1-2.233.722c-.744-.639-.426-1.724-.5-2.579C248.338,144.217,248.5,143.282,249.309,143.012Z" transform="translate(-207.519 -116.456)" fill="#0065bb"/>
      <path id="Path_503" data-name="Path 503" d="M249.364,180.206a1.38,1.38,0,0,1,1.848,1.2c.039.8.039,1.6,0,2.392a1.374,1.374,0,0,1-2.74,0c-.039-.8-.039-1.6,0-2.4A1.347,1.347,0,0,1,249.364,180.206Z" transform="translate(-207.56 -146.768)" fill="#0065bb"/>
      <path id="Path_504" data-name="Path 504" d="M191.9,214.1a1.422,1.422,0,0,1,1.129-1.531,1.382,1.382,0,0,1,1.637,1.329c.033,1.416,0,2.837.013,4.255,1.337.085,2.814-.274,4.023.465a3.344,3.344,0,0,1,1.59,3.081c-.044,1.287.085,2.585-.072,3.864a1.394,1.394,0,0,1-2.618.078c-.25-1.468.05-2.985-.15-4.457-.05-.05-.15-.15-.2-.2a23.406,23.406,0,0,0-2.575-.052c-.017,1.431.026,2.862-.017,4.292A1.378,1.378,0,0,1,193,226.512a1.41,1.41,0,0,1-1.1-1.487Q191.889,219.562,191.9,214.1Z" transform="translate(-161.478 -173.189)" fill="#0065bb"/>
      <path id="Path_505" data-name="Path 505" d="M88.51,215.417a1.388,1.388,0,0,1,2.168-.281,10.149,10.149,0,0,1,.989,1.8q9.909,19.9,19.817,39.8a4.248,4.248,0,0,1,.631,3.042c-.417,1.852-2.053,3.077-3.61,3.977a40.056,40.056,0,0,1-10.805,3.56,142.149,142.149,0,0,1-26.4,2.461H68.535a156.553,156.553,0,0,1-22.142-1.689,65.83,65.83,0,0,1-11.47-2.735,18.957,18.957,0,0,1-5.056-2.561,5.356,5.356,0,0,1-2.151-3.022,3.62,3.62,0,0,1,.33-2.416q5.171-10.392,10.342-20.783a1.647,1.647,0,0,1,1-.989,1.4,1.4,0,0,1,1.716.95,1.736,1.736,0,0,1-.213,1.263q-3.9,7.81-7.784,15.63a52.245,52.245,0,0,1,10.309-2.929,153.947,153.947,0,0,1,30.764-2.159c.628.015,1.4-.022,1.811.55a1.38,1.38,0,0,1-.883,2.218c-1.266.074-2.537-.039-3.8-.03a10.684,10.684,0,0,1-.141,2.742,1.4,1.4,0,0,1-2.488.011,10.526,10.526,0,0,1-.144-2.753c-3.923.044-7.848.187-11.761.492a103.377,103.377,0,0,0-17.56,2.725,28.727,28.727,0,0,0-6.682,2.525,4.836,4.836,0,0,0-2.044,1.879c-.222.5.139,1,.465,1.359a9.556,9.556,0,0,0,2.8,1.824,42.492,42.492,0,0,0,8.4,2.6,139.328,139.328,0,0,0,27.582,2.516A143.8,143.8,0,0,0,96.072,264.8a48.232,48.232,0,0,0,9.5-2.694,10.452,10.452,0,0,0,3.31-2.053c.328-.355.692-.863.468-1.365a4.115,4.115,0,0,0-1.59-1.585,23.049,23.049,0,0,0-5.325-2.285,74.665,74.665,0,0,0-11.211-2.377,11.247,11.247,0,0,1-2.307-.4,1.39,1.39,0,0,1-.276-2.251c.555-.535,1.374-.3,2.053-.226,5.44.787,10.935,1.724,16.034,3.853q-9.09-18.26-18.18-36.523A1.486,1.486,0,0,1,88.51,215.417Z" transform="translate(-27.634 -174.976)" fill="#0065bb"/>
      <path id="Path_506" data-name="Path 506" d="M249.555,217.35a1.376,1.376,0,0,1,1.655,1.205c.044.8.039,1.6.006,2.4a1.374,1.374,0,0,1-2.746-.013c-.031-.792-.037-1.589.006-2.381A1.357,1.357,0,0,1,249.555,217.35Z" transform="translate(-207.562 -177.08)" fill="#0065bb"/>
      <path id="Path_507" data-name="Path 507" d="M249.16,254.67a1.389,1.389,0,0,1,2.04,1.22,11.5,11.5,0,0,1-.111,2.731,1.4,1.4,0,0,1-2.535.009,10.8,10.8,0,0,1-.122-2.566A1.445,1.445,0,0,1,249.16,254.67Z" transform="translate(-207.539 -207.377)" fill="#0065bb"/>
      <path id="Path_508" data-name="Path 508" d="M249.316,291.808a1.379,1.379,0,0,1,1.883,1.061c.065.739.033,1.481.03,2.22a1.443,1.443,0,0,1-.854,1.455,1.379,1.379,0,0,1-1.9-1.087c-.054-.8-.039-1.6-.015-2.394A1.366,1.366,0,0,1,249.316,291.808Z" transform="translate(-207.56 -237.693)" fill="#0065bb"/>
      <path id="Path_509" data-name="Path 509" d="M249.3,328.984a1.381,1.381,0,0,1,1.87,1.233,18.161,18.161,0,0,1-.037,2.579,1.39,1.39,0,0,1-2.231.716c-.742-.633-.431-1.709-.5-2.559C248.336,330.2,248.482,329.258,249.3,328.984Z" transform="translate(-207.517 -267.994)" fill="#0065bb"/>
      <path id="Path_510" data-name="Path 510" d="M304.052,362.937a1.385,1.385,0,0,1,1.807-1.274c.511.13.766.617.987,1.048a7.822,7.822,0,0,1,3.19.344,3.946,3.946,0,0,1,2.355,3.979,1.393,1.393,0,0,1-2.251.739c-.691-.513-.27-1.642-1.05-2.083a5.558,5.558,0,0,0-2.27-.2c0,2.116,0,4.234.006,6.352a2,2,0,0,1-.32,1.363,1.393,1.393,0,0,1-2.068.091,1.858,1.858,0,0,1-.4-1.453C304.056,368.877,304.025,365.905,304.052,362.937Z" transform="translate(-252.861 -294.641)" fill="#0065bb"/>
      <path id="Path_511" data-name="Path 511" d="M249.354,366.178a1.382,1.382,0,0,1,1.837,1.022,21.236,21.236,0,0,1,.033,2.379,1.4,1.4,0,0,1-.9,1.37,1.378,1.378,0,0,1-1.851-1.17q-.058-1.2,0-2.407A1.352,1.352,0,0,1,249.354,366.178Z" transform="translate(-207.559 -298.306)" fill="#0065bb"/>
      <path id="Path_512" data-name="Path 512" d="M248.446,441.69a1.38,1.38,0,0,1,1.9-1.115c.446.156.659.6.87.985a1.664,1.664,0,0,1,1.044,1.044,1.389,1.389,0,0,1-1.335,1.742c-.7,0-1.546.152-2.09-.4C248.25,443.36,248.428,442.44,248.446,441.69Z" transform="translate(-207.531 -358.912)" fill="#0065bb"/>
      <path id="Path_513" data-name="Path 513" d="M317.525,446.447a18.9,18.9,0,0,1,2.612-.011,1.386,1.386,0,0,1,.9,2.209c-.483.678-1.394.53-2.116.548-.735-.035-1.655.161-2.185-.492A1.389,1.389,0,0,1,317.525,446.447Z" transform="translate(-262.944 -363.746)" fill="#0065bb"/>
      <path id="Path_514" data-name="Path 514" d="M354.313,446.442a19.443,19.443,0,0,1,2.607,0,1.387,1.387,0,0,1,.892,2.168c-.5.75-1.5.555-2.274.583-.724-.015-1.64.124-2.113-.565A1.388,1.388,0,0,1,354.313,446.442Z" transform="translate(-292.883 -363.749)" fill="#0065bb"/>
      <path id="Path_515" data-name="Path 515" d="M280.368,446.626a4.161,4.161,0,0,1,1.777-.2c.655.037,1.429-.13,1.968.346a1.4,1.4,0,0,1,.007,2.1c-.539.483-1.316.309-1.974.348-.7-.037-1.546.148-2.077-.426A1.4,1.4,0,0,1,280.368,446.626Z" transform="translate(-233.015 -363.774)" fill="#0065bb"/>
      <path id="Path_516" data-name="Path 516" d="M390.618,446.576a8.053,8.053,0,0,1,2.872-.194,1.386,1.386,0,0,1,1.331,1.757,1.422,1.422,0,0,1-1.513,1.009,10.311,10.311,0,0,1-2.553-.126A1.4,1.4,0,0,1,390.618,446.576Z" transform="translate(-322.881 -363.709)" fill="#0065bb"/>
      <path id="Path_517" data-name="Path 517" d="M427.368,446.611a4.921,4.921,0,0,1,1.942-.191c.6.026,1.309-.1,1.8.35a1.4,1.4,0,0,1,0,2.1c-.537.478-1.309.3-1.963.343-.7-.037-1.546.148-2.079-.422A1.394,1.394,0,0,1,427.368,446.611Z" transform="translate(-352.787 -363.764)" fill="#0065bb"/>
    </g>
  </g>
</svg>
