<svg xmlns="http://www.w3.org/2000/svg" width="178.982" height="178.982" viewBox="0 0 178.982 178.982">
  <g id="علوم" transform="translate(20676 4004)">
    <g id="Ellipse_11" data-name="Ellipse 11" transform="translate(-20676 -4004)" fill="none" stroke="#0065bb" stroke-width="3">
      <circle cx="89.491" cy="89.491" r="89.491" stroke="none"/>
      <circle cx="89.491" cy="89.491" r="87.991" fill="none"/>
    </g>
    <g id="پایه" transform="translate(-20628 -3962)">
      <path id="Path_462" data-name="Path 462" d="M70.629,0h.531a8.774,8.774,0,0,1,5.275,2.25c3.309,2.924,5.323,6.988,6.882,11.046a74.731,74.731,0,0,1,2.537,8.243,62.479,62.479,0,0,1,11.165-2.327,29.063,29.063,0,0,1,7.732.167,11.6,11.6,0,0,1,5.721,2.52,7.741,7.741,0,0,1,2.466,6.247,19.018,19.018,0,0,1-3,8.422,5.838,5.838,0,0,1-3.673,9.413,6.212,6.212,0,0,1-3.5-.537q-1.005.969-2,1.95A56.121,56.121,0,0,1,110.1,58.57a25.378,25.378,0,0,1,1.6,3.186c1.068,2.531,1.74,5.464.785,8.137a8.236,8.236,0,0,1-5.043,4.808,22.385,22.385,0,0,1-9.422.979,59.74,59.74,0,0,1-12.187-2.425,56.169,56.169,0,0,1-5.014,13.686,21.142,21.142,0,0,1-3.909,5.145A8.9,8.9,0,0,1,71.181,94.8h-.47a8.6,8.6,0,0,1-4.514-1.6,19.551,19.551,0,0,1-5.454-6.614,6.5,6.5,0,0,1-2.985-.268,5.833,5.833,0,0,1-1.126-10.448c-.215-.861-.448-1.718-.648-2.581a58.751,58.751,0,0,1-13.4,2.437,21.422,21.422,0,0,1-7.154-.67,9.43,9.43,0,0,1-5.145-3.32A7.972,7.972,0,0,1,28.9,66.082a19.518,19.518,0,0,1,2.727-7.391,55.374,55.374,0,0,1,9.4-11.292c-4.064-3.94-7.961-8.21-10.494-13.323a14.15,14.15,0,0,1-1.6-7.623,7.482,7.482,0,0,1,3.12-5.125c2.727-1.918,6.186-2.3,9.432-2.32A6.2,6.2,0,0,1,43.586,16.2a5.836,5.836,0,0,1,6.4-.289,5.967,5.967,0,0,1,2.862,4.76q1.552.436,3.107.861a63.068,63.068,0,0,1,3.7-11.087,24.213,24.213,0,0,1,5.408-7.923A8.826,8.826,0,0,1,70.629,0M69.613,2.972a9.046,9.046,0,0,0-4.042,2.985,28.546,28.546,0,0,0-4.068,7.21,66.741,66.741,0,0,0-2.885,9.213,116.135,116.135,0,0,1,12.279,5,113.76,113.76,0,0,1,12.279-5.008A54.965,54.965,0,0,0,78.65,9.643a16.469,16.469,0,0,0-4.721-5.816,4.943,4.943,0,0,0-4.316-.855M45.971,18.043a3.055,3.055,0,1,0,4.047,2.327,3.063,3.063,0,0,0-4.047-2.327M36.3,22.366a6.226,6.226,0,0,0-4.271,3.2c-.767,1.813-.322,3.855.293,5.645a28.091,28.091,0,0,0,4.4,7.4,64.979,64.979,0,0,0,6.375,6.9,120.531,120.531,0,0,1,10.487-8.148,110.062,110.062,0,0,1,1.79-13.11c-1.02-.289-2.04-.57-3.059-.857A6.446,6.446,0,0,1,50.848,25.3a5.835,5.835,0,0,1-6.434.822,5.918,5.918,0,0,1-3.177-4.345,20.324,20.324,0,0,0-4.94.585M97.1,21.992a62.913,62.913,0,0,0-10.67,2.259,111.4,111.4,0,0,1,1.79,13.122,119.175,119.175,0,0,1,10.485,8.143c.628-.622,1.281-1.218,1.894-1.855a13.787,13.787,0,0,1-.761-1.653,5.853,5.853,0,0,1,2.135-6.5,5.92,5.92,0,0,1,5.732-.642,23.184,23.184,0,0,0,1.635-3.3c.709-1.883,1.213-4.055.42-5.991a5.582,5.582,0,0,0-3.516-2.951,21.5,21.5,0,0,0-9.145-.63m-39.946,8.2c-.222,1.742-.422,3.49-.633,5.234,1.268-.767,2.529-1.54,3.794-2.311,2.392-1.507,4.929-2.764,7.393-4.149C66.1,28.278,64.5,27.584,62.882,26.9c-1.613-.615-3.24-1.2-4.858-1.8-.291,1.694-.592,3.385-.867,5.082m-.913,8.739a132.625,132.625,0,0,0,0,16.941c2.792,1.827,5.627,3.594,8.535,5.23a2.128,2.128,0,0,1,.891.779,1.383,1.383,0,0,1-.622,1.881,1.817,1.817,0,0,1-1.707-.278c-2.3-1.311-4.534-2.742-6.806-4.1.368,3.457.854,6.895,1.5,10.311A123.178,123.178,0,0,0,85.554,55.859a133.823,133.823,0,0,0,0-16.93c-2.872-1.885-5.793-3.694-8.789-5.375a1.493,1.493,0,0,1-.905-1.526,1.386,1.386,0,0,1,2.016-1.024c2.525,1.366,4.927,2.951,7.395,4.418-.211-1.757-.415-3.514-.635-5.269-.276-1.687-.574-3.37-.863-5.053A123.717,123.717,0,0,0,56.245,38.928m48.231-1.62a3.056,3.056,0,1,0,3.957,2.679,3.08,3.08,0,0,0-3.957-2.679M49.105,44.115C47.778,45.2,46.469,46.3,45.151,47.4c1.322,1.1,2.637,2.207,3.97,3.294,1.4,1.063,2.811,2.111,4.218,3.166-.043-2.153-.111-4.3-.148-6.456.037-2.153.106-4.308.15-6.464-1.413,1.057-2.829,2.111-4.234,3.177m39.352-3.177c.044,2.155.113,4.308.15,6.464-.037,2.148-.107,4.3-.15,6.443,1.407-1.053,2.816-2.1,4.216-3.164,1.329-1.087,2.642-2.192,3.962-3.288q-1.311-1.1-2.627-2.19c-1.772-1.52-3.7-2.848-5.551-4.264M39.891,52.492c-2.983,3.231-5.832,6.728-7.484,10.848-.694,1.942-1.231,4.216-.256,6.158a6.32,6.32,0,0,0,4.138,2.918,23.128,23.128,0,0,0,8.361.393,62.471,62.471,0,0,0,10.713-2.263,109.983,109.983,0,0,1-1.729-12.418c-.054-.315.03-.742-.324-.905a113.979,113.979,0,0,1-10.228-7.941c-1.063,1.07-2.175,2.094-3.192,3.21m48.328,4.932A110.139,110.139,0,0,1,86.433,70.54a54.985,54.985,0,0,0,12.981,2.442,16.591,16.591,0,0,0,7.73-1.183,5.028,5.028,0,0,0,3-4.031,12.7,12.7,0,0,0-1.742-6.6,50.549,50.549,0,0,0-9.7-11.9,123.306,123.306,0,0,1-10.491,8.15m-8.471,5.31c-1.881,1.042-3.777,2.061-5.662,3.1,1.657.7,3.307,1.42,4.969,2.111,1.568.589,3.144,1.157,4.716,1.74.648-3.418,1.131-6.86,1.5-10.317-1.846,1.115-3.677,2.253-5.525,3.366M58.626,72.421c.209.852.426,1.7.639,2.551a6.33,6.33,0,0,1,3.755,1.063,5.8,5.8,0,0,1,2.462,5.44,5.971,5.971,0,0,1-2.192,3.951,20.613,20.613,0,0,0,2.722,3.907,7.844,7.844,0,0,0,3.973,2.574,4.948,4.948,0,0,0,3.951-.942,16.469,16.469,0,0,0,4.712-5.806,55,55,0,0,0,4.531-12.74,115.944,115.944,0,0,1-12.277-5,113.854,113.854,0,0,1-12.275,5.008m.309,5.443a3.055,3.055,0,1,0,3.788,2.475A3.077,3.077,0,0,0,58.935,77.864Z" transform="translate(-28.843)" fill="#0065bb"/>
      <path id="Path_463" data-name="Path 463" d="M208.6,200.668a10.29,10.29,0,1,1-7.254,5.856,10.309,10.309,0,0,1,7.254-5.856m.355,2.781a7.53,7.53,0,0,0-5.308,4.842,7.506,7.506,0,0,0,4.5,9.48,7.483,7.483,0,0,0,9.283-3.694,7.5,7.5,0,0,0-3.353-10.042A7.527,7.527,0,0,0,208.952,203.449Z" transform="translate(-168.668 -163.337)" fill="#0065bb"/>
    </g>
  </g>
</svg>
