<?xml version="1.0" standalone="no"?>
<!DOCTYPE svg PUBLIC "-//W3C//DTD SVG 1.1//EN" "http://www.w3.org/Graphics/SVG/1.1/DTD/svg11.dtd" >
<svg xmlns="http://www.w3.org/2000/svg">
<metadata>Generated by IcoMoon</metadata>
<defs>
<font id="icomoon" horiz-adv-x="1024">
<font-face units-per-em="1024" ascent="960" descent="-64" />
<missing-glyph horiz-adv-x="1024" />
<glyph unicode="&#x20;" horiz-adv-x="512" d="" />
<glyph unicode="&#xe900;" d="M776.107 832c47.36-1.707 84.48-41.387 82.773-89.173v0-590.080c1.707-47.36-35.413-87.467-82.773-89.173v0c-46.507 3.413-81.493 42.667-79.787 89.173v590.080c-1.707 46.507 33.707 85.76 79.787 89.173z" />
<glyph unicode="&#xe901;" d="M512 832c45.653-1.707 81.493-40.107 80.213-85.76 0-1.28 0-2.133 0-3.413v-589.653c3.413-45.653-30.72-85.333-76.373-88.747-1.28 0-2.133 0-3.413 0-47.36 1.707-84.48 41.387-82.773 89.173v0 589.227c-1.707 47.36 35.413 87.467 82.773 89.173v0z" />
<glyph unicode="&#xe902;" d="M247.893 832c46.507-3.413 81.493-42.667 79.787-89.173v-589.653c1.707-46.507-33.707-85.76-79.787-89.173-47.36 1.707-84.48 41.387-82.773 89.173v0 589.653c-1.707 47.36 35.413 87.467 82.773 89.173v0z" />
<glyph unicode="&#xe903;" d="M865.707 773.547h-384c-15.787 0-28.16-12.8-28.16-28.16v-594.347c0-15.787 12.8-28.16 28.16-28.16h134.4v156.16c0 9.387 7.68 17.493 17.493 17.493h82.347c9.387 0 17.493-7.68 17.493-17.493v-156.16h132.267c15.36-1.28 29.013 10.24 30.293 26.027 0 0.853 0 1.707 0 2.133v594.347c0 15.787-12.373 28.16-28.16 28.16-0.853 0-1.707 0-2.133 0zM644.267 413.44c1.28-8.107-4.267-16.213-12.8-17.493-1.707 0-2.987 0-4.693 0h-80.213c-8.107-1.28-16.213 4.267-17.493 12.8 0 1.707 0 2.987 0 4.693v80.213c-1.28 8.107 4.267 16.213 12.8 17.493 1.707 0 2.987 0 4.693 0h80.213c8.107 1.28 16.213-4.267 17.493-12.8 0-1.707 0-2.987 0-4.693v-80.213zM644.267 582.827c1.28-8.107-4.267-16.213-12.8-17.493-1.707 0-2.987 0-4.693 0h-80.213c-8.107-1.28-16.213 4.267-17.493 12.8 0 1.707 0 2.987 0 4.693v80.213c-1.28 8.107 4.267 16.213 12.8 17.493 1.707 0 2.987 0 4.693 0h80.213c8.107 1.28 16.213-4.267 17.493-12.8 0-1.707 0-2.987 0-4.693v-80.213zM820.053 413.44c0-9.387-7.68-17.493-17.493-17.493h-82.347c-9.387 0-17.493 7.68-17.493 17.493v80.213c0 9.387 7.68 17.493 17.493 17.493h82.347c9.387 0 17.493-7.68 17.493-17.493v-80.213zM820.053 582.827c0-9.387-7.68-17.493-17.493-17.493h-82.347c-9.387 0-17.493 7.68-17.493 17.493v80.213c0 9.387 7.68 17.493 17.493 17.493h82.347c9.387 0 17.493-7.68 17.493-17.493v-80.213z" />
<glyph unicode="&#xe904;" d="M366.507 582.4h-210.347c-15.787 0-28.16-12.373-28.16-28.16 0-0.853 0-1.707 0-2.133v-401.493c0-15.787 12.8-28.16 28.16-28.16h210.347c15.787 0 28.16 12.8 28.16 28.16v401.493c1.28 15.36-10.24 29.013-26.027 30.293-0.853 0-1.707 0-2.133 0zM318.72 244.053c0-9.387-7.68-17.493-17.493-17.493h-80.213c-9.387 0-17.493 7.68-17.493 17.493v82.347c0 9.387 7.68 17.493 17.493 17.493h80.213c9.387 0 17.493-7.68 17.493-17.493v-82.347zM318.72 413.44c1.28-8.107-4.267-16.213-12.8-17.493-1.707 0-2.987 0-4.693 0h-80.213c-8.107-1.28-16.213 4.267-17.493 12.8 0 1.707 0 2.987 0 4.693v80.213c-1.28 8.107 4.267 16.213 12.8 17.493 1.707 0 2.987 0 4.693 0h80.213c8.107 1.28 16.213-4.267 17.493-12.8 0-1.707 0-2.987 0-4.693v-80.213z" />
<glyph unicode="&#xe905;" d="M782.507 64h-546.987l-21.333 12.373c-20.053 13.653-30.72 37.547-27.733 61.44v623.36c-1.707 37.12 26.88 69.12 64.427 70.827 2.133 0 4.267 0 6.4 0h512.853c15.787 0.853 31.147-4.693 43.093-15.36 17.493-14.080 26.453-35.84 24.747-58.453v-620.373c2.56-23.893-8.107-47.36-27.733-61.44-8.107-5.973-17.493-10.24-27.733-12.373zM512 567.893h205.653c21.333 0 27.733 9.387 27.733 27.733v86.187c0 18.347-5.973 27.733-27.733 27.733h-411.307c-13.653 1.707-26.027-7.68-27.733-20.907 0-2.133 0-4.267 0-6.4v-86.187c-1.707-13.653 7.68-26.027 20.907-27.733 2.133 0 4.267 0 6.4 0h205.653zM683.947 294.4h-40.107c-11.52 1.707-22.613-5.973-24.747-17.92 0-2.133 0-4.267 0-6.827v-67.413c-1.707-11.52 5.973-22.613 17.92-24.747 2.133 0 4.267 0 6.827 0h76.8c11.52-1.707 22.613 5.973 24.747 17.92 0 2.133 0 4.267 0 6.827v67.413c1.707 11.52-5.973 22.613-17.92 24.747-2.133 0-4.267 0-6.827 0h-36.693zM343.040 294.4h-36.693c-18.347 0-27.733-9.387-27.733-24.747v-67.413c-1.707-11.52 5.973-22.613 17.92-24.747 2.133 0 4.267 0 6.827 0h76.8c11.52-1.707 22.613 5.973 24.747 17.92 0 2.133 0 4.267 0 6.827v67.413c1.707 11.52-5.973 22.613-17.92 24.747-2.133 0-4.267 0-6.827 0h-36.693zM512 294.4h-36.693c-11.52 1.707-22.613-5.973-24.747-17.92 0-2.133 0-4.267 0-6.827v-67.413c0-12.373 8.96-23.040 21.333-24.747h79.787c11.52-1.707 22.613 5.973 24.747 17.92 0 2.133 0 4.267 0 6.827v67.413c1.707 11.52-5.973 22.613-17.92 24.747-2.133 0-4.267 0-6.827 0h-40.107zM512 466.347h-40.107c-11.947 0-21.333-9.813-21.333-21.333v-70.827c0-11.947 9.813-21.333 21.333-21.333h79.787c11.947-1.707 22.613 6.4 24.32 18.347 0 1.28 0 2.133 0 3.413v70.827c0 11.947-9.387 21.76-21.333 21.76-1.28 0-2.133 0-3.413 0h-40.107zM343.040 352.853h36.693c15.36 0 24.747 5.973 24.747 21.333v67.413c0 18.347-9.387 24.747-24.747 24.747h-73.813c-18.347 0-27.733-5.973-27.733-24.747v-64.427c0-18.347 9.387-24.747 24.747-24.747h40.107zM683.947 466.347h-40.107c-15.36 0-24.747-5.973-24.747-21.333v-70.827c0-15.36 9.387-21.333 24.747-21.333h76.8c15.36 0 24.747 5.973 24.747 21.333v70.827c0 15.36-9.387 21.333-24.747 21.333h-36.693z" />
<glyph unicode="&#xe906;" d="M512 567.893h-205.653c-13.653-1.707-26.027 7.68-27.733 20.907 0 2.133 0 4.267 0 6.4v86.187c-1.707 13.653 7.68 26.027 20.907 27.733 2.133 0 4.267 0 6.4 0h411.733c21.333 0 27.733-9.387 27.733-27.733v-86.187c0-18.347-5.973-27.733-27.733-27.733h-205.653z" />
<glyph unicode="&#xe907;" d="M683.947 294.4h36.693c11.52 1.707 22.613-5.973 24.747-17.92 0-2.133 0-4.267 0-6.827v-67.413c1.707-11.52-5.973-22.613-17.92-24.747-2.133 0-4.267 0-6.827 0h-76.8c-11.52-1.707-22.613 5.973-24.747 17.92 0 2.133 0 4.267 0 6.827v67.413c-1.707 11.52 5.973 22.613 17.92 24.747 2.133 0 4.267 0 6.827 0h40.107z" />
<glyph unicode="&#xe908;" d="M343.040 294.4h36.693c11.52 1.707 22.613-5.973 24.747-17.92 0-2.133 0-4.267 0-6.827v-67.413c1.707-11.52-5.973-22.613-17.92-24.747-2.133 0-4.267 0-6.827 0h-76.8c-11.52-1.707-22.613 5.973-24.747 17.92 0 2.133 0 4.267 0 6.827v67.413c0 15.36 9.387 24.747 27.733 24.747h36.693z" />
<glyph unicode="&#xe909;" d="M512 294.4h40.107c11.52 1.707 22.613-5.973 24.747-17.92 0-2.133 0-4.267 0-6.827v-67.413c1.707-11.52-5.973-22.613-17.92-24.747-2.133 0-4.267 0-6.827 0h-79.787c-12.373 1.707-21.76 11.947-21.333 24.747v67.413c-1.707 11.52 5.973 22.613 17.92 24.747 2.133 0 4.267 0 6.827 0h36.693z" />
<glyph unicode="&#xe90a;" d="M512 466.347h40.107c11.947 1.707 22.613-6.4 24.32-18.347 0-1.28 0-2.133 0-3.413v-70.827c0-11.947-9.387-21.76-21.333-21.76-1.28 0-2.133 0-3.413 0h-79.787c-11.947 0-21.333 9.813-21.333 21.333v70.827c0 11.947 9.813 21.333 21.333 21.333h40.107z" />
<glyph unicode="&#xe90b;" d="M343.040 352.853h-40.107c-15.36 0-24.747 5.973-24.747 24.747v64.427c0 18.347 9.387 24.747 27.733 24.747h73.813c15.36 0 24.747-5.973 24.747-24.747v-67.413c0-15.36-9.387-21.333-24.747-21.333h-36.693z" />
<glyph unicode="&#xe90c;" d="M683.947 466.347h36.693c15.36 0 24.747-5.973 24.747-21.333v-70.827c0-15.36-9.387-21.333-24.747-21.333h-76.8c-15.36 0-24.747 5.973-24.747 21.333v70.827c0 15.36 9.387 21.333 24.747 21.333h40.107z" />
<glyph unicode="&#xe90d;" d="M896 547.84h-768v-399.36c2.987 0 0 0 2.987-2.987 6.827-37.547 36.267-66.56 73.813-73.813 2.987-2.987 2.987 0 2.987-2.987h620.373c40.533 12.373 67.84 49.92 67.413 92.16v386.987z" />
<glyph unicode="&#xe90e;" d="M800.853 741.12h-27.733c-2.987 0-5.973 0-5.973 2.987v55.467c0 24.747-12.373 36.693-33.707 36.693h-27.733c-17.067 1.707-32-10.24-33.707-27.307 0-2.133 0-4.267 0-6.4v-55.467q0-5.973-5.973-5.973h-307.2q-5.973 0-5.973 5.973v55.467c1.707 17.067-10.24 32-27.307 33.707-2.133 0-4.267 0-6.4 0h-27.733c-17.067 1.707-32-10.24-33.707-27.307 0-2.133 0-4.267 0-6.4v-52.053q0-9.387-12.373-9.387h-40.107c-37.547-6.827-66.56-36.267-73.813-73.813 0-3.413-0.853-6.827-2.987-9.387v-40.107h767.573v27.733c0 52.48-42.667 95.147-95.147 95.147v0z" />
<glyph unicode="&#xe90f;" d="M683.947 280.32h36.693c11.52 1.707 22.613-5.973 24.747-17.92 0-2.133 0-4.267 0-6.827v-67.413c1.707-11.52-5.973-22.613-17.92-24.747-2.133 0-4.267 0-6.827 0h-76.8c-11.52-1.707-22.613 5.973-24.747 17.92 0 2.133 0 4.267 0 6.827v67.413c-1.707 11.52 5.973 22.613 17.92 24.747 2.133 0 4.267 0 6.827 0h40.107z" />
<glyph unicode="&#xe910;" d="M343.040 280.32h36.693c11.52 1.707 22.613-5.973 24.747-17.92 0-2.133 0-4.267 0-6.827v-67.413c1.707-11.52-5.973-22.613-17.92-24.747-2.133 0-4.267 0-6.827 0h-76.8c-11.52-1.707-22.613 5.973-24.747 17.92 0 2.133 0 4.267 0 6.827v67.413c0 15.36 9.387 24.747 27.733 24.747h36.693z" />
<glyph unicode="&#xe911;" d="M512 280.32h40.107c11.52 1.707 22.613-5.973 24.747-17.92 0-2.133 0-4.267 0-6.827v-67.413c1.707-11.52-5.973-22.613-17.92-24.747-2.133 0-4.267 0-6.827 0h-79.787c-12.373 1.707-21.76 11.947-21.333 24.747v67.413c-1.707 11.52 5.973 22.613 17.92 24.747 2.133 0 4.267 0 6.827 0h36.693z" />
<glyph unicode="&#xe912;" d="M512 452.267h40.107c11.947 1.707 22.613-6.4 24.32-18.347 0-1.28 0-2.133 0-3.413v-70.827c0-11.947-9.387-21.76-21.333-21.76-1.28 0-2.133 0-3.413 0h-79.787c-11.947 0-21.333 9.813-21.333 21.333v70.827c0 11.947 9.813 21.333 21.333 21.333h40.107z" />
<glyph unicode="&#xe913;" d="M343.040 338.773h-40.107c-15.36 0-24.747 5.973-24.747 24.747v64.427c0 18.347 9.387 24.747 27.733 24.747h73.813c15.36 0 24.747-5.973 24.747-24.747v-67.413c0-15.36-9.387-21.333-24.747-21.333h-36.693z" />
<glyph unicode="&#xe914;" d="M683.947 452.267h36.693c15.36 0 24.747-5.973 24.747-21.333v-70.827c0-15.36-9.387-21.333-24.747-21.333h-76.8c-15.36 0-24.747 5.973-24.747 21.333v70.827c0 15.36 9.387 21.333 24.747 21.333h40.107z" />
<glyph unicode="&#xe915;" d="M800.853 741.12h-27.733c-2.987 0-5.973 0-5.973 2.987v55.467c0 24.747-12.373 36.693-33.707 36.693h-27.733c-17.067 1.707-32-10.24-33.707-27.307 0-2.133 0-4.267 0-6.4v-55.467q0-5.973-5.973-5.973h-307.2q-5.973 0-5.973 5.973v55.467c1.707 17.067-10.24 32-27.307 33.707-2.133 0-4.267 0-6.4 0h-27.733c-17.067 1.707-32-10.24-33.707-27.307 0-2.133 0-4.267 0-6.4v-52.053q0-9.387-12.373-9.387h-40.107c-37.547-6.827-66.56-36.267-73.813-73.813 0-3.413-0.853-6.827-2.987-9.387v-40.107h767.573v27.733c0 52.48-42.667 95.147-95.147 95.147v0zM896 547.84h-768v-399.36c2.987 0 0 0 2.987-2.987 6.827-37.547 36.267-66.56 73.813-73.813 2.987-2.987 2.987 0 2.987-2.987h620.373c40.533 12.373 67.84 49.92 67.413 92.16v386.987z" />
<glyph unicode="&#xe916;" d="M644.267 283.733h-264.107c-17.067 0-30.72 13.653-30.72 30.72-1.707 17.067 10.667 32 27.307 33.707 1.28 0 2.133 0 3.413 0h264.107c17.067 0 30.72-13.653 30.72-30.72 0-1.28 0-2.133 0-3.413 0-17.067-13.653-30.72-30.72-30.72z" />
<glyph unicode="&#xe917;" d="M481.28 182.187v267.093c0 17.067 13.653 30.72 30.72 30.72s30.72-13.653 30.72-30.72v-267.093c0-17.067-13.653-30.72-30.72-30.72s-30.72 13.653-30.72 30.72z" />
<glyph unicode="&#xe918;" d="M838.4 447.573v-271.36c0-68.267-44.373-112.64-112.213-112.64h-427.947c-67.84 0-112.64 44.373-112.64 112.64v544.427c0 66.56 44.8 111.36 111.36 111.36h429.653c66.987 0 111.36-44.373 111.36-111.36v-272.64z" />
<glyph unicode="&#xe919;" d="M513.28 310.187h-140.373c-15.36 0-28.16 5.12-32.427 21.76-5.12 20.48 8.533 35.84 32.427 36.267h277.76c20.907 0 34.133-11.093 34.133-28.587s-12.8-28.587-34.133-28.587h-137.387z" />
<glyph unicode="&#xe91a;" d="M512.427 239.787h136.96c21.76 0 35.413-11.52 34.987-29.867 0-17.067-13.653-28.16-34.987-28.16h-274.347c-22.613 0-35.84 11.093-35.413 29.013 0 18.773 12.373 28.587 35.413 28.587h137.387z" />
<glyph unicode="&#xe91b;" d="M417.707 631.893l90.453-90.453c11.093-11.093 11.093-29.44 0-40.107s-29.44-11.093-40.107 0l-90.453 90.453c-11.093 11.093-11.093 29.44 0 40.107s29.44 11.093 40.107 0z" />
<glyph unicode="&#xe91c;" d="M677.547 669.44l-168.107-168.107c-11.093-11.093-29.44-11.093-40.107 0s-11.093 29.44 0 40.107l168.107 168.107c11.093 11.093 29.44 11.093 40.107 0s11.093-29.44 0-40.107z" />
<glyph unicode="&#xe91d;" d="M512 68.693c-212.053 0-384 171.947-384 384s171.947 384 384 384 384-171.947 384-384-171.947-384-384-384zM475.307 569.6v0c0-40.107-2.987-76.8 0-116.907 0-20.48 16.64-36.693 36.693-36.693 64.427-2.987 128.853 0 193.707 0l21.333 5.973c12.373 10.667 17.493 27.307 12.373 43.093-4.267 14.933-18.347 25.173-33.707 24.747h-144.213q-12.373 0-12.373 12.373v177.493c2.987 11.093-0.427 23.040-9.387 30.72-9.813 11.52-26.027 15.36-40.107 9.387-15.36-5.547-25.6-20.48-24.747-36.693-2.987-36.693 0-76.8 0-113.493z" />
<glyph unicode="&#xe91e;" d="M475.307 569.173c0 36.693-2.987 76.8 0 113.493-0.853 16.213 8.96 31.573 24.747 36.693 14.080 6.4 30.293 2.56 40.107-9.387 8.533-7.68 11.947-19.627 9.387-30.72v-178.347q0-12.373 12.373-12.373h144.213c15.787 0.427 29.44-9.387 33.707-24.747 5.12-15.36 0-32.427-12.373-43.093l-21.333-5.973c-64.427 0-128.853-2.987-193.707 0-20.48 0-36.693 16.64-36.693 36.693-2.987 40.107 0 76.8 0 116.907z" />
<glyph unicode="&#xe91f;" d="M422.4 573.44h-235.52c-32.427 0-58.88 26.453-58.88 58.88v0 140.8c0 32.427 26.453 58.88 58.88 58.88h235.52c32.427 0 58.88-26.453 58.88-58.88v0-140.8c0-32.427-26.453-58.88-58.88-58.88v0z" />
<glyph unicode="&#xe920;" d="M601.6 322.56h235.52c32.519 0 58.88-26.361 58.88-58.88v-140.8c0-32.519-26.361-58.88-58.88-58.88h-235.52c-32.519 0-58.88 26.361-58.88 58.88v140.8c0 32.519 26.361 58.88 58.88 58.88z" />
<glyph unicode="&#xe921;" d="M422.4 64.427h-235.52c-32.427 0-58.88 26.453-58.88 58.88v327.68c0 32.427 26.453 58.88 58.88 58.88h235.52c32.427 0 58.88-26.453 58.88-58.88v0-327.68c0-32.427-26.453-58.88-58.88-58.88z" />
<glyph unicode="&#xe922;" d="M837.12 386.56h-235.52c-32.427 0-58.88 26.453-58.88 58.88v327.68c0 32.427 26.453 58.88 58.88 58.88h235.52c32.427 0 58.88-26.453 58.88-58.88v-327.68c0-32.427-26.453-58.88-58.88-58.88z" />
<glyph unicode="&#xe923;" d="M837.973 495.787h-651.947c-32 0-58.027 26.027-58.027 58.027v154.453c0 32 26.027 58.027 58.027 58.027h651.947c32 0 58.027-26.027 58.027-58.027v-154.453c0-32-26.027-58.027-58.027-58.027z" />
<glyph unicode="&#xe924;" d="M837.973 129.707h-651.947c-32 0-58.027 26.027-58.027 58.027v154.453c0 32 26.027 58.027 58.027 58.027h651.947c32 0 58.027-26.027 58.027-58.027v-154.453c0-32-26.027-58.027-58.027-58.027z" />
<glyph unicode="&#xe925;" d="M577.28 674.56h221.867c11.546 0 20.907-9.36 20.907-20.907v-44.8c0-11.546-9.36-20.907-20.907-20.907h-221.867c-11.546 0-20.907 9.36-20.907 20.907v44.8c0 11.546 9.36 20.907 20.907 20.907z" />
<glyph unicode="&#xe926;" d="M428.373 674.56h45.227c11.546 0 20.907-9.36 20.907-20.907v-44.8c0-11.546-9.36-20.907-20.907-20.907h-45.227c-11.546 0-20.907 9.36-20.907 20.907v44.8c0 11.546 9.36 20.907 20.907 20.907z" />
<glyph unicode="&#xe927;" d="M428.373 308.053h45.227c11.546 0 20.907-9.36 20.907-20.907v-44.8c0-11.546-9.36-20.907-20.907-20.907h-45.227c-11.546 0-20.907 9.36-20.907 20.907v44.8c0 11.546 9.36 20.907 20.907 20.907z" />
<glyph unicode="&#xe928;" d="M577.28 308.053h221.867c11.546 0 20.907-9.36 20.907-20.907v-44.8c0-11.546-9.36-20.907-20.907-20.907h-221.867c-11.546 0-20.907 9.36-20.907 20.907v44.8c0 11.546 9.36 20.907 20.907 20.907z" />
<glyph unicode="&#xe929;" d="M713.387 279.467l-164.267-48.213c-24.32-7.253-49.92-7.253-73.813 0l-164.267 48.213c-14.933 4.267-25.173 17.92-25.173 33.28v169.387c0 19.2 15.36 34.987 34.987 34.987h383.147c19.2 0 34.987-15.36 34.987-34.987v-169.387c0-15.36-10.24-29.013-25.173-33.28v0z" />
<glyph unicode="&#xe92a;" d="M501.333 412.16l-364.8 116.053c-11.52 3.413-11.52 20.48 0 23.893l364.8 116.053c6.827 2.133 14.507 2.133 21.333 0l364.8-116.48c11.52-3.413 11.52-20.48 0-23.893l-364.8-116.48c-6.827-2.133-14.507-2.133-21.333 0v0z" />
<glyph unicode="&#xe92b;" d="M808.107 540.16v0c11.093 0 20.053-8.96 20.053-20.053v-230.4c0-11.093-8.96-20.053-20.053-20.053v0c-11.093 0-20.053 8.96-20.053 20.053v230.4c0 11.093 8.96 20.053 20.053 20.053z" />
<glyph unicode="&#xe92c;" d="M328.533 263.68c15.787-75.947 41.813-139.52 73.813-183.893-98.133 29.013-179.627 96-227.84 183.893h153.6z" />
<glyph unicode="&#xe92d;" d="M376.32 263.68h271.787c-23.467-104.96-65.707-177.067-108.8-198.827-8.96-0.853-17.92-1.28-26.88-1.28s-17.92 0-26.88 1.28c-43.093 21.76-84.907 93.867-108.8 198.827z" />
<glyph unicode="&#xe92e;" d="M695.467 263.68h153.6c-48.213-87.893-129.707-154.88-227.413-183.893 32 44.373 58.027 107.947 73.813 183.893z" />
<glyph unicode="&#xe92f;" d="M650.24 622.933h-276.907c21.76 105.813 62.72 180.907 104.96 207.36 11.093 1.28 22.187 1.707 33.707 1.707s22.613-0.427 33.707-1.707c42.667-26.453 83.2-101.547 104.96-207.36z" />
<glyph unicode="&#xe930;" d="M310.187 449.707c0-49.067 3.413-96 10.24-139.52h-166.827c-16.64 42.667-25.6 89.173-25.6 138.24 0 45.227 7.68 88.32 22.187 128.427h168.533c-5.12-40.107-8.533-82.773-8.533-127.147z" />
<glyph unicode="&#xe931;" d="M399.787 815.36c-32.853-46.507-58.453-113.067-73.813-192.427h-155.733c46.933 91.733 129.707 162.133 229.973 192.427z" />
<glyph unicode="&#xe932;" d="M667.307 449.707c0-50.347-3.84-96.853-10.667-139.52h-289.707c-6.827 42.667-10.667 89.173-10.667 139.52 0 45.227 3.413 87.893 8.96 127.147h293.547c5.547-39.253 8.96-81.92 8.96-127.147z" />
<glyph unicode="&#xe933;" d="M853.76 622.933h-155.733c-15.36 78.933-40.96 145.493-73.387 192 99.84-30.293 182.613-100.693 229.547-192z" />
<glyph unicode="&#xe934;" d="M896 448c0-48.64-8.96-95.147-25.6-138.24h-166.827c6.827 43.52 10.24 90.453 10.24 139.52 0 44.373-2.987 87.040-8.533 127.147h168.533c14.507-40.107 22.187-83.627 22.187-128.427z" />
<glyph unicode="&#xe935;" d="M476.16 310.187h-165.973v263.253h165.973v-47.36h-111.787v-59.733h98.56v-49.067h-98.56v-59.733h111.787v-47.36z" />
<glyph unicode="&#xe936;" d="M567.467 310.187h-53.76v263.253h46.080l100.267-160v160h53.76v-263.253h-46.507l-99.84 159.573v-159.573z" />
<glyph unicode="&#xe937;" d="M148.053 547.413h4.267l326.4-205.227c18.773-14.933 45.227-14.933 64 0l326.4 205.227h6.827c4.267 4.267-734.72 4.267-727.893 0z" />
<glyph unicode="&#xe938;" d="M893.867 532.053v-335.36c0-52.907-26.453-79.36-79.36-79.36h-604.587c-55.040 0-81.493 26.453-81.493 81.493v333.227c0 6.827-2.133 15.36 4.267 20.053v0c4.267 4.267 8.96 0 15.36-4.267h4.267l326.4-205.227c18.773-14.933 45.227-14.933 64 0l326.4 205.227h6.827c4.267 4.267 8.96 8.96 13.227 4.267l4.267-4.267c2.133-4.267 0-11.093 0-15.36z" />
<glyph unicode="&#xe939;" d="M896 547.413h-754.347c-4.267 0-8.96 0-8.96 4.267v0c0 6.827 4.267 6.827 6.827 6.827l6.827 4.267 350.293 211.627c8.533 5.547 20.053 5.547 28.587 0l348.587-211.627h4.267l17.493-15.36z" />
<glyph unicode="&#xe93a;" d="M648.533 68.693h-27.733l-141.227 24.747-232.96 43.093c-22.187 1.28-38.827 20.48-37.12 42.24 0 1.28 0 2.56 0 3.84v548.267c0 17.493 13.227 32 30.72 33.707l119.467 21.333 270.080 49.067c19.627 5.12 39.68-6.4 45.227-26.027 1.28-4.693 1.707-8.96 0.853-13.653v-686.933c0.427-5.12-0.427-10.667-2.987-15.36-3.84-11.52-13.227-20.48-24.747-24.747zM535.040 427.52c1.707 18.347-11.947 34.987-30.72 36.693-0.853 0-2.133 0-3.413 0-19.2 0-35.413-14.507-36.693-33.707 0-20.48 16.64-36.693 36.693-36.693 18.773 0 33.707 14.933 33.707 33.707v0z" />
<glyph unicode="&#xe93b;" d="M743.68 451.84v306.773c0 5.973 2.987 9.387 9.387 5.973h27.733c17.493 0 32-13.227 33.707-30.72v-555.093c1.28-17.067-8.533-33.28-24.747-39.68-14.080-1.707-28.587-1.707-43.093 0h-2.987v312.747z" />
<glyph unicode="&#xe93c;" d="M562.773 421.12c0-33.707-27.307-61.44-61.44-61.44s-61.44 27.307-61.44 61.44 27.307 61.44 61.44 61.44 61.44-27.307 61.44-61.44z" />
<glyph unicode="&#xe93d;" d="M896 585.387v-3.413c0-21.76-17.493-39.253-39.253-39.253h-689.493c-21.76 0-39.253 17.493-39.253 39.253v3.413c0 14.080 7.68 27.307 20.053 34.56l344.747 192c11.947 6.4 26.453 6.4 37.973 0l345.173-192.427c12.373-6.827 20.053-20.053 20.053-34.56v0z" />
<glyph unicode="&#xe93e;" d="M231.68 492.8h123.733v-311.467h-123.733v311.467z" />
<glyph unicode="&#xe93f;" d="M450.56 492.8h123.733v-311.467h-123.733v311.467z" />
<glyph unicode="&#xe940;" d="M668.587 492.8h123.733v-311.467h-123.733v311.467z" />
<glyph unicode="&#xe941;" d="M185.173 193.707h653.227c31.573 0 57.173-25.6 57.173-57.173v0c0-31.573-25.6-57.173-57.173-57.173h-653.227c-31.573 0-57.173 25.6-57.173 57.173v0c0 31.573 25.6 57.173 57.173 57.173z" />
<glyph unicode="&#xe942;" d="M264.533 799.573v0c28.587 0 52.053-23.893 52.053-53.333v-596.48c0-29.44-23.467-53.333-52.053-53.333v0c-28.587 0-52.053 23.893-52.053 53.333v596.48c0 29.44 23.467 53.333 52.053 53.333z" />
<glyph unicode="&#xe943;" d="M512 799.573v0c28.587 0 52.053-23.893 52.053-53.333v-596.48c0-29.44-23.467-53.333-52.053-53.333v0c-28.587 0-52.053 23.893-52.053 53.333v596.48c0 29.44 23.467 53.333 52.053 53.333z" />
<glyph unicode="&#xe944;" d="M759.467 799.573v0c28.587 0 52.053-23.893 52.053-53.333v-596.48c0-29.44-23.467-53.333-52.053-53.333v0c-28.587 0-52.053 23.893-52.053 53.333v596.48c0 29.44 23.467 53.333 52.053 53.333z" />
<glyph unicode="&#xe945;" d="M676.693 608.427h165.973c29.44 0 53.333-23.467 53.333-52.48v0c0-29.013-23.893-52.48-53.333-52.48h-165.973c-29.44 0-53.333 23.467-53.333 52.48v0c0 29.013 23.893 52.48 53.333 52.48z" />
<glyph unicode="&#xe946;" d="M181.333 608.427h165.973c29.44 0 53.333-23.467 53.333-52.48v0c0-29.013-23.893-52.48-53.333-52.48h-165.973c-29.44 0-53.333 23.467-53.333 52.48v0c0 29.013 23.893 52.48 53.333 52.48z" />
<glyph unicode="&#xe947;" d="M428.8 369.067h165.973c29.44 0 53.333-23.467 53.333-52.48v0c0-29.013-23.893-52.48-53.333-52.48h-165.973c-29.44 0-53.333 23.467-53.333 52.48v0c0 29.013 23.893 52.48 53.333 52.48z" />
<glyph unicode="&#xe948;" d="M896 452.693c0-212.053-171.947-384-384-384s-384 171.947-384 384 171.947 384 384 384 384-171.947 384-384zM499.627 363.52h-30.72c-20.907 0-38.4-16.213-40.107-36.693-0.853-19.627 11.947-37.547 30.72-43.093 9.387 0 12.373-2.987 12.373-12.373 0.853-22.187 19.627-39.253 41.387-38.4 22.187 0.853 39.253 19.627 38.4 41.387 0 9.387 5.973 12.373 12.373 15.36 45.227 12.8 75.52 54.613 73.813 101.547-1.28 46.933-34.133 87.467-79.787 98.133-20.053 4.267-40.96 5.12-61.44 2.987-18.347 0-30.72 9.387-30.72 24.747s12.373 24.747 30.72 24.747h58.453c20.907 0 38.4 16.213 40.107 36.693 0.427 20.48-13.653 38.4-33.707 43.093-5.12 0-9.387 4.267-9.387 9.387v0c-2.987 19.627-20.053 34.133-40.107 33.707-19.627-0.853-35.84-14.933-40.107-33.707 0-9.387-5.973-12.373-12.373-15.36-48.64-13.227-80.213-60.587-73.813-110.507 6.827-49.067 46.080-87.040 95.147-92.16h49.067c18.347 0 27.733-9.387 27.733-24.747 0-13.653-10.667-24.747-24.32-24.747-1.28 0-2.133 0-3.413 0h-30.72z" />
<glyph unicode="&#xe949;" d="M499.627 363.52h30.72c13.653-1.707 25.6 7.68 27.307 21.333 0 1.28 0 2.133 0 3.413 0 15.36-9.387 24.747-27.733 24.747h-49.067c-49.067 5.12-88.32 43.093-95.147 92.16-6.4 49.92 25.173 97.28 73.813 110.507 5.973 2.987 12.373 5.973 12.373 15.36 4.267 19.2 20.48 32.853 40.107 33.707 20.053 0 36.693-14.080 40.107-33.707 0-5.12 4.267-9.387 9.387-9.387v0c20.053-4.267 34.133-22.613 33.707-43.093-1.707-20.907-19.2-37.12-40.107-36.693h-58.453c-18.347 0-30.72-9.387-30.72-24.747s12.373-24.747 30.72-24.747c20.48 2.133 41.387 1.28 61.44-2.987 45.653-11.093 78.507-51.2 79.787-98.133 1.707-46.933-28.587-88.747-73.813-101.547-5.973-2.987-12.373-5.973-12.373-15.36 0.853-22.187-16.213-40.533-38.4-41.387s-40.533 16.213-41.387 38.4c0 9.387-2.987 12.373-12.373 12.373-18.773 5.547-31.573 23.467-30.72 43.093 1.707 20.907 19.2 37.12 40.107 36.693h30.72z" />
<glyph unicode="&#xe94a;" d="M453.547 68.693c-6.827 4.693-11.947 11.093-15.36 18.347l-101.547 181.333c0 5.12-4.267 9.387-9.387 9.387l-181.333 101.547h-5.973c-11.52 6.827-15.36 22.187-8.533 33.707 0.853 1.28 1.28 2.133 2.133 2.987l58.453 58.453c8.533 4.693 17.92 7.253 27.733 5.973l122.88-36.693 24.747-5.973c9.387 2.987 12.373 12.373 18.347 18.347l319.573 319.573c33.28 33.28 76.373 55.040 122.88 61.44 29.013 2.56 55.893-15.36 64.427-43.093 0-2.987 0-5.973 2.987-5.973v-24.747c-2.987 0-2.987-2.987-2.987-5.973-8.96-45.653-31.573-87.040-64.427-119.893l-322.56-322.56c-5.973-2.987-5.973-5.973-2.987-12.373s24.747-95.147 40.107-141.227c2.987-11.093-0.427-23.040-9.387-30.72l-52.053-49.067c-3.84-5.547-8.96-9.813-15.36-12.373h-12.373z" />
<glyph unicode="&#xe94b;" d="M579.413 713.387h-5.973l-135.253-138.24c-2.987-5.973-5.973-5.973-9.387-2.987l-205.653 107.52c-11.52 2.133-19.2 13.653-17.067 25.173 1.28 6.4 5.12 11.52 10.667 14.507l64.427 64.427c6.4 6.4 15.787 8.96 24.747 5.973l267.093-73.813 5.973-2.987z" />
<glyph unicode="&#xe94c;" d="M772.693 520.107c9.387-27.733 15.36-55.467 24.747-79.787l52.053-190.293c4.693-10.667 2.133-22.613-5.973-30.72l-64.427-61.44c-5.547-10.24-18.773-14.080-29.013-8.533-5.547 2.987-9.387 8.533-10.667 14.507l-107.52 205.653c0 2.987-2.987 5.973 0 9.387l141.227 141.227z" />
<glyph unicode="&#xe94d;" d="M896 578.133v-371.2c0-42.24-34.133-76.8-76.8-76.8h-503.467c-38.827 0-69.973 31.573-69.973 69.973v6.827h497.067c42.24 0 76.8 34.56 76.8 76.8v364.373h6.827c38.827 0 69.973-31.147 69.973-69.973z" />
<glyph unicode="&#xe94e;" d="M740.693 727.040v-402.347c0-20.907-17.067-38.4-38.4-38.4h-535.893c-20.907 0-38.4 17.067-38.4 38.4v323.413c0 20.907 17.067 38.4 38.4 38.4h235.947c25.6 0 48.64 17.067 55.467 41.813l2.56 9.387c4.693 16.64 19.627 28.16 36.693 28.16h204.8c20.907 0 38.4-17.067 38.4-38.4z" />
<glyph unicode="&#xe94f;" d="M884.053 459.947v-338.347c0-32-25.6-57.6-57.6-57.6h-628.907c-32 0-57.6 25.6-57.6 57.6v338.347c0 15.36 6.4 29.867 17.067 40.533l314.027 314.453c22.613 22.613 58.88 22.613 81.493 0l314.88-314.453c10.667-10.667 17.067-25.6 17.067-40.533v0z" />
<glyph unicode="&#xe950;" d="M468.907 386.133h86.187c42.24 0 75.947-34.133 75.947-75.947v-246.187h-238.080v246.187c0 42.24 34.133 75.947 75.947 75.947z" />
<glyph unicode="&#xe951;" d="M207.36 768h609.28c43.829 0 79.36-35.531 79.36-79.36v-481.28c0-43.829-35.531-79.36-79.36-79.36h-609.28c-43.829 0-79.36 35.531-79.36 79.36v481.28c0 43.829 35.531 79.36 79.36 79.36z" />
<glyph unicode="&#xe952;" d="M375.893 615.68c0-43.594-35.34-78.933-78.933-78.933s-78.933 35.34-78.933 78.933c0 43.594 35.34 78.933 78.933 78.933s78.933-35.34 78.933-78.933z" />
<glyph unicode="&#xe953;" d="M614.827 530.773c-14.507 18.347-41.813 18.347-56.32 0l-143.36-181.76-29.44 37.547c-14.507 18.347-41.813 18.347-56.32 0l-97.28-123.307c-18.347-23.467-1.707-58.027 28.16-58.027h537.6c29.867 0 46.507 34.56 28.16 58.027l-211.2 267.947z" />
<glyph unicode="&#xe954;" d="M837.973 448v-270.933c5.12-58.88-38.4-107.52-97.28-112.64h-442.027c-58.88-5.12-107.52 38.4-112.64 97.28v557.227c-5.12 58.88 38.4 107.52 97.28 112.64h442.453c58.88 5.12 107.52-38.4 112.64-97.28v-286.293z" />
<glyph unicode="&#xe955;" d="M510.72 332.8h-166.4c-28.16 0-43.52 15.36-40.96 33.28 2.56 15.36 15.36 25.6 33.28 23.040 0 0 229.973 2.56 342.613 0 17.92 0 33.28-12.8 33.28-28.16s-15.36-28.16-33.28-28.16h-168.96z" />
<glyph unicode="&#xe956;" d="M513.28 238.507h158.72c30.72 0 46.080-12.8 46.080-30.72s-15.36-28.16-43.52-28.16h-324.693c-28.16 0-43.52 10.24-43.52 28.16s15.36 30.72 46.080 30.72h161.28z" />
<glyph unicode="&#xe957;" d="M503.040 535.040h20.48c10.24 0 17.92 5.12 20.48 15.36v2.56c0 10.24-7.68 17.92-20.48 17.92h-33.28c-33.28 2.56-61.44 30.72-66.56 64-5.12 35.84 17.92 69.12 51.2 76.8 5.12 2.56 7.68 5.12 7.68 10.24 2.56 12.8 15.36 23.040 28.16 23.040s25.6-10.24 28.16-23.040c0-2.56 2.56-7.68 7.68-7.68v0c15.36 0 23.040-12.8 23.040-28.16s-12.8-25.6-28.16-25.6h-40.96c-12.8 0-20.48-7.68-20.48-17.92s7.68-17.92 20.48-17.92c15.36 2.56 30.72 2.56 43.52 0 33.28-7.68 53.76-35.84 56.32-69.12 0-33.28-20.48-61.44-51.2-71.68-5.12-2.56-7.68-5.12-7.68-10.24 0-15.36-10.24-28.16-28.16-28.16-15.36 0-28.16 10.24-28.16 28.16 0 7.68-2.56 7.68-7.68 7.68-12.8 5.12-23.040 15.36-20.48 30.72 0 15.36 12.8 25.6 28.16 25.6l17.92-2.56z" />
<glyph unicode="&#xe958;" d="M853.76 217.6l-334.080-151.467c-5.973-2.56-12.8-2.56-18.773 0l-330.667 151.893c-17.92 8.107-17.92 33.28 0 41.387l124.587 56.747c2.56 1.28 5.12 1.28 7.68 0l174.933-80.213 13.653-6.827c6.827-2.56 13.653-4.693 20.48-4.693s14.080 1.707 20.907 4.693l189.44 87.040c2.56 1.28 5.12 1.28 7.68 0l123.733-56.747c17.92-8.107 17.92-33.707 0-41.387z" />
<glyph unicode="&#xe959;" d="M730.027 525.653c-2.56 1.28-5.12 1.28-7.68 0l-189.44-86.613c-2.56-1.28-5.973-2.133-8.533-3.413-4.267-0.853-8.107-1.28-12.373-1.28s-8.107 0.427-12.373 1.28l-8.107 2.56-13.653 6.827-5.973 2.56-168.96 77.653c-2.56 1.28-5.12 1.28-7.68 0l-125.013-56.747c-17.92-8.107-17.92-33.28 0-41.387l330.667-151.893c5.973-2.56 12.8-2.987 19.2 0l334.080 151.893c17.92 8.107 17.92 33.28 0 41.387l-124.16 56.747z" />
<glyph unicode="&#xe95a;" d="M853.76 636.587l-334.080-151.893c-5.973-2.56-12.8-2.56-19.2 0l-330.24 152.32c-17.92 8.107-17.92 33.28 0 41.387l334.080 151.467c5.973 2.56 12.8 2.56 18.773 0l330.667-151.893c17.92-8.107 17.92-33.28 0-41.387z" />
<glyph unicode="&#xe95b;" d="M512 409.6h-148.48c-20.907 2.987-40.533-11.52-43.52-32.427-0.427-3.84-0.427-7.253 0-11.093q0-33.28 33.28-33.28h40.96c21.333 1.28 39.253-14.507 40.96-35.413 0-1.707 0-3.413 0-5.12v-186.88c1.707-21.333-14.080-39.68-35.413-40.96-2.56 0-5.547 0-8.107 0h-219.733c-20.907-2.987-40.533 11.52-43.52 32.427-0.427 3.84-0.427 7.253 0 11.093v181.76c-2.987 20.907 11.52 40.533 32.427 43.52 3.84 0.427 7.253 0.427 11.093 0h58.88c10.24 0 12.8 2.56 12.8 12.8-0.427 17.067 0 34.133 2.56 51.2 11.947 52.48 58.88 89.6 112.64 89.6h104.96c7.68 0 10.24 2.56 10.24 10.24v53.76c0 10.24-2.56 12.8-12.8 12.8h-56.32c-30.72 0-46.080 15.36-46.080 43.52v180.907c0 28.16 15.36 43.52 46.080 43.52h217.173c20.907 2.987 40.533-11.52 43.52-32.427 0.427-3.84 0.427-7.253 0-11.093v-181.76c0-28.16-15.36-43.52-46.080-43.52h-58.88c-7.68 0-10.24-2.56-10.24-12.8v-51.2c0-10.24 2.56-12.8 12.8-12.8h97.28c63.573 2.987 117.333-46.080 120.32-109.653 0-3.413 0-6.827 0-10.667q0-33.28 33.28-33.28h40.96c21.333 1.707 39.68-14.080 40.96-35.413 0-2.56 0-5.547 0-8.107v-181.76c2.987-20.907-11.947-40.533-32.853-43.093-2.56 0-5.547-0.427-8.107 0h-224.853c-21.333-1.28-39.253 14.507-40.96 35.413 0 1.707 0 3.413 0 5.12v186.88c-1.28 21.333 14.507 39.253 35.413 40.96 1.707 0 3.413 0 5.12 0h64c7.68 0 10.24 2.56 10.24 10.24v28.16c1.707 19.627-13.227 37.12-32.853 38.827-2.56 0-5.547 0-8.107 0h-151.040z" />
<glyph unicode="&#xe95c;" d="M619.52 563.2c30.72 0 46.080 15.36 46.080 43.52v181.333c2.987 20.907-11.52 40.533-32.427 43.52-3.84 0.427-7.253 0.427-11.093 0h-217.173c-30.72 0-46.080-15.36-46.080-43.52v-181.76c0-28.16 15.36-43.52 46.080-43.52h214.613z" />
<glyph unicode="&#xe95d;" d="M837.973 448v-270.933c4.267-57.6-38.827-107.947-96.427-112.64-5.12 0-10.667 0-15.787 0h-427.52c-57.6-4.267-107.947 38.827-112.64 96.427 0 5.12 0 10.667 0 15.787v542.293c-4.267 57.6 38.827 107.947 96.427 112.64 5.12 0 10.667 0 15.787 0h427.093c57.6 4.267 107.947-38.827 112.64-96.427 0-5.12 0-10.667 0-15.787v-270.933zM513.28 622.080c46.080 0 92.16-2.56 138.24 0s33.28 10.24 33.28 28.16-12.8 28.16-33.28 28.16h-278.613c-23.040 0-38.4-15.36-30.72-35.84s15.36-20.48 30.72-20.48h140.8zM510.72 333.227h143.36c15.36 0 28.16 12.8 28.16 28.16s-12.8 28.16-28.16 28.16c-95.573 3.413-190.293 3.413-283.733 0-13.653 2.987-27.307-5.973-30.293-20.053 0-0.853 0-2.133-0.427-2.987-2.56-17.92 10.24-33.28 33.28-33.28h138.24zM513.28 525.227h-138.24c-23.040 0-35.84-10.24-35.84-28.16s12.8-30.72 35.84-30.72h273.493c23.040 0 35.84 12.8 35.84 28.16s-12.8 30.72-35.84 30.72h-135.68zM513.28 238.933h-135.68c-25.6 0-38.4-12.8-38.4-30.72s12.8-28.16 35.84-28.16h273.493c23.040 0 35.84 10.24 35.84 28.16s-12.8 30.72-38.4 30.72h-133.12z" />
<glyph unicode="&#xe95e;" d="M513.28 622.080h-140.8c-15.36 0-28.16 5.12-30.72 20.48s7.68 35.84 30.72 35.84h278.613c20.48 0 33.28-10.24 33.28-28.16s-12.8-28.16-33.28-28.16h-138.24z" />
<glyph unicode="&#xe95f;" d="M510.72 332.8h-138.24c-23.040 0-35.84 15.36-33.28 33.28 1.28 14.080 13.653 24.747 27.733 23.467 0.853 0 2.133 0 2.987-0.427 95.573 3.413 190.293 3.413 283.733 0 15.36 0 28.16-12.8 28.16-28.16s-12.8-28.16-28.16-28.16h-143.36z" />
<glyph unicode="&#xe960;" d="M513.28 524.8h135.68c23.040 0 35.84-10.24 35.84-30.72s-12.8-28.16-35.84-28.16h-273.493c-23.040 0-35.84 12.8-35.84 30.72s12.8 28.16 35.84 28.16h138.24z" />
<glyph unicode="&#xe961;" d="M513.28 238.080h133.12c25.6 0 38.4-12.8 38.4-30.72s-12.8-28.16-35.84-28.16h-273.493c-23.040 0-35.84 10.24-35.84 28.16s12.8 30.72 38.4 30.72h135.68z" />
<glyph unicode="&#xe962;" glyph-name="Location" d="M814.080 503.893c-2.987-54.613-23.040-106.667-57.6-149.333-60.16-86.187-123.307-169.387-183.893-252.587-18.773-34.987-62.293-47.787-97.28-29.013-12.373 6.827-22.613 16.64-29.013 29.013l-180.907 255.573c-76.8 104.96-74.667 247.893 5.547 350.293 77.227 106.24 214.187 150.613 338.773 109.227 120.747-40.107 203.947-157.867 203.947-313.173zM627.627 526.933c0 63.573-51.627 114.773-114.773 114.773-64 0-116.053-50.773-117.76-114.773 0-64.853 52.907-117.76 117.76-117.76 63.573 0 114.773 51.2 114.773 114.773 0 0.853 0 2.133 0 2.987z" />
<glyph unicode="&#xe963;" d="M836.693 135.68c0-47.36-17.067-71.68-52.907-71.68h-541.013c-40.107 0-56.32 23.040-55.893 75.947 2.56 178.773 109.653 249.6 240.64 269.653l84.053-195.413 83.627 195.413c11.093-2.133 22.187-4.693 33.28-8.533 119.467-40.96 205.653-102.4 207.787-265.813v0z" />
<glyph unicode="&#xe964;" d="M697.6 647.253c0-53.76-22.187-102.4-58.453-136.107-32.853-31.147-77.227-50.773-126.72-50.773s-95.147 19.2-128.853 51.2c-35.413 33.707-57.6 81.493-57.6 134.4 0 102.827 83.2 185.6 186.453 185.6s185.173-82.773 185.173-184.747z" />
<glyph unicode="&#xe965;" d="M521.387 64c-14.080 8.107-20.48 24.747-15.36 40.107 2.133 2.56 3.413 5.973 2.987 9.387 2.987 24.747 9.387 49.067 12.373 73.813s2.987 12.373 9.387 15.36c76.8 79.787 156.587 156.587 236.373 236.373l18.347 15.36c17.493 9.387 38.827 5.547 52.053-9.387 15.787-12.8 30.293-27.307 43.093-43.093 8.107-7.253 13.227-17.067 15.36-27.733v-21.333c-5.973-9.387-9.387-21.333-18.347-27.733l-233.387-236.373-18.347-5.973-43.093-9.387-49.067-9.387h-12.373z" />
<glyph unicode="&#xe966;" d="M407.893 322.133h-221.44v414.293h420.693v-282.453l-199.253-131.84z" />
<glyph unicode="&#xe967;" d="M128.427 497.067v242.773c-3.413 47.36 32 88.747 79.36 92.16 4.267 0 8.533 0 12.8 0h362.24c42.24 0.853 78.507-29.013 86.187-70.827 2.56-5.973 3.413-11.947 2.987-18.347v-300.8c0-5.973 0-9.387-2.987-12.373l-174.933-174.933c-21.333-17.493-34.56-43.093-36.693-70.827 0-5.973-2.987-12.373-2.987-18.347 0-3.413-2.56-5.973-5.973-5.973h-237.227c-46.933 3.413-83.2 42.24-82.773 89.173v248.747zM401.92 512.427h144.213c18.773 1.707 32.427 17.92 30.72 36.693v0c-2.987 16.64-17.493 28.16-33.707 27.733h-288.853c-12.8-2.56-23.467-11.947-27.733-24.747-5.12-16.213 3.84-33.28 20.053-38.4 3.413-1.28 7.253-1.707 10.667-1.28h144.213zM337.493 448h-79.787c-17.067 1.707-32-10.667-33.707-27.307 0-1.28 0-2.133 0-3.413 0-18.773 14.933-33.707 33.707-33.707h156.587c17.067-1.707 32 10.24 33.707 27.307 0 2.133 0 4.267 0 6.4 0 17.067-13.653 30.72-30.72 30.72-1.28 0-2.133 0-3.413 0h-76.8zM319.147 641.28h64.427c17.067 0 30.72 13.653 30.72 30.72s-13.653 30.72-30.72 30.72h-125.867c-17.067 0-30.72-13.653-30.72-30.72s13.653-30.72 30.72-30.72h61.44z" />
<glyph unicode="&#xe968;" d="M224 64c-35.413 0-64 28.587-64 64v640c0 35.413 28.587 64 64 64s64-28.587 64-64v-640c0-35.413-28.587-64-64-64z" />
<glyph unicode="&#xe969;" d="M428.8 64c-35.413 0-64 28.587-64 64v640c0 35.413 28.587 64 64 64s64-28.587 64-64v-640c0-35.413-28.587-64-64-64z" />
<glyph unicode="&#xe96a;" d="M820.48 81.92c-33.28-10.24-68.267 8.107-79.36 40.96l-181.76 560.64c-5.12 34.987 19.2 67.413 54.187 72.533 27.307 3.84 53.76-9.813 66.133-34.133l181.76-560.64c10.24-33.28-8.107-68.267-40.96-79.36z" />
<glyph unicode="&#xe96b;" d="M649.813 127.147h-200.96c-29.867 0-42.667 17.067-40.533 57.6 2.133 141.227 90.027 263.253 194.56 267.52 46.933 2.133 92.16 8.533 136.96-6.4 90.027-32 154.027-141.227 156.16-265.387 0-34.133-12.8-53.333-40.533-53.333h-205.227z" />
<glyph unicode="&#xe96c;" d="M476.587 629.76c1.28-75.52-59.307-137.813-134.827-139.093-1.28 0-2.987 0-4.267 0-77.227 0-139.947 61.867-141.227 139.093 1.28 77.227 64 139.093 141.227 139.093 76.8 0 139.093-62.293 139.093-139.093z" />
<glyph unicode="&#xe96d;" d="M651.947 768.853c76.8-1.28 138.24-64.427 136.96-141.227s-64.427-138.24-141.227-136.96c-75.947 1.28-136.96 63.147-136.96 139.093 1.28 77.227 64 139.093 141.227 139.093z" />
<glyph unicode="&#xe96e;" d="M247.893 127.147h-81.493c-25.6 0-38.4 19.2-38.4 53.333-2.133 139.093 61.867 248.32 162.56 269.653 37.547 9.387 76.8 7.68 113.493-4.267q14.933-6.4 4.267-23.467c-46.080-70.4-70.827-153.173-70.4-237.653 0-11.52 0-23.040 2.133-34.133 4.267-21.333 0-23.467-12.8-23.467h-79.36z" />
<glyph unicode="&#xe96f;" d="M328.533 263.68c15.787-75.947 41.387-139.52 73.813-183.467-97.707 29.013-179.2 95.573-227.413 183.467h153.6z" />
<glyph unicode="&#xe970;" d="M647.68 263.68c-23.467-104.107-65.28-176.213-108.373-198.4-9.387-0.853-18.347-1.28-27.733-1.28s-18.347 0-27.733 1.28c-42.667 22.187-84.48 94.293-107.947 198.4h271.787z" />
<glyph unicode="&#xe971;" d="M695.467 263.68h153.6c-48.213-87.467-129.707-154.88-227.413-183.467 32 44.373 58.027 107.947 73.813 183.467z" />
<glyph unicode="&#xe972;" d="M399.787 815.36c-32.853-46.507-58.453-113.067-73.813-192.427h-155.733c46.933 91.733 129.707 162.133 229.973 192.427z" />
<glyph unicode="&#xe973;" d="M650.24 622.933h-276.907c21.76 105.813 62.72 180.907 104.96 207.36 11.093 1.28 22.187 1.707 33.707 1.707s22.613-0.427 33.707-1.707c42.667-26.453 83.2-101.547 104.96-207.36z" />
<glyph unicode="&#xe974;" d="M853.76 622.933h-155.733c-15.36 78.933-40.96 145.493-73.387 192 99.84-30.293 182.613-100.693 229.547-192z" />
<glyph unicode="&#xe975;" d="M310.187 449.28c0-49.067 3.413-95.573 10.24-139.52h-166.827c-16.64 42.667-25.6 89.6-25.6 138.24 0 45.227 7.68 88.32 22.187 128.427h168.533c-5.12-40.107-8.533-82.773-8.533-127.147z" />
<glyph unicode="&#xe976;" d="M667.307 449.28c0-49.92-3.84-96.853-10.667-139.52h-289.707c-6.827 42.667-10.667 89.6-10.667 139.52 0 45.227 3.413 87.893 8.96 127.147h293.547c5.547-39.253 8.96-81.92 8.96-127.147z" />
<glyph unicode="&#xe977;" d="M896 448c0-48.64-8.96-95.147-25.6-138.24h-166.827c6.827 43.52 10.24 90.453 10.24 139.52 0 44.373-2.987 87.040-8.533 127.147h168.533c14.507-40.107 22.187-83.627 22.187-128.427z" />
<glyph unicode="&#xe978;" d="M539.307 575.147h55.893v-46.507h-55.893v46.507z" />
<glyph unicode="&#xe979;" d="M631.040 474.453c-14.507 16.213-35.413 24.32-62.293 24.32-15.787 0-29.867-3.84-42.667-10.667s-22.613-17.067-29.44-29.867c-7.253-12.8-10.667-26.453-10.667-41.813 0-11.52 2.133-21.333 7.253-29.44s11.947-14.933 21.76-20.907h-69.973c-7.253 0-12.8 2.133-16.213 6.4s-5.12 10.667-5.12 19.627v183.467h-52.48v-187.307c0-24.32 5.973-43.52 17.92-56.747s29.44-20.053 52.053-20.053h100.267c36.693 0 64.427 6.827 83.2 20.48s28.16 34.133 28.16 61.867v14.080c0 28.587-7.253 50.773-21.76 66.987v0zM601.173 399.787c0-13.227-3.413-23.040-9.387-29.44-20.053 7.253-34.133 14.080-41.813 20.907s-11.947 15.36-11.947 25.173c0 8.533 2.987 15.787 8.96 21.333s12.8 8.96 21.333 8.96c21.76 0 32.853-13.653 32.853-40.96v-6.4z" />
<glyph unicode="&#xe97a;" d="M512 64h-242.773c-33.707 0-49.067 21.333-49.067 67.413 2.987 168.96 107.52 316.587 236.373 322.56 54.187 7.68 109.653 4.267 162.987-9.387 104.533-36.693 184.32-168.96 184.32-316.587 0-43.093-15.36-64.427-46.080-64.427h-245.76z" />
<glyph unicode="&#xe97b;" d="M512 832c92.16 0 167.253-73.813 168.96-165.973 0-93.44-75.52-168.96-168.96-168.96-92.16 1.707-165.973 76.8-165.973 168.96 0 91.733 74.24 165.973 165.973 165.973z" />
<glyph unicode="&#xe97c;" d="M616.96 64c-35.413 0-64 28.587-64 64v640c0 35.413 28.587 64 64 64s64-28.587 64-64v-640c0-35.413-28.587-64-64-64z" />
<glyph unicode="&#xe97d;" d="M821.76 64c-35.413 0-64 28.587-64 64v302.080c0 35.413 28.587 64 64 64s64-28.587 64-64v-302.080c0-35.413-28.587-64-64-64z" />
<glyph unicode="&#xe97e;" d="M409.6 64c-35.413 0-64 28.587-64 64v386.56c0 35.413 28.587 64 64 64s64-28.587 64-64v-386.56c0-35.413-28.587-64-64-64z" />
<glyph unicode="&#xe97f;" d="M202.24 64c-35.413 0-64 28.587-64 64v189.44c0 35.413 28.587 64 64 64s64-28.587 64-64v-189.44c0-35.413-28.587-64-64-64z" />
<glyph unicode="&#xe980;" d="M839.68 614.4l-82.773 60.587-66.133 48.64c-21.76 16.213-52.907 0.427-52.907-26.88v-58.88h-415.147c-28.587 0-52.053-22.613-52.053-50.347s23.040-50.347 52.053-50.347h415.573v-58.88c0-27.307 30.72-42.667 52.907-26.88l66.133 48.64 82.773 60.587c17.92 13.227 17.92 40.107 0 53.333z" />
<glyph unicode="&#xe981;" d="M801.28 358.827h-415.573v58.88c0 27.307-30.72 42.667-52.907 26.88l-66.133-48.64-82.773-60.587c-17.92-13.227-17.92-40.107 0-53.333l82.773-60.587 66.133-48.64c21.76-16.213 52.907-0.427 52.907 26.88v58.88h416c28.587 0 52.053 22.613 52.053 50.347s-23.040 50.347-52.053 50.347z" />
<glyph unicode="&#xe982;" d="M683.947 341.333c-50.773 0-92.587-38.4-98.987-87.467h197.973c-5.973 49.493-48.213 87.467-99.413 87.467zM852.053 341.333h-2.56v128c0 19.627-7.68 38.4-20.907 52.907l-87.040 92.16c-14.507 15.36-34.56 24.32-56.32 24.32h-56.747v38.4c0 42.667-34.56 77.227-77.227 77.227h-346.027c-42.667 0-77.227-34.56-77.227-77.227v-346.027c0-42.24 33.28-75.52 74.667-77.227 5.973 70.827 65.707 126.293 137.813 126.293s131.413-55.467 137.387-126.293h68.693c5.973 70.827 65.707 126.293 137.387 126.293s131.84-55.467 137.813-126.293h30.293c24.32 0 43.947 19.627 43.947 43.52s-19.627 43.947-43.947 43.947zM794.027 443.733c0-6.4-5.12-11.52-11.52-11.52h-154.027v143.36h58.027c2.987 0 5.973-1.28 8.533-3.413l96-102.827c2.133-2.133 2.987-5.12 2.987-8.107v-17.493zM340.48 341.333c-50.773 0-93.013-38.4-99.413-87.467h197.973c-5.973 49.493-48.213 87.467-98.987 87.467z" />
<glyph unicode="&#xe983;" d="M439.893 241.493c0-55.040-44.8-99.413-99.413-99.413s-99.84 44.373-99.84 99.413c0 4.267 0 8.533 0.853 12.373 5.973 49.493 48.213 87.467 99.413 87.467s92.587-38.4 98.987-87.467c0-3.84 0.853-8.107 0.853-12.373z" />
<glyph unicode="&#xe984;" d="M784.213 241.493c0-55.040-44.8-99.413-99.84-99.413s-99.413 44.373-99.413 99.413c0 4.267 0 8.533 0.853 12.373 5.973 49.493 48.213 87.467 98.987 87.467s93.013-38.4 99.413-87.467c0-3.84 0.853-8.107 0.853-12.373z" />
<glyph unicode="&#xe985;" d="M919.040 448c0-64.427-15.787-125.013-43.52-177.92-8.533-16.213-17.92-31.147-28.587-45.653-45.227-63.147-109.653-112.213-184.747-138.24-30.293-11.093-62.72-17.92-96-20.48-10.24-0.853-20.48-1.28-31.147-1.28s-20.48 0.853-30.72 1.28c-33.28 2.56-65.707 9.387-96 20.053-75.093 26.453-139.093 75.093-184.747 138.667-10.667 14.507-20.053 29.867-28.587 45.653-28.16 53.333-43.947 113.493-43.947 177.92s16.213 125.013 43.947 178.347c8.533 16.213 17.92 31.147 28.587 45.653 45.653 63.573 110.080 112.213 185.173 138.667 30.293 10.667 62.72 17.92 96 20.053 9.813 0.853 20.48 1.28 30.72 1.28s20.48-0.853 31.147-1.28c33.28-2.56 65.707-9.387 96-20.48 75.093-26.027 138.667-74.667 184.747-137.813 10.667-14.507 20.053-29.867 28.16-46.080 28.16-53.333 43.947-113.493 43.947-177.92v0z" />
<glyph unicode="&#xe986;" d="M742.4 576c-2.56 17.92-5.973 35.84-9.387 52.907-15.36 72.96-40.107 135.253-70.827 180.907-30.293 11.093-62.72 17.92-96 20.48 45.653-24.747 90.027-101.547 113.493-211.627 3.84-16.64 6.827-34.56 9.387-52.907 5.12-36.267 7.68-75.947 7.68-117.76s-2.56-81.067-7.68-117.76c-2.56-18.347-5.547-35.84-9.387-52.48-23.040-110.507-67.413-187.733-113.493-211.627 33.28 2.56 65.707 9.387 96 20.48 31.147 45.653 55.040 107.947 70.827 180.907 3.413 17.067 6.827 34.987 9.387 53.333 5.973 40.533 8.533 83.2 8.533 128s-2.987 87.467-8.533 128v0zM391.253 277.333c-3.84 16.64-6.827 34.133-9.387 52.48-5.12 36.267-7.68 75.947-7.68 117.76s2.56 81.067 7.68 117.76c2.56 18.347 5.547 36.267 9.387 52.907 23.040 110.080 67.413 186.88 113.493 211.627-33.28-2.56-65.707-9.387-96-20.053-31.147-45.653-55.040-107.947-70.827-180.907-3.413-17.067-6.827-34.987-9.387-52.907-5.973-40.533-8.533-83.2-8.533-128s2.987-87.467 8.533-128c2.56-17.92 5.973-36.267 9.387-53.333 15.36-73.387 40.107-135.68 70.827-180.907 30.293-10.667 62.72-17.92 96-20.053-45.653 24.747-90.027 101.547-113.493 211.627v0z" />
<glyph unicode="&#xe987;" d="M846.507 672c-26.453-16.213-64.853-31.147-113.493-43.093-16.64-3.84-34.56-7.253-53.76-10.24-42.667-6.4-90.88-10.667-144.213-10.667s-101.547 3.84-143.787 10.667c-19.2 2.987-36.693 6.4-53.76 10.24-48.64 11.52-87.467 26.88-113.493 43.093-10.667-14.507-20.053-29.867-28.587-45.653 34.987-21.333 81.067-38.4 133.12-49.92 17.493-4.267 34.987-7.253 53.76-10.24 49.493-7.68 101.547-11.947 153.173-11.947s104.107 4.267 153.6 11.947c17.92 2.987 36.267 5.973 53.76 10.24 52.053 11.947 97.707 28.587 132.693 49.92-8.107 16.213-17.92 31.573-28.16 46.080h-0.853z" />
<glyph unicode="&#xe988;" d="M742.4 320.427c-17.067 3.84-34.987 7.253-53.76 9.813-49.493 8.107-101.547 12.373-153.6 12.373s-104.107-4.267-153.173-12.373c-17.92-2.56-36.267-5.973-53.76-9.813-52.053-12.373-97.707-28.587-133.12-50.347 8.533-16.213 17.92-31.147 28.587-45.653 26.453 16.213 64.853 31.573 113.493 43.093 16.64 4.267 34.56 7.68 53.76 10.667 42.667 6.827 90.88 10.667 143.787 10.667s101.547-4.267 144.213-10.667c19.2-2.987 36.693-6.4 53.76-10.667 48.64-11.52 87.467-26.88 113.493-43.093 10.667 14.507 20.053 29.867 28.587 45.653-34.987 21.333-80.64 37.973-133.12 50.347h0.853z" />
</font>
</defs>
</svg>
